<svg width="24" height="24" viewBox="0 0 24 24" fill="none" xmlns="http://www.w3.org/2000/svg">
    <path fill-rule="evenodd" clip-rule="evenodd"
          d="M8.99688 22.5152C8.99688 22.6529 9.11499 22.7711 9.25278 22.7711C9.39057 22.7711 9.48899 22.6529 9.48899 22.5348V20.9404L9.52836 20.901C9.64647 20.7632 9.72522 20.5861 9.72522 20.4089V20.0743C9.72522 19.9365 9.68583 19.8184 9.6071 19.7003C9.6071 19.6806 9.58741 19.6609 9.56773 19.6412C9.64647 19.6216 9.72522 19.5625 9.78427 19.5034C9.90238 19.3657 9.98112 19.1885 9.98112 19.0113V18.7161C9.98112 18.5389 9.90238 18.3814 9.78427 18.2437L10.2567 17.8106C10.3354 17.7319 10.3945 17.6531 10.4339 17.5744C10.4732 17.4956 10.4929 17.3972 10.4929 17.2988V16.0784L10.8866 15.5272C10.926 15.4682 10.9653 15.3894 10.985 15.3304C10.9884 15.3168 10.9917 15.304 10.995 15.2914C11.0109 15.2308 11.0244 15.179 11.0244 15.1138V9.68097C11.0244 9.48413 10.9653 9.32665 10.8275 9.18886C10.7094 9.07076 10.5323 8.99202 10.3551 8.99202V6H6.26076V8.99202C6.0836 9.0117 5.94581 9.07076 5.8277 9.18886C5.7096 9.32665 5.63086 9.50381 5.63086 9.68097V15.1138C5.63086 15.1926 5.65054 15.2713 5.67023 15.291C5.68991 15.3697 5.72928 15.4288 5.76865 15.4878L6.16234 16.039V17.2594C6.16234 17.3579 6.18202 17.4366 6.22139 17.535C6.26076 17.6334 6.31981 17.7122 6.39855 17.7712L6.91034 18.224C6.79224 18.3421 6.73318 18.5192 6.73318 18.6767V18.972C6.73318 19.1688 6.79224 19.3263 6.93003 19.4641C6.96939 19.5034 7.02845 19.5428 7.0875 19.5822C7.06005 19.5959 7.04217 19.6192 7.02719 19.6387C7.02068 19.6472 7.01472 19.6549 7.00876 19.6609C6.93003 19.7987 6.87097 19.9365 6.87097 20.094V20.4089C6.87097 20.5664 6.91034 20.7239 7.00876 20.842C7.04813 20.901 7.10719 20.9404 7.16624 20.9798V22.5152C7.16624 22.6529 7.28434 22.7711 7.42213 22.7711C7.55992 22.7711 7.67803 22.6529 7.67803 22.5152V20.6451L7.50087 20.5861C7.4615 20.5861 7.42213 20.5467 7.40245 20.527C7.38277 20.4877 7.36308 20.4483 7.36308 20.4089V20.094C7.36308 20.0349 7.38277 19.9956 7.40245 19.9759C7.42213 19.9562 7.4615 19.9365 7.50087 19.9168L7.65835 19.8578L7.64927 19.4018L7.40245 19.1885C7.36308 19.1885 7.30403 19.1688 7.28434 19.1491C7.24498 19.1098 7.22529 19.0704 7.22529 19.0113V18.7161C7.22529 18.657 7.24498 18.6177 7.28434 18.5783C7.30403 18.5389 7.32371 18.5192 7.36308 18.5192L7.40245 18.1716L6.69381 17.4169C6.68397 17.4071 6.67905 17.3972 6.67413 17.3874C6.66921 17.3775 6.66429 17.3677 6.65445 17.3579C6.63476 17.3382 6.63476 17.2988 6.63476 17.2791V15.9012L6.14265 15.2319C6.14265 15.2221 6.13773 15.2123 6.13281 15.2024C6.12789 15.1926 6.12297 15.1827 6.12297 15.1729V9.68097C6.12297 9.62192 6.14265 9.58255 6.18202 9.54318C6.22139 9.50381 6.26076 9.48413 6.31981 9.48413H10.2961C10.3551 9.48413 10.3945 9.50381 10.4339 9.54318C10.4732 9.58255 10.4929 9.62192 10.4929 9.68097V15.1532C10.4929 15.1729 10.4929 15.1926 10.4732 15.2123L9.98112 15.9012V17.2791C9.98112 17.2988 9.98112 17.3382 9.96143 17.3579C9.96143 17.3775 9.94175 17.3972 9.92206 17.4169L9.28964 18.1716L9.31183 18.4995C9.3512 18.5192 9.39057 18.5389 9.41025 18.5586C9.44962 18.598 9.46931 18.6373 9.46931 18.6964V18.9917C9.46931 19.0507 9.44962 19.0901 9.41025 19.1294C9.37088 19.1688 9.33152 19.1885 9.27246 19.1885L8.99688 19.4018L8.9772 19.8578L9.11499 19.9168C9.14506 19.9168 9.16365 19.9398 9.17953 19.9594C9.18443 19.9655 9.18907 19.9712 9.19373 19.9759C9.21341 19.9956 9.23309 20.0349 9.23309 20.0743V20.4089C9.23309 20.468 9.21341 20.5074 9.17404 20.5467C9.17404 20.5664 9.15436 20.5861 9.13467 20.5861L8.99688 20.6451V22.5152ZM9.86301 8.99202H6.75287V6.49211H9.86301V8.99202Z"
          fill="currentColor"/>
    <path d="M7.17969 22.6006H9.4844" stroke="currentColor" stroke-width="0.5"/>
    <mask id="path-3-outside-1_1213_65258" maskUnits="userSpaceOnUse" x="11.9648" y="11" width="5" height="12"
          fill="black">
        <rect fill="white" x="11.9648" y="11" width="5" height="12"/>
        <path fill-rule="evenodd" clip-rule="evenodd"
              d="M15.1277 22.6119C15.1277 22.7004 15.2036 22.7763 15.2921 22.7763C15.3807 22.7763 15.4439 22.7004 15.4439 22.6246V21.6L15.4692 21.5747C15.5451 21.4862 15.5957 21.3724 15.5957 21.2585V21.0435C15.5957 20.955 15.5704 20.8791 15.5198 20.8032C15.5198 20.7906 15.5071 20.7779 15.4945 20.7653C15.5451 20.7526 15.5957 20.7147 15.6336 20.6767C15.7095 20.5882 15.7601 20.4743 15.7601 20.3605V20.1708C15.7601 20.057 15.7095 19.9558 15.6336 19.8672L15.9372 19.589C15.9878 19.5384 16.0257 19.4878 16.051 19.4372C16.0763 19.3866 16.089 19.3234 16.089 19.2601V18.4759L16.3419 18.1218C16.3672 18.0838 16.3925 18.0332 16.4052 17.9953C16.4073 17.9866 16.4095 17.9783 16.4116 17.9702C16.4218 17.9313 16.4305 17.898 16.4305 17.8562V14.3652C16.4305 14.2387 16.3925 14.1376 16.304 14.049C16.2281 13.9731 16.1143 13.9225 16.0004 13.9225V12H13.3696V13.9225C13.2558 13.9352 13.1672 13.9731 13.0913 14.049C13.0154 14.1376 12.9648 14.2514 12.9648 14.3652V17.8562C12.9648 17.9067 12.9775 17.9573 12.9901 17.97C13.0028 18.0206 13.0281 18.0585 13.0534 18.0965L13.3063 18.4506V19.2348C13.3063 19.2981 13.319 19.3486 13.3443 19.4119C13.3696 19.4751 13.4075 19.5257 13.4581 19.5637L13.787 19.8546C13.7111 19.9305 13.6731 20.0443 13.6731 20.1455V20.3352C13.6731 20.4617 13.7111 20.5629 13.7996 20.6514C13.8249 20.6767 13.8629 20.702 13.9008 20.7273C13.8832 20.7361 13.8717 20.7511 13.8621 20.7636C13.8579 20.7691 13.854 20.7741 13.8502 20.7779C13.7996 20.8664 13.7617 20.955 13.7617 21.0562V21.2585C13.7617 21.3597 13.787 21.4609 13.8502 21.5368C13.8755 21.5747 13.9135 21.6 13.9514 21.6253V22.6119C13.9514 22.7004 14.0273 22.7763 14.1158 22.7763C14.2044 22.7763 14.2803 22.7004 14.2803 22.6119V21.4103L14.1664 21.3724C14.1411 21.3724 14.1158 21.3471 14.1032 21.3344C14.0905 21.3091 14.0779 21.2838 14.0779 21.2585V21.0562C14.0779 21.0182 14.0905 20.9929 14.1032 20.9803C14.1158 20.9676 14.1411 20.955 14.1664 20.9423L14.2676 20.9044L14.2618 20.6114L14.1032 20.4743C14.0779 20.4743 14.0399 20.4617 14.0273 20.449C14.002 20.4238 13.9894 20.3985 13.9894 20.3605V20.1708C13.9894 20.1328 14.002 20.1075 14.0273 20.0822C14.0399 20.057 14.0526 20.0443 14.0779 20.0443L14.1032 19.8209L13.6479 19.336C13.6415 19.3297 13.6384 19.3234 13.6352 19.317C13.632 19.3107 13.6289 19.3044 13.6226 19.2981C13.6099 19.2854 13.6099 19.2601 13.6099 19.2475V18.3621L13.2937 17.932C13.2937 17.9257 13.2905 17.9194 13.2874 17.9131C13.2842 17.9067 13.2811 17.9004 13.2811 17.8941V14.3652C13.2811 14.3273 13.2937 14.302 13.319 14.2767C13.3443 14.2514 13.3696 14.2387 13.4075 14.2387H15.9625C16.0004 14.2387 16.0257 14.2514 16.051 14.2767C16.0763 14.302 16.089 14.3273 16.089 14.3652V17.8814C16.089 17.8941 16.089 17.9067 16.0763 17.9194L15.7601 18.3621V19.2475C15.7601 19.2601 15.7601 19.2854 15.7475 19.2981C15.7475 19.3107 15.7348 19.3234 15.7222 19.336L15.3158 19.8209L15.3301 20.0317C15.3554 20.0443 15.3807 20.057 15.3933 20.0696C15.4186 20.0949 15.4313 20.1202 15.4313 20.1581V20.3479C15.4313 20.3858 15.4186 20.4111 15.3933 20.4364C15.368 20.4617 15.3427 20.4743 15.3048 20.4743L15.1277 20.6114L15.1151 20.9044L15.2036 20.9423C15.2229 20.9423 15.2349 20.9571 15.2451 20.9697C15.2482 20.9736 15.2512 20.9773 15.2542 20.9803C15.2668 20.9929 15.2795 21.0182 15.2795 21.0435V21.2585C15.2795 21.2965 15.2668 21.3218 15.2415 21.3471C15.2415 21.3597 15.2289 21.3724 15.2162 21.3724L15.1277 21.4103V22.6119ZM15.6842 13.9225H13.6858V12.3162H15.6842V13.9225Z"/>
    </mask>
    <path fill-rule="evenodd" clip-rule="evenodd"
          d="M15.1277 22.6119C15.1277 22.7004 15.2036 22.7763 15.2921 22.7763C15.3807 22.7763 15.4439 22.7004 15.4439 22.6246V21.6L15.4692 21.5747C15.5451 21.4862 15.5957 21.3724 15.5957 21.2585V21.0435C15.5957 20.955 15.5704 20.8791 15.5198 20.8032C15.5198 20.7906 15.5071 20.7779 15.4945 20.7653C15.5451 20.7526 15.5957 20.7147 15.6336 20.6767C15.7095 20.5882 15.7601 20.4743 15.7601 20.3605V20.1708C15.7601 20.057 15.7095 19.9558 15.6336 19.8672L15.9372 19.589C15.9878 19.5384 16.0257 19.4878 16.051 19.4372C16.0763 19.3866 16.089 19.3234 16.089 19.2601V18.4759L16.3419 18.1218C16.3672 18.0838 16.3925 18.0332 16.4052 17.9953C16.4073 17.9866 16.4095 17.9783 16.4116 17.9702C16.4218 17.9313 16.4305 17.898 16.4305 17.8562V14.3652C16.4305 14.2387 16.3925 14.1376 16.304 14.049C16.2281 13.9731 16.1143 13.9225 16.0004 13.9225V12H13.3696V13.9225C13.2558 13.9352 13.1672 13.9731 13.0913 14.049C13.0154 14.1376 12.9648 14.2514 12.9648 14.3652V17.8562C12.9648 17.9067 12.9775 17.9573 12.9901 17.97C13.0028 18.0206 13.0281 18.0585 13.0534 18.0965L13.3063 18.4506V19.2348C13.3063 19.2981 13.319 19.3486 13.3443 19.4119C13.3696 19.4751 13.4075 19.5257 13.4581 19.5637L13.787 19.8546C13.7111 19.9305 13.6731 20.0443 13.6731 20.1455V20.3352C13.6731 20.4617 13.7111 20.5629 13.7996 20.6514C13.8249 20.6767 13.8629 20.702 13.9008 20.7273C13.8832 20.7361 13.8717 20.7511 13.8621 20.7636C13.8579 20.7691 13.854 20.7741 13.8502 20.7779C13.7996 20.8664 13.7617 20.955 13.7617 21.0562V21.2585C13.7617 21.3597 13.787 21.4609 13.8502 21.5368C13.8755 21.5747 13.9135 21.6 13.9514 21.6253V22.6119C13.9514 22.7004 14.0273 22.7763 14.1158 22.7763C14.2044 22.7763 14.2803 22.7004 14.2803 22.6119V21.4103L14.1664 21.3724C14.1411 21.3724 14.1158 21.3471 14.1032 21.3344C14.0905 21.3091 14.0779 21.2838 14.0779 21.2585V21.0562C14.0779 21.0182 14.0905 20.9929 14.1032 20.9803C14.1158 20.9676 14.1411 20.955 14.1664 20.9423L14.2676 20.9044L14.2618 20.6114L14.1032 20.4743C14.0779 20.4743 14.0399 20.4617 14.0273 20.449C14.002 20.4238 13.9894 20.3985 13.9894 20.3605V20.1708C13.9894 20.1328 14.002 20.1075 14.0273 20.0822C14.0399 20.057 14.0526 20.0443 14.0779 20.0443L14.1032 19.8209L13.6479 19.336C13.6415 19.3297 13.6384 19.3234 13.6352 19.317C13.632 19.3107 13.6289 19.3044 13.6226 19.2981C13.6099 19.2854 13.6099 19.2601 13.6099 19.2475V18.3621L13.2937 17.932C13.2937 17.9257 13.2905 17.9194 13.2874 17.9131C13.2842 17.9067 13.2811 17.9004 13.2811 17.8941V14.3652C13.2811 14.3273 13.2937 14.302 13.319 14.2767C13.3443 14.2514 13.3696 14.2387 13.4075 14.2387H15.9625C16.0004 14.2387 16.0257 14.2514 16.051 14.2767C16.0763 14.302 16.089 14.3273 16.089 14.3652V17.8814C16.089 17.8941 16.089 17.9067 16.0763 17.9194L15.7601 18.3621V19.2475C15.7601 19.2601 15.7601 19.2854 15.7475 19.2981C15.7475 19.3107 15.7348 19.3234 15.7222 19.336L15.3158 19.8209L15.3301 20.0317C15.3554 20.0443 15.3807 20.057 15.3933 20.0696C15.4186 20.0949 15.4313 20.1202 15.4313 20.1581V20.3479C15.4313 20.3858 15.4186 20.4111 15.3933 20.4364C15.368 20.4617 15.3427 20.4743 15.3048 20.4743L15.1277 20.6114L15.1151 20.9044L15.2036 20.9423C15.2229 20.9423 15.2349 20.9571 15.2451 20.9697C15.2482 20.9736 15.2512 20.9773 15.2542 20.9803C15.2668 20.9929 15.2795 21.0182 15.2795 21.0435V21.2585C15.2795 21.2965 15.2668 21.3218 15.2415 21.3471C15.2415 21.3597 15.2289 21.3724 15.2162 21.3724L15.1277 21.4103V22.6119ZM15.6842 13.9225H13.6858V12.3162H15.6842V13.9225Z"
          fill="currentColor"/>
    <path fill-rule="evenodd" clip-rule="evenodd"
          d="M15.1277 22.6119C15.1277 22.7004 15.2036 22.7763 15.2921 22.7763C15.3807 22.7763 15.4439 22.7004 15.4439 22.6246V21.6L15.4692 21.5747C15.5451 21.4862 15.5957 21.3724 15.5957 21.2585V21.0435C15.5957 20.955 15.5704 20.8791 15.5198 20.8032C15.5198 20.7906 15.5071 20.7779 15.4945 20.7653C15.5451 20.7526 15.5957 20.7147 15.6336 20.6767C15.7095 20.5882 15.7601 20.4743 15.7601 20.3605V20.1708C15.7601 20.057 15.7095 19.9558 15.6336 19.8672L15.9372 19.589C15.9878 19.5384 16.0257 19.4878 16.051 19.4372C16.0763 19.3866 16.089 19.3234 16.089 19.2601V18.4759L16.3419 18.1218C16.3672 18.0838 16.3925 18.0332 16.4052 17.9953C16.4073 17.9866 16.4095 17.9783 16.4116 17.9702C16.4218 17.9313 16.4305 17.898 16.4305 17.8562V14.3652C16.4305 14.2387 16.3925 14.1376 16.304 14.049C16.2281 13.9731 16.1143 13.9225 16.0004 13.9225V12H13.3696V13.9225C13.2558 13.9352 13.1672 13.9731 13.0913 14.049C13.0154 14.1376 12.9648 14.2514 12.9648 14.3652V17.8562C12.9648 17.9067 12.9775 17.9573 12.9901 17.97C13.0028 18.0206 13.0281 18.0585 13.0534 18.0965L13.3063 18.4506V19.2348C13.3063 19.2981 13.319 19.3486 13.3443 19.4119C13.3696 19.4751 13.4075 19.5257 13.4581 19.5637L13.787 19.8546C13.7111 19.9305 13.6731 20.0443 13.6731 20.1455V20.3352C13.6731 20.4617 13.7111 20.5629 13.7996 20.6514C13.8249 20.6767 13.8629 20.702 13.9008 20.7273C13.8832 20.7361 13.8717 20.7511 13.8621 20.7636C13.8579 20.7691 13.854 20.7741 13.8502 20.7779C13.7996 20.8664 13.7617 20.955 13.7617 21.0562V21.2585C13.7617 21.3597 13.787 21.4609 13.8502 21.5368C13.8755 21.5747 13.9135 21.6 13.9514 21.6253V22.6119C13.9514 22.7004 14.0273 22.7763 14.1158 22.7763C14.2044 22.7763 14.2803 22.7004 14.2803 22.6119V21.4103L14.1664 21.3724C14.1411 21.3724 14.1158 21.3471 14.1032 21.3344C14.0905 21.3091 14.0779 21.2838 14.0779 21.2585V21.0562C14.0779 21.0182 14.0905 20.9929 14.1032 20.9803C14.1158 20.9676 14.1411 20.955 14.1664 20.9423L14.2676 20.9044L14.2618 20.6114L14.1032 20.4743C14.0779 20.4743 14.0399 20.4617 14.0273 20.449C14.002 20.4238 13.9894 20.3985 13.9894 20.3605V20.1708C13.9894 20.1328 14.002 20.1075 14.0273 20.0822C14.0399 20.057 14.0526 20.0443 14.0779 20.0443L14.1032 19.8209L13.6479 19.336C13.6415 19.3297 13.6384 19.3234 13.6352 19.317C13.632 19.3107 13.6289 19.3044 13.6226 19.2981C13.6099 19.2854 13.6099 19.2601 13.6099 19.2475V18.3621L13.2937 17.932C13.2937 17.9257 13.2905 17.9194 13.2874 17.9131C13.2842 17.9067 13.2811 17.9004 13.2811 17.8941V14.3652C13.2811 14.3273 13.2937 14.302 13.319 14.2767C13.3443 14.2514 13.3696 14.2387 13.4075 14.2387H15.9625C16.0004 14.2387 16.0257 14.2514 16.051 14.2767C16.0763 14.302 16.089 14.3273 16.089 14.3652V17.8814C16.089 17.8941 16.089 17.9067 16.0763 17.9194L15.7601 18.3621V19.2475C15.7601 19.2601 15.7601 19.2854 15.7475 19.2981C15.7475 19.3107 15.7348 19.3234 15.7222 19.336L15.3158 19.8209L15.3301 20.0317C15.3554 20.0443 15.3807 20.057 15.3933 20.0696C15.4186 20.0949 15.4313 20.1202 15.4313 20.1581V20.3479C15.4313 20.3858 15.4186 20.4111 15.3933 20.4364C15.368 20.4617 15.3427 20.4743 15.3048 20.4743L15.1277 20.6114L15.1151 20.9044L15.2036 20.9423C15.2229 20.9423 15.2349 20.9571 15.2451 20.9697C15.2482 20.9736 15.2512 20.9773 15.2542 20.9803C15.2668 20.9929 15.2795 21.0182 15.2795 21.0435V21.2585C15.2795 21.2965 15.2668 21.3218 15.2415 21.3471C15.2415 21.3597 15.2289 21.3724 15.2162 21.3724L15.1277 21.4103V22.6119ZM15.6842 13.9225H13.6858V12.3162H15.6842V13.9225Z"
          stroke="currentColor" stroke-width="0.3" mask="url(#path-3-outside-1_1213_65258)"/>
    <path d="M13.9609 22.667H15.4418" stroke="currentColor" stroke-width="0.5"/>
</svg>
