<svg width="24" height="24" viewBox="0 0 24 24" fill="none" xmlns="http://www.w3.org/2000/svg">
    <path d="M5 15V9C5 8.44772 5.44772 8 6 8H17C17.5523 8 18 8.44772 18 9V13.5858C18 13.851 17.8946 14.1054 17.7071 14.2929L16.2929 15.7071C16.1054 15.8946 15.851 16 15.5858 16H6C5.44772 16 5 15.5523 5 15Z"
          stroke="currentColor" stroke-width="0.5"/>
    <path d="M9.31836 12.3223C9.31836 12.2246 9.28125 12.1491 9.20703 12.0957C9.13411 12.041 9.00586 11.9941 8.82227 11.9551C8.63997 11.916 8.49479 11.8691 8.38672 11.8145C8.27995 11.7598 8.20052 11.6947 8.14844 11.6191C8.09766 11.5436 8.07227 11.4538 8.07227 11.3496C8.07227 11.1764 8.14518 11.0299 8.29102 10.9102C8.43815 10.7904 8.62565 10.7305 8.85352 10.7305C9.0931 10.7305 9.28711 10.7923 9.43555 10.916C9.58529 11.0397 9.66016 11.1979 9.66016 11.3906H9.29688C9.29688 11.2917 9.25456 11.2064 9.16992 11.1348C9.08659 11.0632 8.98112 11.0273 8.85352 11.0273C8.72201 11.0273 8.61914 11.056 8.54492 11.1133C8.4707 11.1706 8.43359 11.2454 8.43359 11.3379C8.43359 11.4251 8.4681 11.4909 8.53711 11.5352C8.60612 11.5794 8.73047 11.6217 8.91016 11.6621C9.09115 11.7025 9.23763 11.7507 9.34961 11.8066C9.46159 11.8626 9.54427 11.9303 9.59766 12.0098C9.65234 12.0879 9.67969 12.1836 9.67969 12.2969C9.67969 12.4857 9.60417 12.6374 9.45312 12.752C9.30208 12.8652 9.10612 12.9219 8.86523 12.9219C8.69596 12.9219 8.54622 12.8919 8.41602 12.832C8.28581 12.7721 8.18359 12.6888 8.10938 12.582C8.03646 12.474 8 12.3574 8 12.2324H8.36133C8.36784 12.3535 8.41602 12.4499 8.50586 12.5215C8.59701 12.5918 8.7168 12.627 8.86523 12.627C9.00195 12.627 9.11133 12.5996 9.19336 12.5449C9.27669 12.4889 9.31836 12.4147 9.31836 12.3223Z"
          fill="currentColor"/>
    <path d="M10.543 12.8828H10.1816V10.7695H10.543V12.8828ZM10.1523 10.209C10.1523 10.1504 10.1699 10.1009 10.2051 10.0605C10.2415 10.0202 10.2949 10 10.3652 10C10.4355 10 10.4889 10.0202 10.5254 10.0605C10.5618 10.1009 10.5801 10.1504 10.5801 10.209C10.5801 10.2676 10.5618 10.3164 10.5254 10.3555C10.4889 10.3945 10.4355 10.4141 10.3652 10.4141C10.2949 10.4141 10.2415 10.3945 10.2051 10.3555C10.1699 10.3164 10.1523 10.2676 10.1523 10.209Z"
          fill="currentColor"/>
    <path d="M11.4629 10.7695L11.4727 11.0039C11.6276 10.8216 11.8366 10.7305 12.0996 10.7305C12.3952 10.7305 12.5964 10.8438 12.7031 11.0703C12.7734 10.9688 12.8646 10.8867 12.9766 10.8242C13.0898 10.7617 13.2233 10.7305 13.377 10.7305C13.8405 10.7305 14.0762 10.9759 14.084 11.4668V12.8828H13.7227V11.4883C13.7227 11.3372 13.6882 11.2246 13.6191 11.1504C13.5501 11.0749 13.4342 11.0371 13.2715 11.0371C13.1374 11.0371 13.026 11.0775 12.9375 11.1582C12.849 11.2376 12.7975 11.3451 12.7832 11.4805V12.8828H12.4199V11.498C12.4199 11.1908 12.2695 11.0371 11.9688 11.0371C11.7318 11.0371 11.5697 11.138 11.4824 11.3398V12.8828H11.1211V10.7695H11.4629Z"
          fill="currentColor"/>
</svg>
