<svg width="24" height="24" viewBox="0 0 24 24" fill="none" xmlns="http://www.w3.org/2000/svg">
    <path d="M10.5 17.25H3C2.60218 17.25 2.22064 17.092 1.93934 16.8107C1.65804 16.5294 1.5 16.1478 1.5 15.75V9C1.5 8.60218 1.65804 8.22064 1.93934 7.93934C2.22064 7.65804 2.60218 7.5 3 7.5H10.5"
          stroke="currentColor" stroke-width="0.5" stroke-linecap="round" stroke-linejoin="round"/>
    <path d="M18.75 3.75H11.25C10.8358 3.75 10.5 4.08579 10.5 4.5V19.5C10.5 19.9142 10.8358 20.25 11.25 20.25H18.75C19.1642 20.25 19.5 19.9142 19.5 19.5V4.5C19.5 4.08579 19.1642 3.75 18.75 3.75Z"
          stroke="currentColor" stroke-width="0.5" stroke-linecap="round" stroke-linejoin="round"/>
    <path d="M10.5 20.25H6" stroke="currentColor" stroke-width="0.5" stroke-linecap="round" stroke-linejoin="round"/>
    <path d="M16.5 6.75H13.5" stroke="currentColor" stroke-width="0.5" stroke-linecap="round" stroke-linejoin="round"/>
    <path d="M16.5 9.75H13.5" stroke="currentColor" stroke-width="0.5" stroke-linecap="round" stroke-linejoin="round"/>
    <path d="M8.25 17.25V20.25" stroke="currentColor" stroke-width="0.5" stroke-linecap="round" stroke-linejoin="round"/>
    <path d="M15 18C15.5523 18 16 17.5523 16 17C16 16.4477 15.5523 16 15 16C14.4477 16 14 16.4477 14 17C14 17.5523 14.4477 18 15 18Z"
          fill="currentColor"/>
</svg>
