<svg width="24" height="24" viewBox="0 0 24 24" fill="none" xmlns="http://www.w3.org/2000/svg">
    <path fill-rule="evenodd" clip-rule="evenodd"
          d="M5 17.968C5 20.56 7.832 20.632 8.168 20.632C9.824 20.632 11.576 19.936 11.576 17.968V8.48799C11.576 8.24799 11.504 8.05599 11.336 7.888C11.192 7.744 10.976 7.648 10.76 7.648V4H5.768V7.648C5.552 7.672 5.384 7.744 5.24 7.888C5.096 8.05599 5 8.27199 5 8.48799V17.968ZM5.672 8.31999C5.72 8.27199 5.768 8.24799 5.84 8.24799H10.736C10.808 8.24799 10.856 8.27199 10.904 8.31999C10.952 8.36799 10.976 8.41599 10.976 8.48799V17.968C10.976 19.888 8.816 20.032 8.168 20.032C7.736 20.032 5.6 19.936 5.6 17.968V8.48799C5.6 8.41599 5.624 8.36799 5.672 8.31999ZM10.16 7.648H6.368V4.6H10.16V7.648Z"
          fill="currentColor"/>
    <path d="M9.16626 17.0217L12.8301 10.6758L16.6376 12.8741L12.6074 19.8546L11.6065 20.1228L10.1541 19.7073L9.38538 18.8405L8.93398 18.1568L9.16626 17.0217Z"
          fill="white"/>
    <path fill-rule="evenodd" clip-rule="evenodd"
          d="M8.97613 16.864C8.02647 18.5088 9.79725 19.5921 10.0105 19.7152C11.0614 20.322 12.4282 20.5222 13.1492 19.2733L16.6225 13.2574C16.7104 13.1051 16.7351 12.9568 16.69 12.7887C16.6514 12.6446 16.5495 12.5045 16.4124 12.4254L17.749 10.1104L14.5811 8.28138L13.2446 10.5964C13.0987 10.5325 12.9657 10.5166 12.8216 10.5552C12.6686 10.6091 12.5286 10.711 12.4494 10.848L8.97613 16.864ZM12.9374 10.9876C12.9855 10.9748 13.0247 10.9771 13.0704 11.0035L16.1774 12.7973C16.2231 12.8237 16.2447 12.8565 16.2576 12.9046C16.2705 12.9526 16.2681 12.9919 16.2418 13.0375L12.7685 19.0535C12.065 20.2719 10.6415 19.5719 10.2303 19.3345C9.95616 19.1762 8.63584 18.3327 9.35688 17.0838L12.8302 11.0679C12.8566 11.0222 12.8894 11.0005 12.9374 10.9876ZM16.0317 12.2055L13.6253 10.8162L14.742 8.88197L17.1484 10.2713L16.0317 12.2055Z"
          fill="currentColor"/>
</svg>
