<svg width="24" height="24" viewBox="0 0 24 24" fill="none" xmlns="http://www.w3.org/2000/svg">
    <path d="M18 12.5H17L18.5 13.5L19 14.5L19.5 15.5V16.5V17.5L19 18.5L18 19.5L16.5 20.5H18L20 19L21 16.5L20.5 14.5L19.5 13L18 12.5Z"
          fill="#F8F8F8"/>
    <path fill-rule="evenodd" clip-rule="evenodd"
          d="M11.9052 6.32156C11.3292 6.32156 10.8732 6.22556 10.5852 6.03356C10.3932 5.88956 10.3212 5.74556 10.2972 5.62556C10.1772 4.92956 11.4012 4.32956 12.6732 4.06556C13.4098 3.91825 14.1017 3.90489 14.6043 4.01027C15.7139 3.87791 16.8513 4.00487 16.9692 4.64156C17.0892 5.33756 15.8652 5.93756 14.5932 6.20156L14.145 6.26559C14.2482 10.4855 14.0563 12.2726 13.6812 15.2736H13.6862C14.1015 13.3184 15.6082 11.9616 17.3292 11.9616C19.3932 11.9616 21.0972 13.9296 21.0972 16.3536C21.0972 18.7776 19.4172 20.7456 17.3532 20.7456C16.5132 20.7456 15.7212 20.4096 15.0972 19.8576C15.074 19.8344 15.0484 19.8112 15.0218 19.7872C14.9659 19.7367 14.906 19.6827 14.8572 19.6176L14.8332 19.5936C14.277 18.991 13.855 18.2094 13.697 17.3136H10.2375C9.86864 19.29 8.32626 20.7455 6.52916 20.7455C5.68916 20.7455 4.89716 20.4095 4.27316 19.8575C4.24999 19.8344 4.22434 19.8112 4.1978 19.7873C4.14187 19.7367 4.08198 19.6826 4.03316 19.6175L4.00916 19.5935C3.26516 18.8015 2.78516 17.6495 2.78516 16.3535C2.78516 15.0335 3.28916 13.8575 4.08116 13.0655L4.10516 13.0415C4.15316 12.9935 4.17716 12.9695 4.22516 12.9455C4.87316 12.3455 5.66516 12.0095 6.55316 12.0095C8.246 12.0095 9.69668 13.3334 10.1637 15.1469C10.7394 14.6332 12.3507 12.6157 12.4764 6.28844C12.2779 6.30952 12.0855 6.32156 11.9052 6.32156ZM14.5762 5.70197C15.8306 5.45275 16.5119 4.92451 16.4652 4.73756C16.4471 4.61118 16.0624 4.44406 15.3722 4.44053C15.4198 4.51171 15.4448 4.57982 15.4572 4.64156C15.5262 5.04206 15.1503 5.41078 14.5762 5.70197ZM14.584 4.49916C14.736 4.53708 14.8526 4.58682 14.9292 4.64156C14.9349 4.64723 14.9419 4.65289 14.9493 4.65887C14.9732 4.67823 15.0012 4.70089 15.0012 4.73756C15.0492 4.92956 14.3292 5.48156 13.0092 5.72156C11.9292 5.91356 11.1372 5.81756 10.8732 5.62556C10.8675 5.6199 10.8605 5.61423 10.8531 5.60825C10.8292 5.58889 10.8012 5.56623 10.8012 5.52956C10.7532 5.33756 11.4732 4.78556 12.7932 4.54556C13.2012 4.44956 13.5852 4.42556 13.8972 4.42556C14.1035 4.42556 14.2857 4.44165 14.4405 4.46889C14.4844 4.4947 14.5357 4.50631 14.584 4.49916ZM13.0812 6.20156C13.2765 6.16103 13.4706 6.11258 13.659 6.05707C13.775 10.7318 13.5592 12.5286 13.1772 15.4896C13.1532 15.5616 13.1772 15.6336 13.2252 15.6816C13.2732 15.7296 13.3452 15.7536 13.4172 15.7536H16.2492C16.5132 15.7536 16.7052 15.9696 16.7052 16.2336V16.3536C16.7052 16.6176 16.5132 16.8336 16.2492 16.8336H10.3027C10.3149 16.6916 10.3212 16.5475 10.3212 16.4016C10.3212 16.1539 10.3034 15.9109 10.2693 15.6744C10.7423 15.3586 12.8296 13.5537 12.9577 6.2226C12.9989 6.21585 13.04 6.20883 13.0812 6.20156ZM14.2958 17.3136C14.4857 18.1658 14.8987 18.8861 15.4572 19.3776C15.8652 19.7136 16.2972 19.7616 16.4892 19.7616C18.0492 19.7616 19.3212 18.2256 19.3212 16.3536C19.3212 14.4816 18.0492 12.9456 16.4892 12.9456C16.0572 12.9456 15.6732 13.1136 15.3372 13.4256L15.3132 13.4496C14.8626 13.9227 14.4965 14.544 14.3144 15.2736H16.2492C16.7532 15.2976 17.1612 15.7296 17.1612 16.2336V16.3536C17.1852 16.8816 16.7532 17.3136 16.2492 17.3136H14.2958ZM6.84116 12.5855C8.16116 13.1375 9.09716 14.6255 9.09716 16.3535C9.09716 18.0815 8.16116 19.5455 6.84116 20.1216C8.42516 19.9295 9.67316 18.3215 9.67316 16.3535C9.67316 14.3855 8.44916 12.7775 6.84116 12.5855ZM4.60916 19.3535C5.04116 19.7135 5.49716 19.7616 5.66516 19.7616C7.22516 19.7616 8.49716 18.2255 8.49716 16.3535C8.49716 14.4815 7.22516 12.9455 5.66516 12.9455C5.49716 12.9455 4.92116 13.0655 4.53716 13.4015C3.81716 14.0975 3.36116 15.1535 3.36116 16.3535C3.36116 17.5775 3.86516 18.6575 4.60916 19.3535ZM19.9212 16.3536C19.9212 14.6256 18.9852 13.1376 17.6652 12.5856C19.2492 12.7776 20.4972 14.3856 20.4972 16.3536C20.4972 18.3216 19.2492 19.9296 17.6652 20.1216C18.9852 19.5456 19.9212 18.0816 19.9212 16.3536Z"
          fill="currentColor"/>
</svg>
