<svg width="24" height="24" viewBox="0 0 24 24" fill="none" xmlns="http://www.w3.org/2000/svg">
    <path d="M20.9574 12.0998L19.0264 13.0653L16.5264 8.27767L18.4771 7.30231C18.6237 7.22903 18.7931 7.21624 18.949 7.26669C19.1049 7.31713 19.2348 7.42679 19.3106 7.57204L21.2319 11.2515C21.2704 11.3251 21.2937 11.4056 21.3007 11.4883C21.3077 11.571 21.2981 11.6542 21.2726 11.7332C21.247 11.8122 21.206 11.8853 21.1519 11.9482C21.0978 12.0111 21.0317 12.0627 20.9574 12.0998V12.0998Z"
          stroke="currentColor" stroke-width="0.5" stroke-linecap="round" stroke-linejoin="round"/>
    <path d="M5.27656 12.9813L3.34549 12.0158C3.27125 11.9787 3.20515 11.9272 3.15105 11.8642C3.09694 11.8013 3.05591 11.7282 3.03036 11.6492C3.0048 11.5703 2.99524 11.487 3.00221 11.4043C3.00919 11.3216 3.03257 11.2411 3.07098 11.1675L4.99231 7.48805C5.06815 7.34281 5.198 7.23315 5.3539 7.1827C5.5098 7.13226 5.67927 7.14505 5.82583 7.21833L7.77656 8.19369L5.27656 12.9813Z"
          stroke="currentColor" stroke-width="0.5" stroke-linecap="round" stroke-linejoin="round"/>
    <path d="M19.0264 13.0652L17.7764 14.5275L14.9016 17.4023C14.8253 17.4786 14.7305 17.5339 14.6265 17.5627C14.5225 17.5915 14.4128 17.5929 14.3081 17.5667L9.78018 16.4347C9.69525 16.4135 9.61573 16.3747 9.54677 16.3207L5.27637 12.9814"
          stroke="currentColor" stroke-width="0.5" stroke-linecap="round" stroke-linejoin="round"/>
    <path d="M17.7765 14.5273L14.339 12.0273L13.339 12.7773C12.9063 13.1019 12.3799 13.2773 11.839 13.2773C11.2981 13.2773 10.7718 13.1019 10.339 12.7773L9.91553 12.4597C9.84389 12.406 9.78464 12.3375 9.74178 12.2589C9.69891 12.1803 9.67345 12.0933 9.6671 12.004C9.66075 11.9147 9.67367 11.8251 9.70498 11.7412C9.7363 11.6573 9.78527 11.5811 9.84859 11.5178L12.906 8.4604C12.964 8.40237 13.0329 8.35633 13.1087 8.32492C13.1846 8.29351 13.2658 8.27734 13.3479 8.27734H16.5265"
          stroke="currentColor" stroke-width="0.5" stroke-linecap="round" stroke-linejoin="round"/>
    <path d="M7.82129 8.19385L11.8307 7.02498C11.9739 6.98322 12.1273 6.99408 12.2632 7.05558L14.9639 8.27758"
          stroke="currentColor" stroke-width="0.5" stroke-linecap="round" stroke-linejoin="round"/>
</svg>
