<svg width="24" height="24" viewBox="0 0 24 24" fill="none" xmlns="http://www.w3.org/2000/svg">
    <path d="M21.1365 13H18.1365C17.7387 13 17.3571 13.158 17.0758 13.4393C16.7945 13.7207 16.6365 14.1022 16.6365 14.5V18.25C16.6365 18.6478 16.7945 19.0294 17.0758 19.3107C17.3571 19.592 17.7387 19.75 18.1365 19.75H19.6365C20.0343 19.75 20.4158 19.592 20.6971 19.3107C20.9784 19.0294 21.1365 18.6478 21.1365 18.25V13ZM21.1365 13C21.1365 11.8124 20.9014 10.6365 20.4449 9.5401C19.9883 8.44373 19.3192 7.44856 18.4763 6.61196C17.6333 5.77536 16.6331 5.11388 15.5333 4.66564C14.4335 4.21739 13.2558 3.99125 12.0682 4.00026C10.8806 3.99125 9.70299 4.21739 8.60319 4.66564C7.50339 5.11388 6.50318 5.77536 5.66021 6.61196C4.81725 7.44856 4.1482 8.44373 3.69163 9.5401C3.23506 10.6365 3 11.8124 3 13V18.25C3 18.6478 3.15804 19.0294 3.43934 19.3107C3.72064 19.592 4.10218 19.75 4.5 19.75H6C6.39782 19.75 6.77936 19.592 7.06066 19.3107C7.34196 19.0294 7.5 18.6478 7.5 18.25V14.5C7.5 14.1022 7.34196 13.7207 7.06066 13.4393C6.77936 13.158 6.39782 13 6 13H3"
          stroke="currentColor" stroke-width="0.5" stroke-linecap="round" stroke-linejoin="round"/>
</svg>
