<svg width="24" height="24" viewBox="0 0 24 24" fill="none" xmlns="http://www.w3.org/2000/svg">
    <path d="M7 18V6C7 4.89543 7.89543 4 9 4H15C16.1046 4 17 4.89543 17 6V18C17 19.1046 16.1046 20 15 20H9C7.89543 20 7 19.1046 7 18Z"
          stroke="currentColor" stroke-width="0.5"/>
    <path d="M14.75 15C14.75 16.5188 13.5188 17.75 12 17.75C10.4812 17.75 9.25 16.5188 9.25 15C9.25 13.4812 10.4812 12.25 12 12.25C13.5188 12.25 14.75 13.4812 14.75 15Z"
          stroke="currentColor" stroke-width="0.5"/>
    <path d="M12.5 15C12.5 15.2761 12.2761 15.5 12 15.5C11.7239 15.5 11.5 15.2761 11.5 15C11.5 14.7239 11.7239 14.5 12 14.5C12.2761 14.5 12.5 14.7239 12.5 15Z"
          fill="white" stroke="currentColor"/>
    <path d="M13.75 8C13.75 8.9665 12.9665 9.75 12 9.75C11.0335 9.75 10.25 8.9665 10.25 8C10.25 7.0335 11.0335 6.25 12 6.25C12.9665 6.25 13.75 7.0335 13.75 8Z"
          fill="white" stroke="currentColor" stroke-width="0.5"/>
</svg>
