<svg width="24" height="24" viewBox="0 0 24 24" fill="none" xmlns="http://www.w3.org/2000/svg">
    <path d="M9.25 10V19H9.75V10H9.25ZM9.25 19C9.25 19.2067 9.30995 19.5111 9.49712 19.7711C9.69347 20.0438 10.0185 20.25 10.5 20.25V19.75C10.1815 19.75 10.0065 19.6229 9.90288 19.4789C9.79005 19.3222 9.75 19.1267 9.75 19H9.25ZM9.75 10C9.75 9.87334 9.79005 9.67778 9.90288 9.52108C10.0065 9.37712 10.1815 9.25 10.5 9.25V8.75C10.0185 8.75 9.69347 8.95622 9.49712 9.22892C9.30995 9.48888 9.25 9.79333 9.25 10H9.75ZM11.25 10V19H11.75V10H11.25ZM11.25 19C11.25 19.1267 11.2099 19.3222 11.0971 19.4789C10.9935 19.6229 10.8185 19.75 10.5 19.75V20.25C10.9815 20.25 11.3065 20.0438 11.5029 19.7711C11.6901 19.5111 11.75 19.2067 11.75 19H11.25ZM11.75 10C11.75 9.79333 11.6901 9.48888 11.5029 9.22892C11.3065 8.95622 10.9815 8.75 10.5 8.75V9.25C10.8185 9.25 10.9935 9.37712 11.0971 9.52108C11.2099 9.67778 11.25 9.87334 11.25 10H11.75Z"
          fill="currentColor"/>
    <path d="M6.25 10V19H6.75V10H6.25ZM6.25 19C6.25 19.2067 6.30995 19.5111 6.49712 19.7711C6.69347 20.0438 7.01852 20.25 7.5 20.25V19.75C7.18148 19.75 7.00653 19.6229 6.90288 19.4789C6.79005 19.3222 6.75 19.1267 6.75 19H6.25ZM6.75 10C6.75 9.87334 6.79005 9.67778 6.90288 9.52108C7.00653 9.37712 7.18148 9.25 7.5 9.25V8.75C7.01852 8.75 6.69347 8.95622 6.49712 9.22892C6.30995 9.48888 6.25 9.79333 6.25 10H6.75ZM8.25 10V19H8.75V10H8.25ZM8.25 19C8.25 19.1267 8.20995 19.3222 8.09712 19.4789C7.99347 19.6229 7.81852 19.75 7.5 19.75V20.25C7.98148 20.25 8.30653 20.0438 8.50288 19.7711C8.69005 19.5111 8.75 19.2067 8.75 19H8.25ZM8.75 10C8.75 9.79333 8.69005 9.48888 8.50288 9.22892C8.30653 8.95622 7.98148 8.75 7.5 8.75V9.25C7.81852 9.25 7.99347 9.37712 8.09712 9.52108C8.20995 9.67778 8.25 9.87334 8.25 10H8.75Z"
          fill="currentColor"/>
    <path d="M12.25 10V19H12.75V10H12.25ZM12.25 19C12.25 19.2067 12.3099 19.5111 12.4971 19.7711C12.6935 20.0438 13.0185 20.25 13.5 20.25V19.75C13.1815 19.75 13.0065 19.6229 12.9029 19.4789C12.7901 19.3222 12.75 19.1267 12.75 19H12.25ZM12.75 10C12.75 9.87334 12.7901 9.67778 12.9029 9.52108C13.0065 9.37712 13.1815 9.25 13.5 9.25V8.75C13.0185 8.75 12.6935 8.95622 12.4971 9.22892C12.3099 9.48888 12.25 9.79333 12.25 10H12.75ZM14.25 10V19H14.75V10H14.25ZM14.25 19C14.25 19.1267 14.2099 19.3222 14.0971 19.4789C13.9935 19.6229 13.8185 19.75 13.5 19.75V20.25C13.9815 20.25 14.3065 20.0438 14.5029 19.7711C14.6901 19.5111 14.75 19.2067 14.75 19H14.25ZM14.75 10C14.75 9.79333 14.6901 9.48888 14.5029 9.22892C14.3065 8.95622 13.9815 8.75 13.5 8.75V9.25C13.8185 9.25 13.9935 9.37712 14.0971 9.52108C14.2099 9.67778 14.25 9.87334 14.25 10H14.75Z"
          fill="currentColor"/>
    <path d="M15.25 10V19H15.75V10H15.25ZM15.25 19C15.25 19.2067 15.3099 19.5111 15.4971 19.7711C15.6935 20.0438 16.0185 20.25 16.5 20.25V19.75C16.1815 19.75 16.0065 19.6229 15.9029 19.4789C15.7901 19.3222 15.75 19.1267 15.75 19H15.25ZM15.75 10C15.75 9.87334 15.7901 9.67778 15.9029 9.52108C16.0065 9.37712 16.1815 9.25 16.5 9.25V8.75C16.0185 8.75 15.6935 8.95622 15.4971 9.22892C15.3099 9.48888 15.25 9.79333 15.25 10H15.75ZM17.25 10V19H17.75V10H17.25ZM17.25 19C17.25 19.1267 17.2099 19.3222 17.0971 19.4789C16.9935 19.6229 16.8185 19.75 16.5 19.75V20.25C16.9815 20.25 17.3065 20.0438 17.5029 19.7711C17.6901 19.5111 17.75 19.2067 17.75 19H17.25ZM17.75 10C17.75 9.79333 17.6901 9.48888 17.5029 9.22892C17.3065 8.95622 16.9815 8.75 16.5 8.75V9.25C16.8185 9.25 16.9935 9.37712 17.0971 9.52108C17.2099 9.67778 17.25 9.87334 17.25 10H17.75Z"
          fill="currentColor"/>
    <path d="M10.3366 4.04436C10.271 3.98657 10.1632 3.98521 10.095 4.04049C10.0267 4.09601 10.0243 4.18815 10.0891 4.24662C10.1174 4.2721 10.7767 4.88481 10.0655 5.90681C9.70245 6.42828 9.54781 6.80755 9.56359 7.13654C9.57911 7.45689 9.74526 7.7001 9.95583 8.00816C9.99061 8.05889 10.0267 8.11191 10.0637 8.16742C10.0952 8.21474 10.1533 8.24136 10.2132 8.24136C10.2418 8.24136 10.271 8.23522 10.2978 8.22225C10.3802 8.18244 10.4093 8.09348 10.3625 8.02317C10.3248 7.96675 10.2881 7.91283 10.2528 7.86118C9.86192 7.28943 9.68373 7.0287 10.3609 6.05538C10.8005 5.42379 10.7751 4.91484 10.6761 4.59905C10.5669 4.24981 10.3459 4.05255 10.3366 4.04436Z"
          fill="currentColor"/>
    <path d="M8.27406 4.04436C8.20851 3.98657 8.10069 3.98521 8.03246 4.04049C7.96423 4.09601 7.96182 4.18815 8.02657 4.24662C8.05493 4.2721 8.71419 4.88481 8.00303 5.90681C7.63995 6.42828 7.48531 6.80755 7.50109 7.13654C7.51661 7.45689 7.68276 7.7001 7.89333 8.00816C7.92811 8.05889 7.96423 8.11191 8.00116 8.16742C8.03273 8.21474 8.09079 8.24136 8.15072 8.24136C8.17935 8.24136 8.20851 8.23522 8.23527 8.22225C8.31767 8.18244 8.34684 8.09348 8.30002 8.02317C8.26229 7.96675 8.22564 7.91283 8.19032 7.86118C7.79942 7.28943 7.62123 7.0287 8.29841 6.05538C8.73801 5.42379 8.71259 4.91484 8.61359 4.59905C8.50443 4.24981 8.28343 4.05255 8.27406 4.04436Z"
          fill="currentColor"/>
    <path d="M14.0421 7.19241C14.0576 7.51275 14.2238 7.75597 14.4343 8.06403C14.4691 8.11476 14.5052 8.16777 14.5422 8.22329C14.5737 8.27061 14.6318 8.29723 14.6917 8.29723C14.7203 8.29723 14.7495 8.29109 14.7763 8.27812C14.8587 8.23831 14.8878 8.14935 14.841 8.07904C14.8033 8.02262 14.7666 7.9687 14.7313 7.91705C14.3404 7.3453 14.1622 7.08456 14.8394 6.11125C15.279 5.47966 15.2536 4.9707 15.1546 4.65491C15.0454 4.30567 14.8244 4.10841 14.8151 4.10022C14.7492 4.0422 14.6404 4.04061 14.5724 4.09681C14.5042 4.15278 14.5023 4.24538 14.5684 4.30317C14.5753 4.30931 15.2613 4.93202 14.544 5.96268C14.181 6.48437 14.0263 6.86365 14.0421 7.19241Z"
          fill="currentColor"/>
    <path d="M16.7258 8.22308C16.7573 8.27041 16.8154 8.29703 16.8753 8.29703C16.904 8.29703 16.9331 8.29088 16.9599 8.27792C17.0423 8.2381 17.0715 8.14914 17.0246 8.07884C16.9869 8.02241 16.9503 7.96849 16.9149 7.91685C16.524 7.3451 16.3458 7.08414 17.023 6.11105C17.4626 5.47946 17.4372 4.9705 17.3382 4.65471C17.229 4.30547 17.008 4.10821 16.9987 4.10002C16.9331 4.04223 16.8253 4.04087 16.7571 4.09616C16.6888 4.15167 16.6864 4.24381 16.7512 4.30229C16.7795 4.32777 17.4388 4.94047 16.7276 5.96248C16.3646 6.48395 16.2099 6.86322 16.2257 7.19221C16.2412 7.51255 16.4076 7.75576 16.6179 8.06382C16.6527 8.11479 16.6888 8.16757 16.7258 8.22308Z"
          fill="currentColor"/>
    <path d="M11.8058 7.19221C11.8213 7.51255 11.9875 7.75576 12.198 8.06382C12.2328 8.11456 12.269 8.16757 12.3059 8.22308C12.3374 8.27041 12.3955 8.29703 12.4554 8.29703C12.4841 8.29703 12.5132 8.29088 12.54 8.27792C12.6224 8.2381 12.6516 8.14914 12.6047 8.07884C12.567 8.02241 12.5304 7.96849 12.495 7.91685C12.1041 7.3451 11.9259 7.08414 12.6031 6.11105C13.0427 5.47946 13.0173 4.9705 12.9183 4.65471C12.8091 4.30547 12.5881 4.10821 12.5788 4.10002C12.5132 4.04223 12.4054 4.04087 12.3372 4.09616C12.269 4.15167 12.2665 4.24381 12.3313 4.30229C12.3597 4.32777 13.0189 4.94047 12.3077 5.96248C11.9447 6.48417 11.7898 6.86344 11.8058 7.19221Z"
          fill="currentColor"/>
</svg>
