<svg width="24" height="24" viewBox="0 0 24 24" fill="none" xmlns="http://www.w3.org/2000/svg">
    <path d="M15.376 15.9159C15.4509 15.9667 15.5491 15.9667 15.624 15.9159C15.6489 15.899 15.6769 15.8874 15.7064 15.8818C15.7952 15.8647 15.8647 15.7952 15.8818 15.7064C15.8874 15.6769 15.899 15.6489 15.9159 15.624C15.9667 15.5491 15.9667 15.4509 15.9159 15.376C15.899 15.3511 15.8874 15.3231 15.8818 15.2936C15.8647 15.2048 15.7952 15.1353 15.7064 15.1182C15.6769 15.1126 15.6489 15.101 15.624 15.0841C15.5491 15.0333 15.4509 15.0333 15.376 15.0841C15.3511 15.101 15.3231 15.1126 15.2936 15.1182C15.2048 15.1353 15.1353 15.2048 15.1182 15.2936C15.1126 15.3231 15.101 15.3511 15.0841 15.376C15.0333 15.4509 15.0333 15.5491 15.0841 15.624C15.101 15.6489 15.1126 15.6769 15.1182 15.7064C15.1353 15.7952 15.2048 15.8647 15.2936 15.8818C15.3231 15.8874 15.3511 15.899 15.376 15.9159Z"
          fill="currentColor"/>
    <path d="M15.376 17.9159C15.4509 17.9667 15.5491 17.9667 15.624 17.9159C15.6489 17.899 15.6769 17.8874 15.7064 17.8818C15.7952 17.8647 15.8647 17.7952 15.8818 17.7064C15.8874 17.6769 15.899 17.6489 15.9159 17.624C15.9667 17.5491 15.9667 17.4509 15.9159 17.376C15.899 17.3511 15.8874 17.3231 15.8818 17.2936C15.8647 17.2048 15.7952 17.1353 15.7064 17.1182C15.6769 17.1126 15.6489 17.101 15.624 17.0841C15.5491 17.0333 15.4509 17.0333 15.376 17.0841C15.3511 17.101 15.3231 17.1126 15.2936 17.1182C15.2048 17.1353 15.1353 17.2048 15.1182 17.2936C15.1126 17.3231 15.101 17.3511 15.0841 17.376C15.0333 17.4509 15.0333 17.5491 15.0841 17.624C15.101 17.6489 15.1126 17.6769 15.1182 17.7064C15.1353 17.7952 15.2048 17.8647 15.2936 17.8818C15.3231 17.8874 15.3511 17.899 15.376 17.9159Z"
          fill="currentColor"/>
    <path d="M15.376 19.9159C15.4509 19.9667 15.5491 19.9667 15.624 19.9159C15.6489 19.899 15.6769 19.8874 15.7064 19.8818C15.7952 19.8647 15.8647 19.7952 15.8818 19.7064C15.8874 19.6769 15.899 19.6489 15.9159 19.624C15.9667 19.5491 15.9667 19.4509 15.9159 19.376C15.899 19.3511 15.8874 19.3231 15.8818 19.2936C15.8647 19.2048 15.7952 19.1353 15.7064 19.1182C15.6769 19.1126 15.6489 19.101 15.624 19.0841C15.5491 19.0333 15.4509 19.0333 15.376 19.0841C15.3511 19.101 15.3231 19.1126 15.2936 19.1182C15.2048 19.1353 15.1353 19.2048 15.1182 19.2936C15.1126 19.3231 15.101 19.3511 15.0841 19.376C15.0333 19.4509 15.0333 19.5491 15.0841 19.624C15.101 19.6489 15.1126 19.6769 15.1182 19.7064C15.1353 19.7952 15.2048 19.8647 15.2936 19.8818C15.3231 19.8874 15.3511 19.899 15.376 19.9159Z"
          fill="currentColor"/>
    <path d="M17.376 15.9159C17.4509 15.9667 17.5491 15.9667 17.624 15.9159C17.6489 15.899 17.6769 15.8874 17.7064 15.8818C17.7952 15.8647 17.8647 15.7952 17.8818 15.7064C17.8874 15.6769 17.899 15.6489 17.9159 15.624C17.9667 15.5491 17.9667 15.4509 17.9159 15.376C17.899 15.3511 17.8874 15.3231 17.8818 15.2936C17.8647 15.2048 17.7952 15.1353 17.7064 15.1182C17.6769 15.1126 17.6489 15.101 17.624 15.0841C17.5491 15.0333 17.4509 15.0333 17.376 15.0841C17.3511 15.101 17.3231 15.1126 17.2936 15.1182C17.2048 15.1353 17.1353 15.2048 17.1182 15.2936C17.1126 15.3231 17.101 15.3511 17.0841 15.376C17.0333 15.4509 17.0333 15.5491 17.0841 15.624C17.101 15.6489 17.1126 15.6769 17.1182 15.7064C17.1353 15.7952 17.2048 15.8647 17.2936 15.8818C17.3231 15.8874 17.3511 15.899 17.376 15.9159Z"
          fill="currentColor"/>
    <path d="M17.376 17.9159C17.4509 17.9667 17.5491 17.9667 17.624 17.9159C17.6489 17.899 17.6769 17.8874 17.7064 17.8818C17.7952 17.8647 17.8647 17.7952 17.8818 17.7064C17.8874 17.6769 17.899 17.6489 17.9159 17.624C17.9667 17.5491 17.9667 17.4509 17.9159 17.376C17.899 17.3511 17.8874 17.3231 17.8818 17.2936C17.8647 17.2048 17.7952 17.1353 17.7064 17.1182C17.6769 17.1126 17.6489 17.101 17.624 17.0841C17.5491 17.0333 17.4509 17.0333 17.376 17.0841C17.3511 17.101 17.3231 17.1126 17.2936 17.1182C17.2048 17.1353 17.1353 17.2048 17.1182 17.2936C17.1126 17.3231 17.101 17.3511 17.0841 17.376C17.0333 17.4509 17.0333 17.5491 17.0841 17.624C17.101 17.6489 17.1126 17.6769 17.1182 17.7064C17.1353 17.7952 17.2048 17.8647 17.2936 17.8818C17.3231 17.8874 17.3511 17.899 17.376 17.9159Z"
          fill="currentColor"/>
    <path d="M17.376 19.9159C17.4509 19.9667 17.5491 19.9667 17.624 19.9159C17.6489 19.899 17.6769 19.8874 17.7064 19.8818C17.7952 19.8647 17.8647 19.7952 17.8818 19.7064C17.8874 19.6769 17.899 19.6489 17.9159 19.624C17.9667 19.5491 17.9667 19.4509 17.9159 19.376C17.899 19.3511 17.8874 19.3231 17.8818 19.2936C17.8647 19.2048 17.7952 19.1353 17.7064 19.1182C17.6769 19.1126 17.6489 19.101 17.624 19.0841C17.5491 19.0333 17.4509 19.0333 17.376 19.0841C17.3511 19.101 17.3231 19.1126 17.2936 19.1182C17.2048 19.1353 17.1353 19.2048 17.1182 19.2936C17.1126 19.3231 17.101 19.3511 17.0841 19.376C17.0333 19.4509 17.0333 19.5491 17.0841 19.624C17.101 19.6489 17.1126 19.6769 17.1182 19.7064C17.1353 19.7952 17.2048 19.8647 17.2936 19.8818C17.3231 19.8874 17.3511 19.899 17.376 19.9159Z"
          fill="currentColor"/>
    <path d="M19.376 15.9159C19.4509 15.9667 19.5491 15.9667 19.624 15.9159C19.6489 15.899 19.6769 15.8874 19.7064 15.8818C19.7952 15.8647 19.8647 15.7952 19.8818 15.7064C19.8874 15.6769 19.899 15.6489 19.9159 15.624C19.9667 15.5491 19.9667 15.4509 19.9159 15.376C19.899 15.3511 19.8874 15.3231 19.8818 15.2936C19.8647 15.2048 19.7952 15.1353 19.7064 15.1182C19.6769 15.1126 19.6489 15.101 19.624 15.0841C19.5491 15.0333 19.4509 15.0333 19.376 15.0841C19.3511 15.101 19.3231 15.1126 19.2936 15.1182C19.2048 15.1353 19.1353 15.2048 19.1182 15.2936C19.1126 15.3231 19.101 15.3511 19.0841 15.376C19.0333 15.4509 19.0333 15.5491 19.0841 15.624C19.101 15.6489 19.1126 15.6769 19.1182 15.7064C19.1353 15.7952 19.2048 15.8647 19.2936 15.8818C19.3231 15.8874 19.3511 15.899 19.376 15.9159Z"
          fill="currentColor"/>
    <path d="M19.376 17.9159C19.4509 17.9667 19.5491 17.9667 19.624 17.9159C19.6489 17.899 19.6769 17.8874 19.7064 17.8818C19.7952 17.8647 19.8647 17.7952 19.8818 17.7064C19.8874 17.6769 19.899 17.6489 19.9159 17.624C19.9667 17.5491 19.9667 17.4509 19.9159 17.376C19.899 17.3511 19.8874 17.3231 19.8818 17.2936C19.8647 17.2048 19.7952 17.1353 19.7064 17.1182C19.6769 17.1126 19.6489 17.101 19.624 17.0841C19.5491 17.0333 19.4509 17.0333 19.376 17.0841C19.3511 17.101 19.3231 17.1126 19.2936 17.1182C19.2048 17.1353 19.1353 17.2048 19.1182 17.2936C19.1126 17.3231 19.101 17.3511 19.0841 17.376C19.0333 17.4509 19.0333 17.5491 19.0841 17.624C19.101 17.6489 19.1126 17.6769 19.1182 17.7064C19.1353 17.7952 19.2048 17.8647 19.2936 17.8818C19.3231 17.8874 19.3511 17.899 19.376 17.9159Z"
          fill="currentColor"/>
    <path d="M19.376 19.9159C19.4509 19.9667 19.5491 19.9667 19.624 19.9159C19.6489 19.899 19.6769 19.8874 19.7064 19.8818C19.7952 19.8647 19.8647 19.7952 19.8818 19.7064C19.8874 19.6769 19.899 19.6489 19.9159 19.624C19.9667 19.5491 19.9667 19.4509 19.9159 19.376C19.899 19.3511 19.8874 19.3231 19.8818 19.2936C19.8647 19.2048 19.7952 19.1353 19.7064 19.1182C19.6769 19.1126 19.6489 19.101 19.624 19.0841C19.5491 19.0333 19.4509 19.0333 19.376 19.0841C19.3511 19.101 19.3231 19.1126 19.2936 19.1182C19.2048 19.1353 19.1353 19.2048 19.1182 19.2936C19.1126 19.3231 19.101 19.3511 19.0841 19.376C19.0333 19.4509 19.0333 19.5491 19.0841 19.624C19.101 19.6489 19.1126 19.6769 19.1182 19.7064C19.1353 19.7952 19.2048 19.8647 19.2936 19.8818C19.3231 19.8874 19.3511 19.899 19.376 19.9159Z"
          fill="currentColor"/>
    <path d="M6.63388 4.128H9.42316C9.64876 4.128 9.85385 4.04596 9.99742 3.88189L10.5717 3.30762H5.46484L6.03911 3.88189C6.20318 4.04596 6.40827 4.128 6.63388 4.128Z"
          fill="currentColor"/>
    <path fill-rule="evenodd" clip-rule="evenodd"
          d="M4.84876 21.0482H11.1861C11.6578 21.0482 12.068 20.8636 12.3962 20.5355C12.7038 20.2073 12.8884 19.7766 12.8884 19.3254V4.70228C12.8884 4.25107 12.7243 3.82037 12.3962 3.49222C12.068 3.18458 11.6373 3 11.1861 3H4.84876C4.39755 3 3.96686 3.16407 3.63871 3.49222C3.33107 3.82037 3.14648 4.25107 3.14648 4.70228V19.3459C3.14648 19.7971 3.31056 20.2278 3.63871 20.556C3.96686 20.8636 4.39755 21.0482 4.84876 21.0482ZM4.00788 3.86139C4.23348 3.63579 4.54112 3.51273 4.84876 3.51273H11.1861C11.5143 3.51273 11.8014 3.63579 12.027 3.86139C12.2526 4.087 12.3757 4.39464 12.3757 4.70228V19.3254C12.3757 19.6331 12.2526 19.9407 12.027 20.1663C11.8014 20.3919 11.4938 20.515 11.1861 20.515H4.84876C4.54112 20.515 4.23348 20.3919 4.00788 20.1663C3.78227 19.9407 3.65922 19.6331 3.65922 19.3254V4.70228C3.65922 4.39464 3.78227 4.087 4.00788 3.86139Z"
          fill="currentColor"/>
    <path fill-rule="evenodd" clip-rule="evenodd"
          d="M19.8823 21.0069H15.0626C14.4678 21.0069 13.9961 20.5352 13.9961 19.9404V8.08602C13.9961 7.49125 14.4678 7.01953 15.0626 7.01953H19.8823C20.477 7.01953 20.9488 7.49125 20.9488 8.08602V19.9404C20.9488 20.5352 20.477 21.0069 19.8823 21.0069ZM15.0626 7.53226C14.7549 7.53226 14.5088 7.77838 14.5088 8.08602V19.9404C14.5088 20.248 14.7549 20.4942 15.0626 20.4942H19.8823C20.1899 20.4942 20.436 20.248 20.436 19.9404V8.08602C20.436 7.77838 20.1899 7.53226 19.8823 7.53226H15.0626Z"
          fill="currentColor"/>
    <rect x="15.25" y="8.25" width="4.5" height="5.5" rx="0.75" stroke="currentColor" stroke-width="0.5"/>
</svg>
