<svg width="24" height="24" viewBox="0 0 24 24" fill="none" xmlns="http://www.w3.org/2000/svg">
    <path fill-rule="evenodd" clip-rule="evenodd"
          d="M8.70228 21.0482H15.0396C15.5114 21.0482 15.9215 20.8636 16.2497 20.5355C16.5573 20.2073 16.7419 19.7766 16.7419 19.3254V4.70228C16.7419 4.25107 16.5778 3.82037 16.2497 3.49222C15.9215 3.18458 15.4909 3 15.0396 3H8.70228C8.25107 3 7.82037 3.16407 7.49222 3.49222C7.18458 3.82037 7 4.25107 7 4.70228V19.3459C7 19.7971 7.16407 20.2278 7.49222 20.556C7.82037 20.8636 8.25107 21.0482 8.70228 21.0482ZM7.86139 3.86139C8.087 3.63579 8.39464 3.51273 8.70228 3.51273H15.0396C15.3678 3.51273 15.6549 3.63579 15.8805 3.86139C16.1061 4.087 16.2292 4.39464 16.2292 4.70228V19.3254C16.2292 19.6331 16.1061 19.9407 15.8805 20.1663C15.6549 20.3919 15.3473 20.515 15.0396 20.515H8.70228C8.39464 20.515 8.087 20.3919 7.86139 20.1663C7.63579 19.9407 7.51273 19.6331 7.51273 19.3254V4.70228C7.51273 4.39464 7.63579 4.087 7.86139 3.86139Z"
          fill="currentColor"/>
    <circle cx="14" cy="6" r="0.75" fill="#F8F8F8" stroke="currentColor" stroke-width="0.5"/>
</svg>
