<svg width="24" height="24" viewBox="0 0 24 24" fill="none" xmlns="http://www.w3.org/2000/svg">
    <path d="M15.75 4H8.25C7.83579 4 7.5 4.33579 7.5 4.75V19.75C7.5 20.1642 7.83579 20.5 8.25 20.5H15.75C16.1642 20.5 16.5 20.1642 16.5 19.75V4.75C16.5 4.33579 16.1642 4 15.75 4Z"
          stroke="currentColor" stroke-width="0.5" stroke-linecap="round" stroke-linejoin="round"/>
    <path fill-rule="evenodd" clip-rule="evenodd"
          d="M12.3716 9.01544C12.4905 9.05918 12.5714 9.18787 12.5714 9.33335V11L13.7143 11C13.8208 11 13.9185 11.0692 13.9677 11.1794C14.0169 11.2896 14.0094 11.4227 13.9484 11.5245L11.9484 14.8578C11.8768 14.977 11.7473 15.0283 11.6284 14.9846C11.5095 14.9408 11.4286 14.8121 11.4286 14.6666L11.4286 13H10.2857C10.1792 13 10.0815 12.9308 10.0323 12.8206C9.98309 12.7104 9.99055 12.5773 10.0516 12.4755L12.0516 9.1422C12.1232 9.02301 12.2527 8.97171 12.3716 9.01544Z"
          stroke="currentColor" stroke-width="0.5" stroke-linecap="round" stroke-linejoin="round"/>
</svg>
