<svg width="24" height="24" viewBox="0 0 24 24" fill="none" xmlns="http://www.w3.org/2000/svg">
    <circle cx="16.8456" cy="10.6152" r="0.692308" fill="currentColor"/>
    <path fill-rule="evenodd" clip-rule="evenodd"
          d="M17.0069 7.56065C17.1795 7.59126 17.3437 7.6247 17.4999 7.66114C17.5267 7.38022 17.5383 7.0727 17.5383 6.73627C17.5383 3.65945 16.5608 3 11.9999 3C7.43896 3 6.46143 3.65945 6.46143 6.73627C6.46143 7.07266 6.47311 7.38015 6.49988 7.66105C6.65603 7.62461 6.82023 7.59118 6.99284 7.56058C6.97166 7.31675 6.96143 7.04345 6.96143 6.73627C6.96143 5.21545 7.21232 4.52524 7.79993 4.12883C8.11972 3.9131 8.58645 3.75024 9.2845 3.64559C9.98033 3.54127 10.8671 3.5 11.9999 3.5C13.1327 3.5 14.0194 3.54127 14.7153 3.64559C15.4133 3.75024 15.8801 3.9131 16.1998 4.12883C16.7875 4.52524 17.0383 5.21545 17.0383 6.73627C17.0383 7.04348 17.0281 7.3168 17.0069 7.56065Z"
          fill="currentColor"/>
    <path d="M6.71143 16.8462C6.71143 18.5762 6.96121 19.4948 7.66561 20.0208C8.0261 20.29 8.52931 20.4752 9.23947 20.591C9.94922 20.7067 10.8456 20.75 11.9775 20.75C13.1093 20.75 14.0086 20.7067 14.7228 20.591C15.4373 20.4752 15.9466 20.2898 16.3131 20.0199C17.0283 19.4931 17.2883 18.5738 17.2883 16.8462C17.2883 15.7996 17.2877 15.0429 17.2042 14.4815C17.1218 13.9273 16.9654 13.6148 16.6936 13.4118C16.4064 13.1973 15.9473 13.0707 15.1717 13.0064C14.4025 12.9425 13.3723 12.9423 11.9775 12.9423C10.5939 12.9423 9.57213 12.9425 8.80936 13.0063C8.04027 13.0707 7.5856 13.1972 7.30132 13.4112C7.03211 13.614 6.87677 13.9266 6.79494 14.4812C6.71207 15.0428 6.71143 15.7996 6.71143 16.8462Z"
          stroke="currentColor" stroke-width="0.5" stroke-linecap="round" stroke-linejoin="round"/>
    <path fill-rule="evenodd" clip-rule="evenodd"
          d="M4.29189 12.3377C4.29189 13.4726 4.33729 14.2929 4.49929 14.9082C4.65307 15.4924 4.90297 15.8589 5.31623 16.1266C5.59168 16.3051 5.96048 16.4533 6.46359 16.5708C6.46207 16.6607 6.46133 16.7526 6.46133 16.8466C6.46133 16.9628 6.46246 17.0758 6.46482 17.1859C3.99989 16.6585 3.69189 15.3628 3.69189 12.3377C3.69189 7.80222 5.07651 7.1543 11.9996 7.1543C19.615 7.1543 20.3073 7.80222 20.3073 12.3377C20.3073 15.3627 19.9993 16.6583 17.5348 17.1858C17.5371 17.0758 17.5382 16.9627 17.5382 16.8466C17.5382 16.7526 17.5375 16.6606 17.536 16.5707C18.0389 16.4532 18.4076 16.305 18.6829 16.1266C19.0962 15.8589 19.3461 15.4924 19.4999 14.9082C19.6619 14.2929 19.7073 13.4726 19.7073 12.3377C19.7073 11.2027 19.6619 10.3825 19.4999 9.76713C19.3461 9.18298 19.0962 8.8165 18.6829 8.54873C18.2375 8.26015 17.5481 8.05065 16.4413 7.92241C15.3427 7.79511 13.9015 7.7543 11.9996 7.7543C10.2723 7.7543 8.9177 7.79505 7.8519 7.92218C6.78096 8.04992 6.05757 8.25929 5.5589 8.55931C4.64946 9.10647 4.29189 10.0822 4.29189 12.3377Z"
          fill="currentColor"/>
</svg>
