<svg width="24" height="24" viewBox="0 0 24 24" fill="none" xmlns="http://www.w3.org/2000/svg">
    <path d="M6.9375 5.75C5.79274 5.75 4.86176 6.42594 4.22933 7.51083C3.59906 8.59203 3.25 10.0984 3.25 11.8364C3.25 14.1826 3.55362 15.78 4.63568 16.7908C4.98242 17.1146 5.37218 17.256 5.77651 17.2498C6.17266 17.2437 6.56326 17.0966 6.92596 16.8805C7.64862 16.4501 8.32454 15.7074 8.82106 15.034C9.53795 14.0617 10.5893 13.4597 11.75 13.4597C12.9107 13.4597 13.9621 14.0617 14.6789 15.034C15.1755 15.7074 15.8514 16.4501 16.574 16.8805C16.9367 17.0966 17.3273 17.2437 17.7235 17.2498C18.1278 17.256 18.5176 17.1146 18.8643 16.7908C19.9464 15.78 20.25 14.1826 20.25 11.8364C20.25 10.0984 19.9009 8.59203 19.2707 7.51085C18.6382 6.42596 17.7073 5.75003 16.5625 5.75003C15.8241 5.75003 15.2602 5.94078 14.5455 6.24831C13.7746 6.57998 12.8064 6.77998 11.75 6.77998C10.6936 6.77998 9.7254 6.57998 8.95452 6.24831C8.23978 5.94079 7.67589 5.75 6.9375 5.75Z"
          stroke="currentColor" stroke-width="0.5" stroke-linecap="round" stroke-linejoin="round"/>
    <path fill-rule="evenodd" clip-rule="evenodd"
          d="M16.5625 9.78125C16.9422 9.78125 17.25 9.47345 17.25 9.09375C17.25 8.71405 16.9422 8.40625 16.5625 8.40625C16.1828 8.40625 15.875 8.71405 15.875 9.09375C15.875 9.47345 16.1828 9.78125 16.5625 9.78125ZM17.9375 11.1562C18.3172 11.1562 18.625 10.8484 18.625 10.4688C18.625 10.0891 18.3172 9.78125 17.9375 9.78125C17.5578 9.78125 17.25 10.0891 17.25 10.4688C17.25 10.8484 17.5578 11.1562 17.9375 11.1562ZM17.25 11.8438C17.25 12.2234 16.9422 12.5312 16.5625 12.5312C16.1828 12.5312 15.875 12.2234 15.875 11.8438C15.875 11.4641 16.1828 11.1562 16.5625 11.1562C16.9422 11.1562 17.25 11.4641 17.25 11.8438ZM15.1875 11.1562C15.5672 11.1562 15.875 10.8484 15.875 10.4688C15.875 10.0891 15.5672 9.78125 15.1875 9.78125C14.8078 9.78125 14.5 10.0891 14.5 10.4688C14.5 10.8484 14.8078 11.1562 15.1875 11.1562Z"
          fill="currentColor"/>
    <path d="M6.9375 9.09375V10.4688M6.9375 11.8438V10.4688M6.9375 10.4688H8.3125H5.5625" stroke="currentColor"
          stroke-width="0.8" stroke-linecap="round" stroke-linejoin="round"/>
</svg>
