<svg width="24" height="24" viewBox="0 0 24 24" fill="none" xmlns="http://www.w3.org/2000/svg">
    <path fill-rule="evenodd" clip-rule="evenodd"
          d="M1 9.48C1 9.48 2.008 8.952 2.968 9.024C3.544 9.048 3.664 9.264 3.664 9.264V9.648C3.664 9.648 3.232 9.816 2.584 9.816C1.96 9.816 1 9.48 1 9.48ZM7.48 9.336C7.48 9.336 6.544 9 5.872 9C5.224 9 4.792 9.168 4.792 9.168V9.552C4.792 9.552 4.912 9.768 5.488 9.792C6.448 9.864 7.48 9.336 7.48 9.336Z"
          fill="currentColor"/>
    <path fill-rule="evenodd" clip-rule="evenodd"
          d="M23.5601 9.48C23.5601 9.48 22.6241 9.816 21.9521 9.816C21.3041 9.816 20.8721 9.648 20.8721 9.648V9.264C20.8721 9.264 20.9921 9.048 21.5681 9.024C22.5281 8.952 23.5601 9.48 23.5601 9.48ZM17.0801 9.336C17.0801 9.336 18.0881 9.864 19.0481 9.792C19.6241 9.768 19.7441 9.552 19.7441 9.552V9.168C19.7441 9.168 19.3121 9 18.6641 9C18.0401 9 17.0801 9.336 17.0801 9.336Z"
          fill="currentColor"/>
    <path fill-rule="evenodd" clip-rule="evenodd"
          d="M3.92741 10.4291V9.52782C3.92741 9.35982 4.07141 9.21582 4.23941 9.21582C4.40741 9.21582 4.55141 9.35982 4.55141 9.52782V10.4246C6.06561 10.4397 8.22271 10.3069 9.90339 9.93582C9.9573 9.92234 10.0264 9.90129 10.1063 9.87692C10.1687 9.8579 10.2378 9.83686 10.3114 9.81582C10.8394 9.64782 11.6554 9.40782 12.2794 9.40782C12.9034 9.40782 13.7194 9.64782 14.2474 9.81582C14.3211 9.83686 14.3901 9.85791 14.4525 9.87693C14.5325 9.9013 14.6015 9.92234 14.6554 9.93582C16.3557 10.3282 18.5113 10.4434 20.0074 10.4253V9.52782C20.0074 9.35982 20.1514 9.21582 20.3194 9.21582C20.4874 9.21582 20.6314 9.35982 20.6314 9.52782V10.4291C20.9607 10.4736 21.2988 10.6272 21.5194 10.8478C21.6874 11.0158 21.7834 11.2318 21.7834 11.4238C21.7834 11.4478 21.5674 15.3838 20.4394 15.3838C19.8874 15.3838 19.5754 14.5198 19.2154 11.9998V11.9758C18.1354 11.6398 17.0794 11.7118 15.9514 12.2398V12.8878C15.9514 13.3438 15.5674 13.7278 15.1114 13.7278H9.44739C8.96739 13.7278 8.60739 13.3438 8.60739 12.8878V12.2398C7.47939 11.7118 6.42339 11.6158 5.34339 11.9758V11.9998C4.98339 14.5198 4.67139 15.3838 4.11939 15.3838C2.99139 15.3838 2.77539 11.4478 2.77539 11.4238C2.77539 11.2078 2.87139 11.0158 3.03939 10.8478C3.26007 10.6272 3.59812 10.4736 3.92741 10.4291ZM3.47139 11.2558C3.61539 11.1118 3.87939 10.9918 4.09539 10.9918C5.63139 11.0398 8.10339 10.9198 10.0474 10.4878C10.0871 10.4779 10.1351 10.4639 10.1912 10.4474C10.2708 10.4241 10.3669 10.3959 10.4794 10.3678C10.5312 10.353 10.5858 10.3372 10.6426 10.3208C11.1387 10.177 11.8057 9.98382 12.2794 9.98382C12.8074 9.98382 13.5754 10.1998 14.0314 10.3678C14.1994 10.4158 14.3674 10.4638 14.4634 10.4878C16.3834 10.9198 18.8554 11.0398 20.3914 10.9918C20.6074 10.9918 20.8954 11.1118 21.0394 11.2558C21.0874 11.3038 21.1354 11.3518 21.1354 11.4238C21.1354 12.2638 20.7514 14.4238 20.4154 14.7838C20.2954 14.6158 20.0554 14.0398 19.7674 11.9518L19.7434 11.7358C19.7194 11.6158 19.6474 11.5438 19.5514 11.4958C18.2074 10.9918 16.8874 11.0878 15.4954 11.8078C15.3994 11.8558 15.3274 11.9518 15.3274 12.0718V12.9118C15.3274 13.0318 15.2314 13.1518 15.0874 13.1518H9.42339C9.30339 13.1518 9.18339 13.0558 9.18339 12.9118V12.0718C9.18339 11.9518 9.11139 11.8558 9.01539 11.8078C7.62339 11.1118 6.30339 10.9918 4.95939 11.4958C4.86339 11.5438 4.79139 11.6158 4.76739 11.7358L4.74339 11.9518C4.45539 14.0398 4.21539 14.6158 4.09539 14.7838C3.75939 14.4238 3.37539 12.2398 3.37539 11.4238C3.37539 11.3518 3.42339 11.3038 3.47139 11.2558Z"
          fill="currentColor"/>
</svg>
