<svg width="24" height="24" viewBox="0 0 24 24" fill="none" xmlns="http://www.w3.org/2000/svg">
    <path d="M8.60718 5.06735L8.71029 5.15223L8.81347 5.06734C9.77771 4.27373 9.77549 2.78874 8.81347 1.99699L8.71029 1.91211L8.60718 1.99699C7.64288 2.79056 7.64504 4.27559 8.60718 5.06735Z"
          fill="#F54503" stroke="currentColor" stroke-width="0.5"/>
    <path d="M20.0697 10.0224L20.1728 10.1073L20.276 10.0224C21.2403 9.22882 21.2381 7.74383 20.276 6.95207L20.1728 6.86719L20.0697 6.95207C19.9357 7.06234 19.8174 7.26671 19.7266 7.4969C19.6333 7.73364 19.5596 8.02177 19.5282 8.32234C19.4663 8.91402 19.5646 9.60666 20.0697 10.0224Z"
          fill="#F54503" stroke="currentColor" stroke-width="0.5"/>
    <path d="M4.41898 10.5764L4.52213 10.6613L4.62528 10.5764C5.34272 9.98591 5.34108 8.88102 4.62527 8.29192L4.52213 8.20703L4.41898 8.29192C4.31318 8.37898 4.22439 8.53526 4.15813 8.70331C4.08928 8.87784 4.03519 9.08962 4.01209 9.31047C3.96689 9.74263 4.03694 10.262 4.41898 10.5764Z"
          fill="#F54503" stroke="currentColor" stroke-width="0.5"/>
    <path d="M15.4496 6.21315L15.5527 6.29805L15.6559 6.21315C16.3733 5.62266 16.3717 4.51777 15.6559 3.92864L15.5527 3.84375L15.4496 3.92864C14.7321 4.5191 14.7338 5.62407 15.4496 6.21315Z"
          fill="#F54503" stroke="currentColor" stroke-width="0.5"/>
    <path d="M14.6959 8.97953C14.4242 8.18732 13.9671 7.43195 13.5358 6.88825V6.88823C13.3587 6.6649 12.6827 5.71728 12.5527 4.11843C12.5147 3.65132 11.9649 3.43081 11.6213 3.7464L14.6959 8.97953ZM14.6959 8.97953C14.7486 8.85297 14.7926 8.71687 14.8218 8.56847C14.8886 8.22841 14.9845 7.97011 15.1229 7.79809C15.2758 7.60783 15.4768 7.52996 15.6888 7.56196C15.8739 7.58989 16.0377 7.6974 16.1635 7.80021C16.2942 7.90699 16.415 8.03535 16.513 8.14352C17.9976 9.78273 19.0233 11.9402 19.2361 14.0588C19.4497 16.1838 18.8443 18.2848 17.0462 19.7541C15.2182 21.2477 12.5983 21.6512 10.3159 21.1059C8.03194 20.5601 6.02305 19.0458 5.49402 16.6375C4.87809 13.8378 5.54612 10.8449 6.91737 8.39156H6.91738C6.9489 8.33519 6.98372 8.2773 7.02122 8.21961H7.02123C7.32451 7.7531 8.00917 7.86525 8.18322 8.37363C8.36221 8.89637 8.61373 9.30306 8.82624 9.58392C9.00683 7.2943 9.97291 5.2605 11.6213 3.74641L14.6959 8.97953Z"
          stroke="currentColor" stroke-width="0.5"/>
    <path d="M6.68154 16.8661C6.08956 14.1147 6.71618 11.1601 8.03133 8.71278C7.99806 8.63153 7.96607 8.54757 7.93618 8.4603C7.82985 8.14974 7.41835 8.09046 7.23982 8.3651C7.20555 8.41783 7.17381 8.47063 7.14515 8.5219C5.79837 10.9315 5.15051 13.8577 5.74944 16.58C6.20621 18.6595 7.83293 20.0553 9.79993 20.6869C8.26545 19.9348 7.06375 18.6454 6.68154 16.8661Z"
          fill="#F54503"/>
    <path d="M9.99531 10.1877C10.068 7.93458 10.8734 5.91421 12.3149 4.36217C12.305 4.2767 12.2977 4.20028 12.2929 4.14227C12.2722 3.89138 11.9909 3.76556 11.809 3.93189C10.1231 5.47426 9.09547 7.65715 9.05859 10.2333L9.37415 10.4813C9.52957 10.6034 9.74011 10.5981 9.88854 10.4862C9.97707 10.4103 9.98975 10.2957 9.99531 10.1877Z"
          fill="#F54503"/>
    <path d="M14.6293 11.7029L14.6292 11.7028C14.6131 11.6846 14.5973 11.667 14.5816 11.65C14.5789 11.6629 14.5762 11.6763 14.5734 11.6904L14.5734 11.6904C14.4907 12.12 14.2977 12.443 14.1632 12.6592L13.4879 13.7448L13.2475 12.4892C13.1281 11.8651 12.7562 11.1857 12.393 10.7189L12.3929 10.7188C12.2331 10.5132 11.7921 9.87185 11.596 8.83241C10.6574 9.89993 10.1405 11.2774 10.1188 12.8227L10.1037 13.9L9.29068 13.1929L9.61882 12.8156C9.29068 13.1929 9.29056 13.1928 9.29044 13.1927L9.29018 13.1925L9.28962 13.192L9.28836 13.1909L9.28525 13.1881L9.27673 13.1805C9.27005 13.1744 9.26141 13.1664 9.251 13.1566C9.23019 13.1368 9.20226 13.1094 9.16883 13.0745C9.10205 13.0047 9.01279 12.9043 8.91423 12.7742C8.77778 12.5941 8.62181 12.3547 8.48328 12.0588C7.63848 13.7363 7.26458 15.6992 7.65487 17.5082L7.6549 17.5083C8.09034 19.5296 10.1164 20.5924 12.2354 20.4939C14.3371 20.3961 16.2536 19.1655 16.4763 16.8661L14.6293 11.7029ZM14.6293 11.7029C16.0306 13.2805 16.6306 15.2635 16.4764 16.8659L14.6293 11.7029Z"
          stroke="#F54503"/>
</svg>
