<svg width="24" height="24" viewBox="0 0 24 24" fill="none" xmlns="http://www.w3.org/2000/svg">
    <path d="M6.72973 20.5122V20.2622C6.72202 20.2622 6.71432 20.2626 6.70664 20.2633L6.72973 20.5122ZM5.52027 9.75972C5.52027 9.62165 5.40834 9.50972 5.27027 9.50972C5.1322 9.50972 5.02027 9.62165 5.02027 9.75972H5.52027ZM17.4324 20.5122L17.4555 20.2633C17.4478 20.2626 17.4401 20.2622 17.4324 20.2622V20.5122ZM19.1419 9.75972C19.1419 9.62165 19.03 9.50972 18.8919 9.50972C18.7538 9.50972 18.6419 9.62165 18.6419 9.75972H19.1419ZM20.83 11.9281C20.9312 12.022 21.0894 12.016 21.1833 11.9148C21.2772 11.8136 21.2712 11.6554 21.17 11.5615L20.83 11.9281ZM12.0811 3.47363L12.2511 3.29033C12.1558 3.20199 12.0088 3.20133 11.9127 3.28881L12.0811 3.47363ZM2.83166 11.56C2.72958 11.6529 2.7222 11.8111 2.81517 11.9131C2.90815 12.0152 3.06627 12.0226 3.16834 11.9296L2.83166 11.56ZM6.70664 20.2633C6.41667 20.2902 6.11496 20.2825 5.8927 20.1665C5.78784 20.1118 5.6993 20.0322 5.63461 19.9126C5.56863 19.7906 5.52027 19.6133 5.52027 19.3543H5.02027C5.02027 19.6743 5.08001 19.9381 5.19478 20.1504C5.31084 20.365 5.47567 20.5129 5.66135 20.6098C6.02017 20.7971 6.44819 20.7894 6.75282 20.7612L6.70664 20.2633ZM5.52027 19.3543V9.75972H5.02027V19.3543H5.52027ZM17.4093 20.7612C17.714 20.7894 18.142 20.7971 18.5008 20.6098C18.6865 20.5129 18.8513 20.365 18.9674 20.1504C19.0821 19.9381 19.1419 19.6743 19.1419 19.3543H18.6419C18.6419 19.6133 18.5935 19.7906 18.5276 19.9126C18.4629 20.0322 18.3743 20.1118 18.2695 20.1665C18.0472 20.2825 17.7455 20.2902 17.4555 20.2633L17.4093 20.7612ZM19.1419 19.3543V9.75972H18.6419V19.3543H19.1419ZM21.17 11.5615L12.2511 3.29033L11.9111 3.65694L20.83 11.9281L21.17 11.5615ZM3.16834 11.9296L12.2494 3.65846L11.9127 3.28881L2.83166 11.56L3.16834 11.9296ZM17.4324 20.2622H6.72973V20.7622H17.4324V20.2622Z"
          fill="currentColor"/>
    <path d="M14.4558 9.93698C15.1913 10.4555 15.7439 11.1935 16.0344 12.0452C16.3249 12.8969 16.3384 13.8188 16.073 14.6787C15.8076 15.5386 15.2769 16.2924 14.5569 16.8323C13.8369 17.3721 12.9645 17.6703 12.0647 17.684C11.1649 17.6978 10.2838 17.4265 9.5476 16.9089C8.81142 16.3913 8.2579 15.654 7.96631 14.8027C7.67473 13.9513 7.66004 13.0295 7.92434 12.1693C8.18865 11.309 8.7184 10.5545 9.43772 10.0137L9.90477 10.635C9.31659 11.0772 8.88343 11.6942 8.66731 12.3975C8.45119 13.1009 8.4632 13.8547 8.70163 14.5508C8.94005 15.247 9.39266 15.8498 9.99462 16.273C10.5966 16.6963 11.317 16.9181 12.0528 16.9069C12.7886 16.8956 13.5019 16.6518 14.0906 16.2104C14.6794 15.769 15.1133 15.1526 15.3303 14.4494C15.5474 13.7463 15.5363 12.9926 15.2988 12.2961C15.0613 11.5996 14.6094 10.9962 14.008 10.5722L14.4558 9.93698Z"
          fill="currentColor"/>
    <line x1="12.0254" y1="9.6582" x2="12.0254" y2="13.395" stroke="currentColor" stroke-linecap="round"/>
</svg>
