<svg width="24" height="24" viewBox="0 0 24 24" fill="none" xmlns="http://www.w3.org/2000/svg">
    <line x1="6.25" y1="19.5498" x2="18.75" y2="19.5498" stroke="currentColor" stroke-width="0.5" stroke-linecap="round"/>
    <path d="M7.73242 19.8002V5.06686C7.73242 4.37353 8.28508 4.2002 8.56141 4.2002H12.7063H16.4368C16.7131 4.2002 17.2658 4.37353 17.2658 5.06686V19.8002"
          stroke="currentColor" stroke-width="0.5"/>
    <line x1="7.73242" y1="12.6172" x2="17.2658" y2="12.6172" stroke="currentColor" stroke-width="0.5"/>
    <path fill-rule="evenodd" clip-rule="evenodd"
          d="M12.967 6.82496C13.0934 6.84671 13.2173 6.88248 13.3363 6.93179C13.5466 7.01889 13.7377 7.14657 13.8986 7.30753C14.0596 7.46848 14.1873 7.65956 14.2744 7.86986C14.3288 8.00126 14.3667 8.13856 14.3875 8.27861C14.4083 8.41818 14.2919 8.53318 14.1508 8.53318C14.0097 8.53318 13.898 8.41758 13.8687 8.27954C13.8532 8.20645 13.831 8.13476 13.8023 8.0654C13.7409 7.9171 13.6508 7.78235 13.5373 7.66884C13.4238 7.55533 13.2891 7.46529 13.1408 7.40387C12.9925 7.34244 12.8335 7.31082 12.673 7.31082C12.5125 7.31082 12.3535 7.34244 12.2052 7.40387C12.0569 7.46529 11.9222 7.55533 11.8087 7.66884C11.6951 7.78235 11.6051 7.9171 11.5437 8.0654C11.515 8.13476 11.4927 8.20645 11.4772 8.27954C11.448 8.41758 11.3362 8.53318 11.1951 8.53318C11.054 8.53318 10.9377 8.41818 10.9585 8.27861C10.9793 8.13856 11.0172 8.00126 11.0716 7.86986C11.1587 7.65956 11.2864 7.46848 11.4473 7.30753C11.6083 7.14657 11.7994 7.01889 12.0097 6.93179C12.1562 6.87108 12.3101 6.83091 12.467 6.81213L12.4666 4.20027L12.9666 4.2002L12.967 6.82496Z"
          fill="currentColor"/>
    <line x1="10.082" y1="19.5498" x2="10.082" y2="16.5831" stroke="currentColor" stroke-width="0.5" stroke-linecap="round"/>
</svg>
