<svg width="24" height="24" viewBox="0 0 24 24" fill="none" xmlns="http://www.w3.org/2000/svg">
    <path fill-rule="evenodd" clip-rule="evenodd"
          d="M19 11C18.8256 10.9904 18.6339 11.0113 18.4319 11V4.61467C18.1877 4.63005 18.1877 4.61467 17.7325 4.61467C16.2057 4.57063 14.0897 4.61467 10.4488 4.61467C6.80789 4.61467 4.53087 4.61467 3.06275 4.65871C2.86485 4.63645 2.68571 4.6163 2.52442 4.59929V14.6028C2.56237 14.5982 2.6013 14.5934 2.64123 14.5884C3.98107 14.4231 6.37363 14.7267 10.5 14.5884C10.6557 14.5884 10.8489 13.9991 11 14L11.5 16.5L12 17H6.41388C6.26092 17 6.12982 16.8617 6.12982 16.7004C6.12982 16.539 6.26092 16.4007 6.41388 16.4007H9.62596V15.1575C6.12982 15.2021 4.07564 15.1791 2.6687 15.1575C2.52982 15.1749 2.40907 15.19 2.30591 15.2021C2.21851 15.2021 2.15296 15.1791 2.0874 15.133C2.02185 15.0869 2 14.9947 2 14.9255V4.2766C2 4.1844 2.0437 4.11525 2.0874 4.06915C2.15296 4.02305 2.21851 4 2.30591 4C2.39854 4.01086 2.50649 4.02418 2.62981 4.03937C3.81559 4.1856 6.4009 4.06915 10.4781 4.06915C14.5554 4.06915 17.1844 4.1856 18.3702 4.03937C18.4935 4.02418 18.6015 4.01086 18.6941 4C18.7815 4 18.847 4.02305 18.9126 4.06915C18.9781 4.11525 19 4.20745 19 4.2766V11ZM10.9681 15.133C10.881 15.1327 10.5366 15.133 10.4488 15.133C10.3464 15.133 10.2956 15.1326 10.1941 15.133V16.4007H10.9807C10.9807 16.4007 11.0551 15.1333 10.9681 15.133Z"
          fill="currentColor"/>
    <mask id="path-2-inside-1_1213_65199" fill="white">
        <path d="M18.5 13C18.7761 13 19 12.7761 19 12.5C19 12.2239 18.7761 12 18.5 12C18.2239 12 18 12.2239 18 12.5C18 12.7761 18.2239 13 18.5 13Z"/>
    </mask>
    <path d="M18.5 13C18.7761 13 19 12.7761 19 12.5C19 12.2239 18.7761 12 18.5 12C18.2239 12 18 12.2239 18 12.5C18 12.7761 18.2239 13 18.5 13Z"
          fill="currentColor"/>
    <path d="M18.5 14C19.3284 14 20 13.3284 20 12.5H18C18 12.2239 18.2239 12 18.5 12V14ZM20 12.5C20 11.6716 19.3285 11 18.5 11V13C18.2238 13 18 12.7761 18 12.5H20ZM18.5 11C17.6716 11 17 11.6716 17 12.5H19C19 12.7762 18.7762 13 18.5 13V11ZM17 12.5C17 13.3285 17.6716 14 18.5 14V12C18.7761 12 19 12.2238 19 12.5H17Z"
          fill="currentColor" mask="url(#path-2-inside-1_1213_65199)"/>
    <path d="M15.6443 12.5433C15.8591 12.3977 16.1409 12.3977 16.3557 12.5433C16.4833 12.6298 16.6271 12.6894 16.7785 12.7185C17.0334 12.7673 17.2327 12.9666 17.2815 13.2215C17.3106 13.3729 17.3702 13.5167 17.4567 13.6443C17.6023 13.8591 17.6023 14.1409 17.4567 14.3557C17.3702 14.4833 17.3106 14.6271 17.2815 14.7785C17.2327 15.0334 17.0334 15.2327 16.7785 15.2815C16.6271 15.3106 16.4833 15.3702 16.3557 15.4567C16.1409 15.6023 15.8591 15.6023 15.6443 15.4567C15.5167 15.3702 15.3729 15.3106 15.2215 15.2815C14.9666 15.2327 14.7673 15.0334 14.7185 14.7785C14.6894 14.6271 14.6298 14.4833 14.5433 14.3557C14.3977 14.1409 14.3977 13.8591 14.5433 13.6443C14.6298 13.5167 14.6894 13.3729 14.7185 13.2215C14.7673 12.9666 14.9666 12.7673 15.2215 12.7185C15.3729 12.6894 15.5167 12.6298 15.6443 12.5433Z"
          fill="#F8F8F8" stroke="currentColor" stroke-width="0.5"/>
    <path d="M11 11.9266V16.0367C11 17 12.0101 17 12.0101 17H19.9899C19.9899 17 21 17 21 16.0367V11.9266C21 10.9633 19.9899 10.9633 19.9899 10.9633H18.6263L18.0899 10.1113C18.0515 10.0496 17.9586 10 17.8859 10H14.6192C14.5449 10 14.4525 10.0516 14.4151 10.1113L13.8788 10.9633H12.0101C12.0101 10.9633 11 10.9633 11 11.9266ZM14.2192 11.4449L14.7818 10.4816H17.6747L18.3146 11.4449H19.9843C19.9843 11.4449 20.4949 11.4449 20.4949 11.9353V16.0275C20.4949 16.5183 19.9843 16.5183 19.9843 16.5183H12.0156C12.0156 16.5183 11.5051 16.5183 11.5051 16.0275V11.9353C11.5051 11.4449 12.0156 11.4449 12.0156 11.4449H14.2192Z"
          fill="currentColor"/>
</svg>
