<svg width="66" height="66" viewBox="0 0 66 66" fill="none" xmlns="http://www.w3.org/2000/svg">
  <path
    d="M39.391 25.4054C39.753 25.8225 40.3845 25.8673 40.8017 25.5053C41.2188 25.1433 41.2636 24.5118 40.9016 24.0946L39.391 25.4054ZM26.6091 40.5946C26.2471 40.1775 25.6155 40.1327 25.1984 40.4947C24.7812 40.8567 24.7365 41.4882 25.0985 41.9054L26.6091 40.5946ZM34 19.25C34 18.6977 33.5523 18.25 33 18.25C32.4477 18.25 32 18.6977 32 19.25H34ZM32 46.75C32 47.3023 32.4477 47.75 33 47.75C33.5523 47.75 34 47.3023 34 46.75L32 46.75ZM56.75 33C56.75 46.1168 46.1168 56.75 33 56.75V58.75C47.2213 58.75 58.75 47.2213 58.75 33H56.75ZM33 56.75C19.8832 56.75 9.25 46.1168 9.25 33H7.25C7.25 47.2213 18.7787 58.75 33 58.75V56.75ZM9.25 33C9.25 19.8832 19.8832 9.25 33 9.25V7.25C18.7787 7.25 7.25 18.7787 7.25 33H9.25ZM33 9.25C46.1168 9.25 56.75 19.8832 56.75 33H58.75C58.75 18.7787 47.2213 7.25 33 7.25V9.25ZM33 32C30.8917 32 29.0283 31.4285 27.7211 30.557C26.4069 29.6809 25.75 28.5804 25.75 27.5H23.75C23.75 29.4572 24.9399 31.1066 26.6117 32.2211C28.2904 33.3403 30.5519 34 33 34V32ZM25.75 27.5C25.75 26.4196 26.4069 25.3191 27.7211 24.443C29.0283 23.5715 30.8917 23 33 23V21C30.5519 21 28.2904 21.6597 26.6117 22.7789C24.9399 23.8934 23.75 25.5428 23.75 27.5H25.75ZM33 23C35.847 23 38.2029 24.0362 39.391 25.4054L40.9016 24.0946C39.2367 22.1759 36.2603 21 33 21V23ZM33 34C35.1083 34 36.9718 34.5715 38.279 35.443C39.5932 36.3191 40.2501 37.4196 40.2501 38.5H42.2501C42.2501 36.5428 41.0601 34.8934 39.3884 33.7789C37.7096 32.6597 35.4481 32 33 32V34ZM32 19.25V22H34V19.25H32ZM32.0001 44L32 46.75L34 46.75L34.0001 44L32.0001 44ZM33.0001 43C30.1531 43 27.7971 41.9638 26.6091 40.5946L25.0985 41.9054C26.7633 43.8241 29.7398 45 33.0001 45L33.0001 43ZM40.2501 38.5C40.2501 39.5804 39.5932 40.6809 38.279 41.557C36.9718 42.4285 35.1083 43 33.0001 43V45C35.4481 45 37.7097 44.3403 39.3884 43.2211C41.0601 42.1066 42.2501 40.4572 42.2501 38.5H40.2501ZM32 22L32.0001 44L34.0001 44L34 22L32 22Z"
    fill="currentColor"/>
</svg>
