<svg width="66" height="66" viewBox="0 0 66 66" fill="none" xmlns="http://www.w3.org/2000/svg">
  <path
    d="M62.06 31.3981L55.6875 34.5843L47.4375 18.7851L53.8749 15.5664C54.3585 15.3246 54.9178 15.2823 55.4323 15.4488C55.9467 15.6153 56.3752 15.9771 56.6255 16.4565L62.9659 28.5987C63.0927 28.8415 63.1698 29.1071 63.1928 29.38C63.2159 29.6529 63.1843 29.9277 63.1 30.1883C63.0156 30.4489 62.8802 30.6901 62.7017 30.8978C62.5231 31.1055 62.305 31.2756 62.06 31.3981V31.3981Z"
    stroke="currentColor" stroke-width="2" stroke-linecap="round" stroke-linejoin="round"/>
  <path
    d="M10.3124 34.308L3.93993 31.1217C3.69494 30.9992 3.47681 30.8292 3.29826 30.6215C3.11971 30.4138 2.98432 30.1726 2.89999 29.912C2.81566 29.6514 2.78408 29.3766 2.8071 29.1036C2.83012 28.8307 2.90727 28.5651 3.03405 28.3223L9.37442 16.1801C9.6247 15.7008 10.0532 15.3389 10.5677 15.1725C11.0821 15.006 11.6414 15.0482 12.125 15.29L18.5624 18.5087L10.3124 34.308Z"
    stroke="currentColor" stroke-width="2" stroke-linecap="round" stroke-linejoin="round"/>
  <path
    d="M55.6875 34.5839L51.5625 39.4097L42.0757 48.8964C41.8239 49.1483 41.5111 49.3306 41.1679 49.4257C40.8246 49.5208 40.4626 49.5253 40.1171 49.4389L25.1751 45.7034C24.8948 45.6334 24.6324 45.5052 24.4048 45.3273L10.3125 34.3076"
    stroke="currentColor" stroke-width="2" stroke-linecap="round" stroke-linejoin="round"/>
  <path
    d="M51.5632 39.4092L40.2194 31.1592L36.9194 33.6342C35.4914 34.7052 33.7545 35.2842 31.9694 35.2842C30.1844 35.2842 28.4475 34.7052 27.0194 33.6342L25.6219 32.586C25.3855 32.4087 25.1899 32.1827 25.0485 31.9233C24.9071 31.6638 24.823 31.377 24.8021 31.0822C24.7811 30.7875 24.8238 30.4917 24.9271 30.2148C25.0304 29.938 25.192 29.6866 25.401 29.4776L35.4903 19.3883C35.6818 19.1968 35.9092 19.0448 36.1594 18.9412C36.4097 18.8375 36.6779 18.7842 36.9487 18.7842H47.4382"
    stroke="currentColor" stroke-width="2" stroke-linecap="round" stroke-linejoin="round"/>
  <path d="M18.7109 18.5081L31.9419 14.6508C32.4145 14.513 32.9208 14.5488 33.3694 14.7518L42.2816 18.7844"
        stroke="currentColor" stroke-width="2" stroke-linecap="round" stroke-linejoin="round"/>
  <path d="M28.875 54.8784L21.1047 52.9358C20.7894 52.857 20.4971 52.7047 20.2518 52.4915L14.4375 47.4375"
        stroke="currentColor" stroke-width="2" stroke-linecap="round" stroke-linejoin="round"/>
</svg>
