<svg width="66" height="66" viewBox="0 0 66 66" fill="none" xmlns="http://www.w3.org/2000/svg">
  <path
    d="M36.0556 45.5714H37.0556H36.0556ZM36.0555 20.4286H35.0555V20.4286L36.0555 20.4286ZM49.1727 18.2062L49.8897 17.5092V17.5092L49.1727 18.2062ZM59.605 28.9366L60.322 28.2395L59.605 28.9366ZM8.55555 12H33V10H8.55555V12ZM35.0556 14.1429V45.5714H37.0556V14.1429H35.0556ZM6.5 45.5714V14.1429H4.5V45.5714H6.5ZM11.6111 47.7143H8.55555V49.7143H11.6111V47.7143ZM33 47.7143H23.8333V49.7143H33V47.7143ZM4.5 45.5714C4.5 47.8327 6.28936 49.7143 8.55555 49.7143V47.7143C7.44667 47.7143 6.5 46.7816 6.5 45.5714H4.5ZM35.0556 45.5714C35.0556 46.7816 34.1089 47.7143 33 47.7143V49.7143C35.2662 49.7143 37.0556 47.8327 37.0556 45.5714H35.0556ZM33 12C34.1089 12 35.0556 12.9326 35.0556 14.1429H37.0556C37.0556 11.8816 35.2662 10 33 10V12ZM8.55555 10C6.28937 10 4.5 11.8816 4.5 14.1429H6.5C6.5 12.9326 7.44667 12 8.55555 12V10ZM37.0556 45.5714L37.0555 20.4286L35.0555 20.4286L35.0556 45.5714H37.0556ZM39.1111 18.2857H47.0121V16.2857H39.1111V18.2857ZM59.5 31.159V45.5714H61.5V31.159H59.5ZM48.4557 18.9033L58.888 29.6337L60.322 28.2395L49.8897 17.5092L48.4557 18.9033ZM42.1667 47.7143H39.1111V49.7143H42.1667V47.7143ZM57.4444 47.7143H54.3889V49.7143H57.4444V47.7143ZM61.5 31.159C61.5 30.0691 61.0793 29.0185 60.322 28.2395L58.888 29.6337C59.2768 30.0335 59.5 30.5817 59.5 31.159H61.5ZM47.0121 18.2857C47.548 18.2857 48.0679 18.5044 48.4557 18.9033L49.8897 17.5092C49.1315 16.7292 48.097 16.2857 47.0121 16.2857V18.2857ZM35.0556 45.5714C35.0556 47.8327 36.8449 49.7143 39.1111 49.7143V47.7143C38.0022 47.7143 37.0556 46.7816 37.0556 45.5714H35.0556ZM59.5 45.5714C59.5 46.7816 58.5533 47.7143 57.4444 47.7143V49.7143C59.7106 49.7143 61.5 47.8327 61.5 45.5714H59.5ZM37.0555 20.4286C37.0555 19.2184 38.0022 18.2857 39.1111 18.2857V16.2857C36.8449 16.2857 35.0555 18.1673 35.0555 20.4286H37.0555ZM22.8333 48.7143C22.8333 51.6602 20.5186 54 17.7222 54V56C21.6759 56 24.8333 52.7113 24.8333 48.7143H22.8333ZM17.7222 54C14.9258 54 12.6111 51.6602 12.6111 48.7143H10.6111C10.6111 52.7113 13.7685 56 17.7222 56V54ZM12.6111 48.7143C12.6111 45.7683 14.9258 43.4286 17.7222 43.4286V41.4286C13.7685 41.4286 10.6111 44.7172 10.6111 48.7143H12.6111ZM17.7222 43.4286C20.5186 43.4286 22.8333 45.7683 22.8333 48.7143H24.8333C24.8333 44.7172 21.6759 41.4286 17.7222 41.4286V43.4286ZM53.3889 48.7143C53.3889 51.6602 51.0742 54 48.2778 54V56C52.2315 56 55.3889 52.7113 55.3889 48.7143H53.3889ZM48.2778 54C45.4813 54 43.1667 51.6602 43.1667 48.7143H41.1667C41.1667 52.7113 44.324 56 48.2778 56V54ZM43.1667 48.7143C43.1667 45.7683 45.4813 43.4286 48.2778 43.4286V41.4286C44.324 41.4286 41.1667 44.7172 41.1667 48.7143H43.1667ZM48.2778 43.4286C51.0742 43.4286 53.3889 45.7683 53.3889 48.7143H55.3889C55.3889 44.7172 52.2315 41.4286 48.2778 41.4286V43.4286Z"
    fill="currentColor"/>
</svg>
