<svg width="66" height="66" viewBox="0 0 66 66" fill="none" xmlns="http://www.w3.org/2000/svg">
  <path
    d="M46.75 55H60.5V49.5C60.5 44.9437 56.8063 41.25 52.25 41.25C49.6221 41.25 47.2811 42.4787 45.7703 44.393M46.75 55H19.25M46.75 55V49.5C46.75 47.6953 46.4023 45.9719 45.7703 44.393M19.25 55H5.5V49.5C5.5 44.9437 9.19365 41.25 13.75 41.25C16.3779 41.25 18.7189 42.4787 20.2297 44.393M19.25 55V49.5C19.25 47.6953 19.5977 45.9719 20.2297 44.393M20.2297 44.393C22.2571 39.3278 27.2107 35.75 33 35.75C38.7893 35.75 43.7429 39.3278 45.7703 44.393M41.25 19.25C41.25 23.8063 37.5563 27.5 33 27.5C28.4437 27.5 24.75 23.8063 24.75 19.25C24.75 14.6937 28.4437 11 33 11C37.5563 11 41.25 14.6937 41.25 19.25ZM57.75 27.5C57.75 30.5376 55.2876 33 52.25 33C49.2124 33 46.75 30.5376 46.75 27.5C46.75 24.4624 49.2124 22 52.25 22C55.2876 22 57.75 24.4624 57.75 27.5ZM19.25 27.5C19.25 30.5376 16.7876 33 13.75 33C10.7124 33 8.25 30.5376 8.25 27.5C8.25 24.4624 10.7124 22 13.75 22C16.7876 22 19.25 24.4624 19.25 27.5Z"
    stroke="currentColor" stroke-width="2" stroke-linecap="round" stroke-linejoin="round"/>
</svg>
