<svg width="24" height="24" viewBox="0 0 24 24" fill="none" xmlns="http://www.w3.org/2000/svg">
<path d="M21.6898 0H2.31016C1.03429 0 0 1.03429 0 2.31016V21.6898C0 22.9657 1.03429 24 2.31016 24H21.6898C22.9657 24 24 22.9657 24 21.6898V2.31016C24 1.03429 22.9657 0 21.6898 0Z" fill="#485992"/>
<path fill-rule="evenodd" clip-rule="evenodd" d="M16.8128 10.1391V8.59899C16.8128 7.82893 17.3261 7.70059 17.5828 7.70059C17.9679 7.70059 19.893 7.70059 19.893 7.70059V4.23535H16.8128C13.3475 4.23535 12.5775 6.8022 12.5775 8.3423V10.1391H10.6523V12.5776V14.1177H12.7058C12.7058 18.6097 12.7058 24.0001 12.7058 24.0001H16.5561C16.5561 24.0001 16.5561 18.6097 16.5561 14.1177H19.508L19.6363 12.5776L19.893 10.1391H16.8128Z" fill="#FEFEFE"/>
</svg>
