<svg width="24" height="24" viewBox="0 0 24 24" fill="none" xmlns="http://www.w3.org/2000/svg">
<path fill-rule="evenodd" clip-rule="evenodd" d="M24 6C24 2.6868 21.3132 0 18 0C14.3352 0 9.6648 0 6 0C2.6868 0 0 2.6868 0 6C0 9.6648 0 14.3352 0 18C0 21.3132 2.6868 24 6 24C9.6648 24 14.3352 24 18 24C21.3132 24 24 21.3132 24 18C24 14.3352 24 9.6648 24 6Z" fill="url(#paint0_radial_1688_14563)"/>
<path d="M15.5495 3.60591C18.0587 3.62991 20.3687 5.78391 20.3939 8.45031C20.4023 10.8167 20.4023 13.1831 20.3939 15.5495C20.3699 18.0491 18.2159 20.3687 15.5495 20.3939C13.1831 20.4023 10.8167 20.4023 8.45031 20.3939C5.93991 20.3699 3.63111 18.2159 3.60591 15.5495C3.59751 13.1831 3.59751 10.8167 3.60591 8.45031C3.62871 5.93871 5.77791 3.63111 8.45031 3.60591C10.8167 3.59751 13.1831 3.59751 15.5495 3.60591ZM8.48271 4.73991C6.53511 4.74591 4.75911 6.43431 4.73991 8.45751C4.73271 10.8191 4.73271 13.1807 4.73991 15.5423C4.75791 17.4683 6.40551 19.2407 8.45751 19.2599C10.8191 19.2671 13.1807 19.2671 15.5423 19.2599C17.4731 19.2419 19.2407 17.5943 19.2599 15.5423C19.2671 13.1807 19.2671 10.8191 19.2599 8.45751C19.2419 6.51831 17.5619 4.75911 15.5423 4.73991C13.1891 4.73271 10.8359 4.73991 8.48271 4.73991Z" fill="white"/>
<path d="M12.0291 7.7998C13.9707 7.8178 15.7803 9.3154 16.1355 11.2342C16.3887 12.6022 15.9111 14.0854 14.9031 15.0478C13.7811 16.1158 12.0447 16.4974 10.5567 15.9526C8.89353 15.3442 7.72353 13.591 7.80153 11.815C7.89633 9.6934 9.77073 7.807 12.0003 7.7998C12.0099 7.7998 12.0195 7.7998 12.0291 7.7998ZM11.9811 8.9362C10.5951 8.9494 9.28833 10.0006 9.00033 11.3662C8.70873 12.7474 9.50313 14.2798 10.8075 14.8306C12.2319 15.433 14.0715 14.7574 14.7591 13.351C15.4707 11.8978 14.7999 9.9238 13.2975 9.2218C12.8883 9.031 12.4335 8.935 11.9811 8.9362Z" fill="white"/>
<path fill-rule="evenodd" clip-rule="evenodd" d="M17.3996 7.47201C17.3996 7.24041 17.3072 7.01841 17.144 6.85521C16.9808 6.69201 16.7588 6.59961 16.5272 6.59961C16.5092 6.59961 16.49 6.59961 16.472 6.59961C16.2404 6.59961 16.0184 6.69201 15.8552 6.85521C15.692 7.01841 15.5996 7.24041 15.5996 7.47201C15.5996 7.48161 15.5996 7.49001 15.5996 7.49961C15.5996 7.73841 15.6944 7.96761 15.8636 8.13561C16.0316 8.30481 16.2608 8.39961 16.4996 8.39961C16.9964 8.39961 17.3996 7.99641 17.3996 7.49961C17.3996 7.49001 17.3996 7.48161 17.3996 7.47201Z" fill="white"/>
<defs>
<radialGradient id="paint0_radial_1688_14563" cx="0" cy="0" r="1" gradientUnits="userSpaceOnUse" gradientTransform="translate(0 23.4) scale(33.5196)">
<stop stop-color="#FF8100"/>
<stop offset="0.19" stop-color="#FF7209"/>
<stop offset="0.32" stop-color="#F55E16"/>
<stop offset="0.48" stop-color="#D92938"/>
<stop offset="1" stop-color="#9100FF"/>
</radialGradient>
</defs>
</svg>
