<svg width="24" height="24" viewBox="0 0 24 24" fill="none" xmlns="http://www.w3.org/2000/svg">
<path d="M0 5C0 2.23858 2.23858 0 5 0H19C21.7614 0 24 2.23858 24 5V19C24 21.7614 21.7614 24 19 24H5C2.23858 24 0 21.7614 0 19V5Z" fill="#2B2A29"/>
<path fill-rule="evenodd" clip-rule="evenodd" d="M9.92841 9.93129V9.14589C9.65582 9.10729 9.38096 9.08724 9.10563 9.08594C5.73899 9.08594 3 11.8254 3 15.1921C3 17.2573 4.03213 19.0854 5.60663 20.1909C4.55237 19.0634 3.96626 17.5773 3.96711 16.0337C3.96711 12.715 6.62815 10.0088 9.92841 9.93129Z" fill="#00F2EA"/>
<path fill-rule="evenodd" clip-rule="evenodd" d="M10.0728 18.8204C11.5749 18.8204 12.8002 17.6255 12.856 16.1364L12.8611 2.84264H15.2897C15.2379 2.56508 15.2116 2.28334 15.2113 2.00098H11.8945L11.8889 15.2952C11.8336 16.7839 10.6078 17.9783 9.10613 17.9783C8.65529 17.9785 8.21124 17.8687 7.8125 17.6583C8.06995 18.0175 8.40925 18.3102 8.80228 18.5123C9.19532 18.7144 9.63081 18.82 10.0728 18.8204ZM19.8264 7.3549V6.61606C18.9339 6.6169 18.0605 6.35727 17.3134 5.86895C17.9684 6.62315 18.8504 7.14451 19.8269 7.3549" fill="#00F2EA"/>
<path fill-rule="evenodd" clip-rule="evenodd" d="M17.313 5.86914C16.5808 5.03138 16.1776 3.95638 16.178 2.84375H15.2893C15.4044 3.45872 15.6431 4.04394 15.9909 4.56397C16.3388 5.084 16.7885 5.52802 17.313 5.86914ZM9.10572 12.4023C8.36647 12.4032 7.65775 12.6972 7.135 13.22C6.6123 13.7427 6.31826 14.4514 6.31738 15.1906C6.31789 15.6992 6.45733 16.1979 6.7207 16.6329C6.98406 17.0679 7.36128 17.4227 7.81163 17.6589C7.46872 17.1861 7.2841 16.6169 7.28405 16.0328C7.28477 15.2935 7.57876 14.5846 8.1015 14.0618C8.62425 13.539 9.33305 13.2448 10.0724 13.244C10.3597 13.244 10.635 13.2915 10.8951 13.3731V9.98661C10.6226 9.94801 10.3477 9.92796 10.0724 9.92666C10.0239 9.92666 9.97645 9.92943 9.9285 9.93035V12.5315C9.66241 12.4468 9.38495 12.4032 9.10572 12.4023Z" fill="#FF004F"/>
<path fill-rule="evenodd" clip-rule="evenodd" d="M19.8268 7.35495V9.93299C18.1065 9.93299 16.5131 9.38281 15.2116 8.4489V15.1901C15.2116 18.5567 12.4731 21.2957 9.10646 21.2957C7.80544 21.2957 6.59898 20.8853 5.60742 20.1889C6.1775 20.8036 6.86839 21.294 7.63684 21.6294C8.4053 21.9646 9.2347 22.1376 10.0731 22.1374C13.4398 22.1374 16.1788 19.3984 16.1788 16.0322V9.29102C17.5232 10.2578 19.1378 10.777 20.7938 10.7751V7.45736C20.4618 7.45736 20.139 7.42136 19.8268 7.35449" fill="#FF004F"/>
<path fill-rule="evenodd" clip-rule="evenodd" d="M15.2115 15.1906V8.44949C16.5559 9.41637 18.1706 9.93559 19.8266 9.93358V7.35554C18.8502 7.14495 17.9684 6.62342 17.3136 5.86914C16.7891 5.52802 16.3394 5.084 15.9915 4.56397C15.6437 4.04394 15.405 3.45872 15.2899 2.84375H12.8613L12.8562 16.1375C12.8004 17.6262 11.575 18.8211 10.073 18.8211C9.63101 18.8207 9.19552 18.715 8.80248 18.5129C8.40949 18.3108 8.07019 18.0181 7.8127 17.6589C7.36227 17.4228 6.98493 17.0681 6.72148 16.633C6.45803 16.198 6.3185 15.6992 6.318 15.1906C6.31883 14.4514 6.61287 13.7427 7.13562 13.22C7.65832 12.6972 8.36708 12.4032 9.10633 12.4023C9.39319 12.4023 9.66852 12.4494 9.92907 12.5315V9.93035C6.62881 10.0078 3.96777 12.7141 3.96777 16.0328C3.96777 17.6377 4.5913 19.0988 5.6073 20.1899C6.63154 20.911 7.85377 21.2974 9.10633 21.2963C12.473 21.2963 15.2115 18.5573 15.2115 15.1906Z" fill="white"/>
</svg>
