<svg width="25" height="24" viewBox="0 0 25 24" fill="none" xmlns="http://www.w3.org/2000/svg">
    <path d="M4.65927 6.77679L19.3963 2.58794" stroke="currentColor" stroke-width="1.3" stroke-linecap="round"
          stroke-linejoin="round"/>
    <circle cx="12.004" cy="4.40521" r="2" transform="rotate(-6.38769 12.004 4.40521)" fill="currentColor"/>
    <path d="M9 15.4048L5 8.40479L1 15.4048" stroke="currentColor" stroke-width="1.3" stroke-linecap="round"
          stroke-linejoin="round"/>
    <path d="M23.167 11.4048L19.167 4.40479L15.167 11.4048" stroke="currentColor" stroke-width="1.3" stroke-linecap="round"
          stroke-linejoin="round"/>
    <path d="M10 17.4048H10.65C10.65 17.0458 10.359 16.7548 10 16.7548V17.4048ZM5.5 21.4048V20.7548V21.4048ZM1 17.4048L1 16.7548C0.641015 16.7548 0.35 17.0458 0.35 17.4048L1 17.4048ZM9.35 17.4048C9.35 17.8333 9.25516 18.2599 9.06829 18.661L10.2466 19.2101C10.512 18.6405 10.65 18.0268 10.65 17.4048H9.35ZM9.06829 18.661C8.88127 19.0623 8.60469 19.4322 8.25014 19.7474L9.11382 20.719C9.595 20.2913 9.98135 19.7793 10.2466 19.2101L9.06829 18.661ZM8.25014 19.7474C7.89546 20.0627 7.47037 20.3162 6.99749 20.4903L7.44666 21.7103C8.06571 21.4823 8.63278 21.1466 9.11382 20.719L8.25014 19.7474ZM6.99749 20.4903C6.52459 20.6645 6.01554 20.7548 5.5 20.7548V22.0548C6.16636 22.0548 6.82763 21.9382 7.44666 21.7103L6.99749 20.4903ZM5.5 20.7548C4.98446 20.7548 4.47541 20.6645 4.00251 20.4903L3.55334 21.7103C4.17237 21.9382 4.83364 22.0548 5.5 22.0548V20.7548ZM4.00251 20.4903C3.52963 20.3162 3.10454 20.0627 2.74986 19.7474L1.88618 20.719C2.36722 21.1466 2.93429 21.4823 3.55334 21.7103L4.00251 20.4903ZM2.74986 19.7474C2.39531 19.4322 2.11873 19.0623 1.93171 18.661L0.75337 19.2101C1.01865 19.7793 1.405 20.2913 1.88618 20.719L2.74986 19.7474ZM1.93171 18.661C1.74484 18.2599 1.65 17.8333 1.65 17.4048L0.35 17.4048C0.35 18.0268 0.487954 18.6405 0.75337 19.2101L1.93171 18.661ZM1 18.0548L2.08896 18.0548L2.08896 16.7548L1 16.7548L1 18.0548ZM8.91104 18.0548H10V16.7548H8.91104V18.0548ZM1 18.0548L10 18.0548V16.7548L1 16.7548L1 18.0548Z"
          fill="currentColor"/>
    <path d="M24 14.4048H24.65C24.65 14.0458 24.359 13.7548 24 13.7548V14.4048ZM19.5 18.4048V17.7548V18.4048ZM15 14.4048L15 13.7548C14.641 13.7548 14.35 14.0458 14.35 14.4048L15 14.4048ZM23.35 14.4048C23.35 14.8333 23.2552 15.2599 23.0683 15.661L24.2466 16.2101C24.512 15.6405 24.65 15.0268 24.65 14.4048H23.35ZM23.0683 15.661C22.8813 16.0623 22.6047 16.4322 22.2501 16.7474L23.1138 17.719C23.595 17.2913 23.9814 16.7793 24.2466 16.2101L23.0683 15.661ZM22.2501 16.7474C21.8955 17.0627 21.4704 17.3162 20.9975 17.4903L21.4467 18.7103C22.0657 18.4823 22.6328 18.1466 23.1138 17.719L22.2501 16.7474ZM20.9975 17.4903C20.5246 17.6645 20.0155 17.7548 19.5 17.7548V19.0548C20.1664 19.0548 20.8276 18.9382 21.4467 18.7103L20.9975 17.4903ZM19.5 17.7548C18.9845 17.7548 18.4754 17.6645 18.0025 17.4903L17.5533 18.7103C18.1724 18.9382 18.8336 19.0548 19.5 19.0548V17.7548ZM18.0025 17.4903C17.5296 17.3162 17.1045 17.0627 16.7499 16.7474L15.8862 17.719C16.3672 18.1466 16.9343 18.4823 17.5533 18.7103L18.0025 17.4903ZM16.7499 16.7474C16.3953 16.4322 16.1187 16.0623 15.9317 15.661L14.7534 16.2101C15.0186 16.7793 15.405 17.2913 15.8862 17.719L16.7499 16.7474ZM15.9317 15.661C15.7448 15.2599 15.65 14.8333 15.65 14.4048L14.35 14.4048C14.35 15.0268 14.488 15.6405 14.7534 16.2101L15.9317 15.661ZM15 15.0548L16.089 15.0548L16.089 13.7548L15 13.7548L15 15.0548ZM22.911 15.0548H24V13.7548H22.911V15.0548ZM15 15.0548L24 15.0548V13.7548L15 13.7548L15 15.0548Z"
          fill="currentColor"/>
</svg>
