<svg width="24" height="24" viewBox="0 0 24 24" fill="none" xmlns="http://www.w3.org/2000/svg">
    <path d="M12.9776 21.3865C12.3795 21.7798 11.6205 21.7798 11.0224 21.3865C8.32916 19.6155 1 14.2166 1 7.9091C1.00022 6.54334 1.45832 5.21982 2.2964 4.16355C3.13448 3.10728 4.30082 2.38347 5.59711 2.11517C6.8934 1.84687 8.23963 2.05065 9.40692 2.69186C10.5742 3.33308 11.4905 4.37214 12 5.63239C12 5.63239 12 5.63239 12 5.6324V5.6324C12 5.6324 12 5.63239 12 5.63239C12.5095 4.37214 13.4258 3.33308 14.5931 2.69187C15.7604 2.05065 17.1066 1.84687 18.4029 2.11517C19.6992 2.38347 20.8655 3.10728 21.7036 4.16355C22.5417 5.21982 22.9998 6.54334 23 7.9091C23 14.2166 15.6708 19.6155 12.9776 21.3865Z"
          stroke="#2B2A29" stroke-width="1.5" stroke-linecap="round" stroke-linejoin="round"/>
</svg>
