<svg width="24" height="24" viewBox="0 0 24 24" fill="none" xmlns="http://www.w3.org/2000/svg">
    <path d="M1.06714 10.7778H3.44444C4.79447 10.7778 5.88889 11.8722 5.88889 13.2222V14.4444C5.88889 15.7945 6.9833 16.8889 8.33333 16.8889C9.68336 16.8889 10.7778 17.9833 10.7778 19.3333V22.9329M7.11111 2.14341V4.05556C7.11111 5.74309 8.47913 7.11111 10.1667 7.11111H10.7778C12.1278 7.11111 13.2222 8.20553 13.2222 9.55556C13.2222 10.9056 14.3166 12 15.6667 12C17.0167 12 18.1111 10.9056 18.1111 9.55556C18.1111 8.20553 19.2055 7.11111 20.5556 7.11111L21.8566 7.11111M15.6667 22.3741V19.3333C15.6667 17.9833 16.7611 16.8889 18.1111 16.8889H21.8566M23 12C23 18.0751 18.0751 23 12 23C5.92487 23 1 18.0751 1 12C1 5.92487 5.92487 1 12 1C18.0751 1 23 5.92487 23 12Z"
          stroke="#2B2A29" stroke-width="1.5" stroke-linecap="round" stroke-linejoin="round"/>
</svg>
