<svg width="24" height="24" viewBox="0 0 24 24" fill="none" xmlns="http://www.w3.org/2000/svg">
    <path d="M23 1L15.6667 8.33333M15.6667 8.33333V2.22222M15.6667 8.33333H21.7778M3.44444 1C2.09442 1 1 2.09442 1 3.44444V4.66667C1 14.7919 9.20811 23 19.3333 23H20.5556C21.9056 23 23 21.9056 23 20.5556V16.5476C23 16.0215 22.6634 15.5545 22.1643 15.3881L16.6723 13.5574C16.0953 13.3651 15.4646 13.6263 15.1926 14.1703L13.8132 16.9292C10.8252 15.582 8.41797 13.1748 7.07079 10.1868L9.82966 8.80739C10.3737 8.53538 10.6349 7.90473 10.4426 7.3277L8.61191 1.83572C8.44555 1.33664 7.97849 1 7.45241 1H3.44444Z"
          stroke="#2B2A29" stroke-width="1.5" stroke-linecap="round" stroke-linejoin="round"/>
</svg>
