<svg width="25" height="24" viewBox="0 0 25 24" fill="none" xmlns="http://www.w3.org/2000/svg">
    <path fill-rule="evenodd" clip-rule="evenodd"
          d="M12.2796 1.12109C10.709 1.12109 9.20274 1.74502 8.09214 2.85561C6.98155 3.96621 6.35762 5.4725 6.35762 7.04311C6.35762 8.61373 6.98155 10.12 8.09214 11.2306C9.20274 12.3412 10.709 12.9651 12.2796 12.9651C13.8503 12.9651 15.3565 12.3412 16.4671 11.2306C17.5777 10.12 18.2017 8.61373 18.2017 7.04311C18.2017 5.4725 17.5777 3.96621 16.4671 2.85561C15.3565 1.74502 13.8503 1.12109 12.2796 1.12109ZM9.1528 3.91627C9.98209 3.08698 11.1069 2.62109 12.2796 2.62109C13.4524 2.62109 14.5772 3.08698 15.4065 3.91627C16.2358 4.74556 16.7017 5.87032 16.7017 7.04311C16.7017 8.21591 16.2358 9.34066 15.4065 10.17C14.5772 10.9992 13.4524 11.4651 12.2796 11.4651C11.1069 11.4651 9.98209 10.9992 9.1528 10.17C8.32351 9.34066 7.85762 8.21591 7.85762 7.04311C7.85762 5.87032 8.32351 4.74556 9.1528 3.91627ZM12.2792 14.6562C9.93532 14.6562 7.65165 15.3986 5.75578 16.7769C3.85991 18.1551 2.44928 20.0984 1.72623 22.328C1.59846 22.722 1.81428 23.145 2.2083 23.2728C2.60231 23.4006 3.0253 23.1847 3.15308 22.7907C3.77836 20.8626 4.99827 19.182 6.6378 17.9901C8.27733 16.7982 10.2522 16.1562 12.2792 16.1562C14.3062 16.1562 16.2811 16.7982 17.9207 17.9901C19.5602 19.182 20.7801 20.8626 21.4054 22.7907C21.5331 23.1847 21.9561 23.4006 22.3502 23.2728C22.7442 23.145 22.96 22.722 22.8322 22.328C22.1092 20.0984 20.6985 18.1551 18.8027 16.7769C16.9068 15.3986 14.6231 14.6562 12.2792 14.6562Z"
          fill="#2B2A29"/>
</svg>
