<svg width="15" height="15" viewBox="0 0 15 15" fill="none" xmlns="http://www.w3.org/2000/svg">
    <path d="M7.9209 6.50293V8.65625C7.9209 9.59375 7.83301 10.4111 7.65723 11.1084C7.48145 11.7998 7.22363 12.374 6.88379 12.8311C6.5498 13.2822 6.13965 13.6191 5.65332 13.8418C5.17285 14.0645 4.62207 14.1758 4.00098 14.1758C3.50879 14.1758 3.05762 14.1055 2.64746 13.9648C2.2373 13.8242 1.87109 13.6104 1.54883 13.3232C1.23242 13.0303 0.962891 12.6641 0.740234 12.2246C0.517578 11.7852 0.347656 11.2695 0.230469 10.6777C0.113281 10.0801 0.0546875 9.40625 0.0546875 8.65625V6.50293C0.0546875 5.55957 0.142578 4.74512 0.318359 4.05957C0.5 3.37402 0.757812 2.80566 1.0918 2.35449C1.43164 1.90332 1.84473 1.56934 2.33105 1.35254C2.81738 1.12988 3.36816 1.01855 3.9834 1.01855C4.47559 1.01855 4.92676 1.0918 5.33691 1.23828C5.75293 1.37891 6.11914 1.58984 6.43555 1.87109C6.75781 2.15234 7.02734 2.5127 7.24414 2.95215C7.4668 3.38574 7.63379 3.89844 7.74512 4.49023C7.8623 5.08203 7.9209 5.75293 7.9209 6.50293ZM6.875 8.7793V6.37109C6.875 5.79102 6.83398 5.26367 6.75195 4.78906C6.67578 4.31445 6.56152 3.89844 6.40918 3.54102C6.25684 3.18359 6.06348 2.88477 5.8291 2.64453C5.60059 2.4043 5.33105 2.22559 5.02051 2.1084C4.71582 1.98535 4.37012 1.92383 3.9834 1.92383C3.50879 1.92383 3.08984 2.02051 2.72656 2.21387C2.36914 2.40137 2.07031 2.68262 1.83008 3.05762C1.58984 3.42676 1.4082 3.88965 1.28516 4.44629C1.16797 5.00293 1.10938 5.64453 1.10938 6.37109V8.7793C1.10938 9.35352 1.14746 9.87793 1.22363 10.3525C1.2998 10.8213 1.41699 11.2373 1.5752 11.6006C1.7334 11.9639 1.92676 12.2715 2.15527 12.5234C2.38965 12.7695 2.65918 12.957 2.96387 13.0859C3.27441 13.209 3.62012 13.2705 4.00098 13.2705C4.4873 13.2705 4.90918 13.1738 5.2666 12.9805C5.62402 12.7812 5.92285 12.4912 6.16309 12.1104C6.40332 11.7236 6.58203 11.252 6.69922 10.6953C6.81641 10.1328 6.875 9.49414 6.875 8.7793Z"
          fill="#0AAF60"/>
    <path d="M8.53711 2.63379V2.25781C8.53711 1.98763 8.59408 1.74186 8.70801 1.52051C8.82194 1.29915 8.98307 1.12174 9.19141 0.988281C9.39974 0.854818 9.64388 0.788086 9.92383 0.788086C10.2103 0.788086 10.4561 0.854818 10.6611 0.988281C10.8695 1.12174 11.0306 1.29915 11.1445 1.52051C11.2585 1.74186 11.3154 1.98763 11.3154 2.25781V2.63379C11.3154 2.89746 11.2585 3.13997 11.1445 3.36133C11.0339 3.58268 10.8743 3.76009 10.666 3.89355C10.4609 4.02702 10.2168 4.09375 9.93359 4.09375C9.65039 4.09375 9.40299 4.02702 9.19141 3.89355C8.98307 3.76009 8.82194 3.58268 8.70801 3.36133C8.59408 3.13997 8.53711 2.89746 8.53711 2.63379ZM9.00586 2.25781V2.63379C9.00586 2.80632 9.03841 2.97233 9.10352 3.13184C9.17188 3.28809 9.27441 3.41667 9.41113 3.51758C9.55111 3.61849 9.72526 3.66895 9.93359 3.66895C10.1419 3.66895 10.3128 3.62012 10.4463 3.52246C10.5798 3.42155 10.679 3.29297 10.7441 3.13672C10.8125 2.97721 10.8467 2.80957 10.8467 2.63379V2.25781C10.8467 2.07878 10.8125 1.91113 10.7441 1.75488C10.679 1.59538 10.5781 1.46517 10.4414 1.36426C10.3047 1.26335 10.1322 1.21289 9.92383 1.21289C9.72201 1.21289 9.55273 1.26335 9.41602 1.36426C9.2793 1.46517 9.17676 1.59538 9.1084 1.75488C9.04004 1.91113 9.00586 2.07878 9.00586 2.25781ZM12.1113 6.6377V6.25684C12.1113 5.98991 12.1683 5.74577 12.2822 5.52441C12.3962 5.30306 12.5573 5.12565 12.7656 4.99219C12.974 4.85872 13.2197 4.79199 13.5029 4.79199C13.7894 4.79199 14.0352 4.85872 14.2402 4.99219C14.4486 5.12565 14.6097 5.30306 14.7236 5.52441C14.8376 5.74577 14.8945 5.98991 14.8945 6.25684V6.6377C14.8945 6.90462 14.8376 7.14876 14.7236 7.37012C14.613 7.59147 14.4535 7.76888 14.2451 7.90234C14.04 8.03581 13.7959 8.10254 13.5127 8.10254C13.2262 8.10254 12.9788 8.03581 12.7705 7.90234C12.5622 7.76888 12.3994 7.59147 12.2822 7.37012C12.1683 7.14876 12.1113 6.90462 12.1113 6.6377ZM12.585 6.25684V6.6377C12.585 6.81348 12.6175 6.98112 12.6826 7.14062C12.751 7.29688 12.8535 7.42546 12.9902 7.52637C13.1302 7.62728 13.3044 7.67773 13.5127 7.67773C13.7178 7.67773 13.887 7.62891 14.0205 7.53125C14.1572 7.43034 14.2581 7.30013 14.3232 7.14062C14.3916 6.98112 14.4258 6.81348 14.4258 6.6377V6.25684C14.4258 6.07129 14.3916 5.90039 14.3232 5.74414C14.2581 5.58464 14.1572 5.45768 14.0205 5.36328C13.8838 5.26562 13.7113 5.2168 13.5029 5.2168C13.3011 5.2168 13.1302 5.26562 12.9902 5.36328C12.8535 5.45768 12.751 5.58464 12.6826 5.74414C12.6175 5.90039 12.585 6.07129 12.585 6.25684ZM13.5908 1.85254L10.1191 7.40918L9.75781 7.1748L13.2295 1.61816L13.5908 1.85254Z"
          fill="#0AAF60"/>
</svg>
