<svg width="25" height="24" viewBox="0 0 25 24" fill="none" xmlns="http://www.w3.org/2000/svg">
    <path d="M4.65976 6.77728L19.3967 2.58843" stroke="currentColor" stroke-width="1.3" stroke-linecap="round"
          stroke-linejoin="round"/>
    <circle cx="12.004" cy="4.4057" r="2" transform="rotate(-6.38769 12.004 4.4057)" fill="currentColor"/>
    <path d="M9 15.4043L5 8.4043L1 15.4043" stroke="currentColor" stroke-width="1.3" stroke-linecap="round"
          stroke-linejoin="round"/>
    <path d="M23.167 11.4043L19.167 4.4043L15.167 11.4043" stroke="currentColor" stroke-width="1.3" stroke-linecap="round"
          stroke-linejoin="round"/>
    <path d="M10 17.4043H10.65C10.65 17.0453 10.359 16.7543 10 16.7543V17.4043ZM5.5 21.4043V20.7543V21.4043ZM1 17.4043L1 16.7543C0.641015 16.7543 0.35 17.0453 0.35 17.4043L1 17.4043ZM9.35 17.4043C9.35 17.8329 9.25516 18.2595 9.06829 18.6605L10.2466 19.2096C10.512 18.64 10.65 18.0263 10.65 17.4043H9.35ZM9.06829 18.6605C8.88127 19.0618 8.60469 19.4318 8.25014 19.7469L9.11382 20.7185C9.595 20.2908 9.98135 19.7789 10.2466 19.2096L9.06829 18.6605ZM8.25014 19.7469C7.89546 20.0622 7.47037 20.3157 6.99749 20.4898L7.44666 21.7098C8.06571 21.4819 8.63278 21.1461 9.11382 20.7185L8.25014 19.7469ZM6.99749 20.4898C6.52459 20.664 6.01554 20.7543 5.5 20.7543V22.0543C6.16636 22.0543 6.82763 21.9377 7.44666 21.7098L6.99749 20.4898ZM5.5 20.7543C4.98446 20.7543 4.47541 20.664 4.00251 20.4898L3.55334 21.7098C4.17237 21.9377 4.83364 22.0543 5.5 22.0543V20.7543ZM4.00251 20.4898C3.52963 20.3157 3.10454 20.0622 2.74986 19.7469L1.88618 20.7185C2.36722 21.1461 2.93429 21.4819 3.55334 21.7098L4.00251 20.4898ZM2.74986 19.7469C2.39531 19.4318 2.11873 19.0618 1.93171 18.6605L0.75337 19.2096C1.01865 19.7789 1.405 20.2908 1.88618 20.7185L2.74986 19.7469ZM1.93171 18.6605C1.74484 18.2595 1.65 17.8329 1.65 17.4043L0.35 17.4043C0.35 18.0263 0.487954 18.64 0.75337 19.2096L1.93171 18.6605ZM1 18.0543L2.08896 18.0543L2.08896 16.7543L1 16.7543L1 18.0543ZM8.91104 18.0543H10V16.7543H8.91104V18.0543ZM1 18.0543L10 18.0543V16.7543L1 16.7543L1 18.0543Z"
          fill="currentColor"/>
    <path d="M24 14.4043H24.65C24.65 14.0453 24.359 13.7543 24 13.7543V14.4043ZM19.5 18.4043V17.7543V18.4043ZM15 14.4043L15 13.7543C14.641 13.7543 14.35 14.0453 14.35 14.4043L15 14.4043ZM23.35 14.4043C23.35 14.8329 23.2552 15.2595 23.0683 15.6605L24.2466 16.2096C24.512 15.64 24.65 15.0263 24.65 14.4043H23.35ZM23.0683 15.6605C22.8813 16.0618 22.6047 16.4318 22.2501 16.7469L23.1138 17.7185C23.595 17.2908 23.9814 16.7789 24.2466 16.2096L23.0683 15.6605ZM22.2501 16.7469C21.8955 17.0622 21.4704 17.3157 20.9975 17.4898L21.4467 18.7098C22.0657 18.4819 22.6328 18.1461 23.1138 17.7185L22.2501 16.7469ZM20.9975 17.4898C20.5246 17.664 20.0155 17.7543 19.5 17.7543V19.0543C20.1664 19.0543 20.8276 18.9377 21.4467 18.7098L20.9975 17.4898ZM19.5 17.7543C18.9845 17.7543 18.4754 17.664 18.0025 17.4898L17.5533 18.7098C18.1724 18.9377 18.8336 19.0543 19.5 19.0543V17.7543ZM18.0025 17.4898C17.5296 17.3157 17.1045 17.0622 16.7499 16.7469L15.8862 17.7185C16.3672 18.1461 16.9343 18.4819 17.5533 18.7098L18.0025 17.4898ZM16.7499 16.7469C16.3953 16.4318 16.1187 16.0618 15.9317 15.6605L14.7534 16.2096C15.0186 16.7789 15.405 17.2908 15.8862 17.7185L16.7499 16.7469ZM15.9317 15.6605C15.7448 15.2595 15.65 14.8329 15.65 14.4043L14.35 14.4043C14.35 15.0263 14.488 15.64 14.7534 16.2096L15.9317 15.6605ZM15 15.0543L16.089 15.0543L16.089 13.7543L15 13.7543L15 15.0543ZM22.911 15.0543H24V13.7543H22.911V15.0543ZM15 15.0543L24 15.0543V13.7543L15 13.7543L15 15.0543Z"
          fill="currentColor"/>
</svg>
