<svg xmlns="http://www.w3.org/2000/svg" width="15" height="15" viewBox="0 0 15 15" fill="none">
    <path d="M3.65641 12.8449C3.60481 12.8321 3.55294 12.8199 3.50155 12.806C3.21373 12.7268 2.96223 12.5838 2.75445 12.3688C2.39599 11.9977 2.20309 11.5544 2.18642 11.0364C2.18038 10.8418 2.20285 10.6504 2.24851 10.4613C2.3016 10.2393 2.38458 10.0295 2.49319 9.82923C2.66662 9.50957 2.8922 9.23154 3.159 8.98562C3.36008 8.80028 3.57918 8.63895 3.81395 8.49898C4.03367 8.36781 4.23886 8.21637 4.435 8.05232C4.68186 7.84545 4.91187 7.62057 5.13988 7.39356C5.34145 7.19283 5.54054 6.99018 5.75068 6.79884C5.90879 6.65443 6.07285 6.51746 6.25001 6.39709C6.47162 6.24676 6.70784 6.12802 6.97169 6.07055C7.16966 6.02734 7.36855 6.02105 7.56887 6.05206C7.79541 6.08665 8.01436 6.14831 8.22431 6.24083C8.54558 6.38273 8.80765 6.59781 9.01614 6.88037C9.15864 7.07437 9.27102 7.28522 9.37165 7.50293C9.47842 7.73378 9.57222 7.97007 9.67062 8.20465C9.78161 8.46882 9.89815 8.73011 10.0355 8.98196C10.1722 9.23297 10.3301 9.47015 10.5089 9.69316C10.7251 9.96295 10.9081 10.2531 11.052 10.568C11.1744 10.8379 11.2637 11.1177 11.3087 11.411C11.3438 11.6395 11.3508 11.8681 11.3223 12.098C11.2792 12.4472 11.1613 12.7675 10.9499 13.0512C10.7541 13.3141 10.5035 13.5087 10.2076 13.6462C9.99005 13.7473 9.76299 13.8132 9.52283 13.8297C9.43777 13.8359 9.35244 13.836 9.26741 13.8293C9.25555 13.8284 9.24395 13.8286 9.23242 13.8284C9.22039 13.8327 9.20912 13.8259 9.19735 13.8253C9.18762 13.8249 9.17831 13.8188 9.16818 13.8233C9.09681 13.8107 9.02515 13.7981 8.95378 13.7855C8.94638 13.7778 8.93598 13.7804 8.92712 13.7777C8.91877 13.7762 8.91086 13.7748 8.90265 13.7734C8.89589 13.7722 8.88855 13.7709 8.88193 13.7697C8.70009 13.7315 8.52926 13.662 8.35952 13.5897C8.07201 13.4667 7.79429 13.3226 7.50944 13.1938C7.27868 13.0898 7.04387 12.9969 6.80095 12.9247C6.63262 12.8747 6.46076 12.8421 6.28791 12.8177C6.14968 12.7981 6.00952 12.7953 5.86995 12.7967C5.59429 12.8 5.32014 12.8259 5.04592 12.8514C4.75578 12.8788 4.46571 12.9058 4.17419 12.9023C4.05565 12.9005 3.93742 12.8962 3.82049 12.8744C3.79651 12.8699 3.77199 12.8693 3.74777 12.8644C3.71714 12.8572 3.68567 12.8573 3.65641 12.8449ZM10.778 2.10099C11.1554 2.21545 11.4153 2.46392 11.5857 2.81356C11.7025 3.05331 11.7574 3.30879 11.7726 3.57423C11.7853 3.80277 11.7654 4.02899 11.7184 4.25309C11.6318 4.66484 11.4655 5.0411 11.2204 5.38264C11.0506 5.61933 10.8492 5.82425 10.6094 5.98937C10.3958 6.13606 10.1647 6.24261 9.90874 6.28927C9.72893 6.32199 9.54995 6.32227 9.37196 6.27988C9.06375 6.20693 8.8213 6.03623 8.63735 5.78031C8.4806 5.56193 8.39096 5.31551 8.34527 5.05214C8.31335 4.86797 8.30583 4.68259 8.31772 4.49648C8.32568 4.36889 8.34216 4.24265 8.36827 4.1181C8.42961 3.82406 8.53333 3.54552 8.67844 3.28291C8.83264 3.00331 9.02519 2.75442 9.2653 2.54382C9.4673 2.36668 9.6916 2.22635 9.94657 2.13844C10.1339 2.07373 10.3265 2.04445 10.5249 2.05667C10.6338 2.06441 10.6767 2.07282 10.778 2.10099ZM1.63233 5.15117C1.65919 5.0342 1.70077 4.92206 1.75181 4.81352C1.85073 4.60258 1.98431 4.41798 2.16747 4.27203C2.37215 4.1092 2.6051 4.02157 2.86666 4.01577C3.07903 4.01126 3.27841 4.06442 3.46658 4.16098C3.68288 4.27217 3.86395 4.42833 4.01616 4.6169C4.25278 4.90903 4.40039 5.24319 4.4788 5.60964C4.51975 5.8015 4.53727 5.99578 4.53133 6.19187C4.5285 6.28704 4.51851 6.38154 4.50384 6.47567C4.47576 6.65431 4.42702 6.82635 4.35261 6.99088C4.25337 7.21039 4.11762 7.40219 3.92848 7.55349C3.71138 7.72707 3.46335 7.81516 3.18535 7.81152C2.98137 7.80888 2.79023 7.75272 2.61032 7.65731C2.36849 7.52852 2.17391 7.34632 2.01297 7.12646C1.85589 6.91248 1.74281 6.67621 1.66696 6.42225C1.59263 6.17317 1.55603 5.91795 1.56265 5.6574C1.56395 5.61136 1.56639 5.56552 1.56824 5.51972C1.5671 5.49839 1.57266 5.4778 1.57136 5.45659C1.57056 5.44767 1.57328 5.43982 1.5744 5.43094C1.57472 5.41984 1.58165 5.40916 1.57694 5.39717C1.58661 5.34233 1.59625 5.28764 1.60594 5.23267C1.61881 5.21946 1.61672 5.20183 1.6207 5.18602C1.62367 5.1742 1.62289 5.16096 1.63233 5.15117ZM4.62391 3.00246C4.68279 2.67614 4.78105 2.3898 4.93995 2.1256C5.0599 1.92581 5.20727 1.74974 5.39414 1.60876C5.59547 1.4565 5.81952 1.36135 6.07282 1.34263C6.32617 1.32363 6.56136 1.38325 6.78063 1.50955C6.97375 1.62097 7.1329 1.77103 7.26643 1.94857C7.47972 2.23167 7.61178 2.55134 7.68519 2.89652C7.7318 3.11601 7.75143 3.33789 7.74545 3.56195C7.74204 3.68901 7.73068 3.8157 7.71111 3.94184C7.68595 4.10048 7.64824 4.2563 7.59467 4.40784C7.48303 4.72456 7.31908 5.00899 7.07486 5.24296C6.92302 5.38804 6.75007 5.49963 6.55011 5.56674C6.32667 5.64161 6.10022 5.64944 5.87242 5.59082C5.66645 5.53799 5.48598 5.43564 5.32523 5.29719C5.1155 5.11678 4.95892 4.89576 4.84 4.64714C4.69902 4.35194 4.6215 4.03937 4.59499 3.71346C4.58043 3.53518 4.58249 3.35686 4.60053 3.17882C4.60698 3.11196 4.61422 3.04479 4.62391 3.00246ZM13.8007 7.49305C13.7985 7.50561 13.7963 7.51831 13.794 7.531C13.7241 7.84333 13.5878 8.1249 13.4023 8.38365C13.2564 8.58632 13.0846 8.76417 12.8844 8.91336C12.6274 9.10522 12.3447 9.2403 12.0271 9.2953C11.8369 9.32827 11.6471 9.32754 11.4586 9.28343C11.1804 9.21801 10.953 9.07259 10.7806 8.844C10.6382 8.65508 10.5603 8.43988 10.5283 8.20749C10.4993 7.99914 10.5094 7.79142 10.5523 7.58564C10.6465 7.13313 10.8629 6.74487 11.1781 6.41019C11.2846 6.29684 11.4017 6.19549 11.5288 6.1063C11.7899 5.92366 12.0738 5.79786 12.3914 5.75418C12.572 5.72978 12.7511 5.73562 12.9276 5.78118C13.1973 5.8506 13.4174 5.99639 13.5841 6.22083C13.7344 6.42336 13.8111 6.65425 13.8381 6.90302C13.8531 7.04046 13.8516 7.17813 13.8321 7.31528C13.8298 7.32798 13.8276 7.34082 13.8253 7.35352C13.8157 7.39973 13.8076 7.44622 13.8007 7.49305Z" fill="black"/>
</svg>