<svg width="55" height="8" viewBox="0 0 55 8" fill="none" xmlns="http://www.w3.org/2000/svg">
<path d="M23.982 4C23.982 6.32584 22.2546 8 19.8765 8C17.4984 8 15.7598 6.32584 15.7598 4C15.7598 1.67416 17.4984 0 19.8765 0C22.2546 0 23.982 1.67416 23.982 4ZM17.3975 4C17.3975 5.51685 18.4295 6.60674 19.8541 6.60674C21.3011 6.60674 22.3331 5.52809 22.3331 4C22.3331 2.49438 21.3011 1.39326 19.8541 1.39326C18.4407 1.39326 17.3975 2.49438 17.3975 4Z" fill="white"/>
<path d="M10.1292 0C7.7511 0 6.01243 1.67416 6.01243 4C6.01243 4.89888 6.28165 5.70787 6.74155 6.35955H0.818857C0.370168 6.35955 0 6.73034 0 7.17978V8H10.1179C10.1179 8 10.1179 8 10.1292 8C12.5072 8 14.2347 6.32584 14.2347 4C14.2347 1.67416 12.5072 0 10.1292 0ZM10.1067 6.60674C8.68213 6.60674 7.65015 5.52809 7.65015 4C7.65015 2.49438 8.68213 1.39326 10.1067 1.39326C11.5537 1.39326 12.5857 2.49438 12.5857 4C12.5857 5.52809 11.5537 6.60674 10.1067 6.60674Z" fill="white"/>
<path d="M32.6874 7.17978V3.40449C32.6874 1.37079 31.2179 0 29.0866 0C26.9666 0 25.5195 1.37079 25.5195 3.40449V7.17978C25.5195 7.62921 25.8897 8 26.3384 8H27.1573V3.40449C27.1573 2.17978 27.92 1.35955 29.0978 1.35955C30.2756 1.35955 31.0384 2.17978 31.0384 3.40449V7.17978C31.0384 7.62921 31.4086 8 31.8573 8H32.6761V7.17978H32.6874Z" fill="white"/>
<path d="M41.3695 0.662921V0H40.5619C40.1132 0 39.743 0.370786 39.743 0.820225V4.61798C39.743 5.8427 38.9578 6.65169 37.78 6.65169C36.6022 6.65169 35.8394 5.85393 35.8394 4.61798V3.67416V0.977528V0.662921V0H35.0318C34.5831 0 34.2129 0.370786 34.2129 0.820225V4.61798C34.2129 6.62921 35.6599 8 37.8024 8C39.9225 8 41.3695 6.62921 41.3695 4.61798V2.68539V0.977528V0.662921Z" fill="white"/>
<path d="M51.3182 0C50.0731 0 49.0972 0.561798 48.6261 1.48315C48.1437 0.561798 47.179 0 45.9339 0C44.0943 0 42.9053 1.23596 42.9053 3.10112V7.17978C42.9053 7.62921 43.2754 8 43.7241 8H44.543V7.17978V3.04494C44.543 2.01124 45.1824 1.30337 46.1695 1.30337C47.1566 1.30337 47.8072 2.01124 47.8072 3.04494V7.17978C47.8072 7.62921 48.1774 8 48.6261 8H49.4337V7.8764V7.33708V7.02247V5.85393V3.04494C49.4337 2.01124 50.0843 1.30337 51.0714 1.30337C52.0586 1.30337 52.6979 2.01124 52.6979 3.04494V7.17978C52.6979 7.62921 53.0681 8 53.5168 8H54.3357V3.10112C54.3469 1.22472 53.1578 0 51.3182 0Z" fill="white"/>
</svg>
