<svg xmlns="http://www.w3.org/2000/svg" width="109" height="20" viewBox="0 0 109 20" fill="none">
  <path
    d="M8.50948 2.13672H11.0781L6.03036 6.86749L11.5766 14.4483H9.1692L4.58582 8.06425L2.96229 9.52395V14.4483H1V2.13672H2.96229V6.21689C2.96229 6.74411 2.6596 7.32494 2.44503 7.79993L2.76599 7.94132C2.98055 7.4663 3.23031 6.85038 3.60423 6.51539L8.50948 2.13672Z"
    fill="white"/>
  <path d="M12.666 2.13672H14.7168V4.07053H12.666V2.13672Z" fill="#F9E505"/>
  <path d="M12.7715 5.6543H14.6447V14.4481H12.7715V5.6543Z" fill="white"/>
  <path
    d="M34.473 9.31271C34.473 7.99395 33.4741 6.92102 31.8688 6.92102C30.2279 6.92102 29.1044 8.11685 29.1044 9.31271H34.473ZM26.9102 9.99933C26.9102 7.37799 28.9436 5.39062 31.8332 5.39062C34.794 5.39062 36.6312 7.51893 36.6124 9.92867C36.6124 10.1043 36.6124 10.5266 36.6124 10.6666H29.0856C29.0856 11.7224 30.0503 13.1119 32.0651 13.1119C33.3494 13.1119 34.1333 12.4784 34.3296 11.9341H36.4166C36.1668 12.849 34.9012 14.7301 32.2258 14.7301C28.7834 14.7301 26.9102 12.6198 26.9102 9.99933Z"
    fill="white"/>
  <path
    d="M40.0216 9.98043C40.0216 11.6342 41.0379 12.9885 42.8751 12.9885C44.7301 12.9885 45.6396 11.6342 45.6396 9.98043C45.6396 8.34512 44.7301 7.11414 42.8751 7.11414C41.0379 7.11414 40.0216 8.34512 40.0216 9.98043ZM39.7541 18.8462H37.8809V5.65444H39.7541V6.28748C39.7541 6.81473 39.4861 7.43111 39.3085 7.94125L39.6468 8.04571C39.8258 7.55404 39.9317 6.83184 40.2887 6.46309C40.9494 5.77737 41.8766 5.37305 43.0714 5.37305C45.7647 5.37305 47.5663 7.39554 47.5302 10.016C47.4772 12.5671 45.693 14.7125 43.0888 14.7125C41.8935 14.7125 40.9667 14.2731 40.307 13.586C39.9317 13.2001 39.807 12.4964 39.6468 11.9863L39.3085 12.1092C39.4861 12.6009 39.7541 13.2344 39.7541 13.7625V18.8462Z"
    fill="white"/>
  <path
    d="M66.434 9.31271C66.434 7.99395 65.435 6.92102 63.8298 6.92102C62.1885 6.92102 61.0653 8.11685 61.0653 9.31271H66.434ZM58.8711 9.99933C58.8711 7.37799 60.9046 5.39062 63.7941 5.39062C66.7549 5.39062 68.5917 7.51893 68.5734 9.92867C68.5734 10.1043 68.5734 10.5266 68.5734 10.6666H61.0466C61.0466 11.7224 62.0108 13.1119 64.0261 13.1119C65.3099 13.1119 66.0943 12.4784 66.2906 11.9341H68.3784C68.1278 12.849 66.8622 14.7301 64.1863 14.7301C60.7439 14.7301 58.8711 12.6198 58.8711 9.99933Z"
    fill="white"/>
  <path
    d="M94.7341 5.67188H97.1594L93.4142 9.06674L98.0693 14.467H95.6614L92.1117 10.2099L91.2373 10.9844L91.2561 14.4486H89.3828V5.67862H91.2561V7.6944C91.2561 8.25674 90.9534 8.90824 90.7027 9.41838L91.0424 9.55842C91.2743 9.04963 91.5597 8.39813 91.987 8.02893L94.7341 5.67188Z"
    fill="white"/>
  <path
    d="M86.2497 5.66211H87.9993V14.4334H86.2497V9.67923C86.2497 9.007 86.5442 8.19745 86.7601 7.55631L86.4666 7.46489C86.2497 8.09031 85.9863 8.93047 85.5845 9.46492L81.2331 14.4334H79.5V5.66211H81.2331V10.4329C81.2331 11.1047 80.955 11.9134 80.7377 12.5559L81.0327 12.6468C81.2495 12.0205 81.513 11.1808 81.9147 10.6468L86.2497 5.66211Z"
    fill="white"/>
  <path
    d="M105.752 5.66211H107.501V14.4334H105.752V9.67923C105.752 9.007 106.046 8.19745 106.262 7.55631L105.969 7.46489C105.752 8.09031 105.488 8.93047 105.086 9.46492L100.735 14.4334H99.002V5.66211H100.735V10.4329C100.735 11.1047 100.457 11.9134 100.24 12.5559L100.535 12.6468C100.751 12.0205 101.015 11.1808 101.417 10.6468L105.752 5.66211Z"
    fill="white"/>
  <path d="M78.376 5.70312H68.8125V7.33169H72.6681V14.4253H74.5204V7.33169H78.376V5.70312Z" fill="white"/>
  <path
    d="M55.6806 5.70312V9.24704H50.758V5.70312H48.8848V14.4492H50.758V10.8756H55.6806V14.4492H57.5534V5.70312H55.6806Z"
    fill="white"/>
  <path
    d="M21.3541 12.9887C19.5169 12.9887 18.5007 11.6344 18.5007 9.98064C18.5007 8.34534 19.5169 7.11435 21.3541 7.11435C23.2086 7.11435 24.1186 8.34534 24.1186 9.98064C24.1186 11.6344 23.2086 12.9887 21.3541 12.9887ZM23.5365 5.79692C22.9535 5.52498 22.2846 5.37235 21.5505 5.37235C20.3552 5.37235 19.4279 5.77758 18.7673 6.4633C18.4107 6.83205 18.3043 7.55425 18.1254 8.04593L17.7871 7.94011C17.9541 7.46196 18.197 6.89148 18.2267 6.38676H18.229C18.2569 6.23636 18.2902 6.08283 18.3308 5.92569C18.413 5.60559 18.5536 5.31202 18.7536 5.04412C18.9522 4.77757 19.2129 4.5466 19.5366 4.35301C19.8584 4.15938 20.2675 4.03646 20.7629 3.9829L23.2141 3.74247C24.1761 3.63575 24.8737 3.33815 25.3056 2.8496C25.7384 2.36244 25.9822 1.79829 26.0375 1.15625H24.2651C24.1971 1.50337 24.0181 1.75733 23.7296 1.91806C23.4406 2.07879 23.0562 2.18596 22.5759 2.2391L20.6182 2.43988C19.8078 2.51959 19.1343 2.72671 18.5988 3.06033C18.0628 3.39396 17.6332 3.84512 17.3113 4.41331C17.0246 4.91535 16.8146 5.50878 16.6794 6.19314C16.6794 6.19314 16.3594 7.84465 16.3607 9.95363C16.3607 9.95902 16.3594 9.96622 16.3594 9.97209V10.0369C16.3767 12.6835 18.5303 14.823 21.1843 14.823C22.4996 14.823 23.6912 14.2971 24.5619 13.4453C25.4303 12.5241 25.9822 11.2872 26.0092 10.0162C26.0092 10.0004 26.0092 9.98423 26.0092 9.96847C25.995 8.17605 25.002 6.61593 23.5365 5.79692Z"
    fill="white"/>
</svg>
