<svg width="138" height="44" viewBox="0 0 138 44" fill="none" xmlns="http://www.w3.org/2000/svg">
    <path d="M117.572 43.25H20.4283C9.63026 43.25 0.75 33.7703 0.75 22C0.75 10.2297 9.63026 0.75 20.4283 0.75H117.572C128.371 0.75 137.25 10.2297 137.25 22C137.25 33.7703 128.371 43.25 117.572 43.25Z"
          fill="#404040" stroke="#F9E505" stroke-width="1.5"/>
    <path d="M24.7106 14.3994H27.1937L22.3141 18.9628L27.6757 26.2753H25.3484L20.9176 20.1172L19.3481 21.5252V26.2753H17.4512V14.3994H19.3481V18.3352C19.3481 18.8437 19.0555 19.404 18.8481 19.8622L19.1584 19.9986C19.3658 19.5404 19.6072 18.9462 19.9687 18.6231L24.7106 14.3994Z"
          fill="white"/>
    <path d="M28.7285 14.3994H30.7111V16.2648H28.7285V14.3994Z" fill="#F9E505"/>
    <path d="M28.832 17.793H30.6429V26.2755H28.832V17.793Z" fill="white"/>
    <path d="M49.8111 21.3214C49.8111 20.0493 48.8454 19.0143 47.2936 19.0143C45.7073 19.0143 44.6212 20.1678 44.6212 21.3214H49.8111ZM42.5 21.9837C42.5 19.4551 44.4658 17.5381 47.2592 17.5381C50.1213 17.5381 51.8974 19.5911 51.8793 21.9155C51.8793 22.0849 51.8793 22.4923 51.8793 22.6274H44.6031C44.6031 23.6458 45.5356 24.9861 47.4833 24.9861C48.7249 24.9861 49.4827 24.375 49.6725 23.8499H51.6899C51.4485 24.7325 50.225 26.547 47.6387 26.547C44.3109 26.547 42.5 24.5114 42.5 21.9837Z"
          fill="white"/>
    <path d="M55.173 21.9658C55.173 23.561 56.1555 24.8674 57.9315 24.8674C59.7247 24.8674 60.6039 23.561 60.6039 21.9658C60.6039 20.3884 59.7247 19.201 57.9315 19.201C56.1555 19.201 55.173 20.3884 55.173 21.9658ZM54.9144 30.5179H53.1035V17.7929H54.9144V18.4036C54.9144 18.9121 54.6553 19.5067 54.4836 19.9988L54.8107 20.0996C54.9837 19.6253 55.0861 18.9286 55.4312 18.573C56.0699 17.9115 56.9663 17.5215 58.1213 17.5215C60.7249 17.5215 62.4665 19.4724 62.4316 22.0001C62.3804 24.4609 60.6556 26.5304 58.1381 26.5304C56.9826 26.5304 56.0866 26.1065 55.4489 25.4438C55.0861 25.0716 54.9656 24.3927 54.8107 23.9007L54.4836 24.0192C54.6553 24.4935 54.9144 25.1046 54.9144 25.614V30.5179Z"
          fill="white"/>
    <path d="M80.7076 21.3214C80.7076 20.0493 79.7419 19.0143 78.1901 19.0143C76.6034 19.0143 75.5176 20.1678 75.5176 21.3214H80.7076ZM73.3965 21.9837C73.3965 19.4551 75.3623 17.5381 78.1556 17.5381C81.0178 17.5381 82.7934 19.5911 82.7758 21.9155C82.7758 22.0849 82.7758 22.4923 82.7758 22.6274H75.4996C75.4996 23.6458 76.4317 24.9861 78.3799 24.9861C79.6209 24.9861 80.3792 24.375 80.569 23.8499H82.5873C82.345 24.7325 81.1215 26.547 78.5348 26.547C75.2069 26.547 73.3965 24.5114 73.3965 21.9837Z"
          fill="white"/>
    <path d="M108.066 17.8086H110.41L106.79 21.0833L111.29 26.2924H108.962L105.531 22.186L104.685 22.9331L104.703 26.2747H102.893V17.8151H104.703V19.7595C104.703 20.302 104.411 20.9304 104.169 21.4225L104.497 21.5576C104.721 21.0668 104.997 20.4384 105.41 20.0822L108.066 17.8086Z"
          fill="white"/>
    <path d="M99.8609 17.8008H101.552V26.2616H99.8609V21.6757C99.8609 21.0273 100.146 20.2464 100.354 19.6279L100.071 19.5398C99.8609 20.143 99.6063 20.9535 99.2179 21.469L95.0113 26.2616H93.3359V17.8008H95.0113V22.4028C95.0113 23.0508 94.7425 23.8308 94.5325 24.4505L94.8176 24.5383C95.0272 23.9341 95.2819 23.1242 95.6703 22.6091L99.8609 17.8008Z"
          fill="white"/>
    <path d="M118.716 17.7998H120.408V26.2606H118.716V21.6748C118.716 21.0263 119.001 20.2454 119.21 19.627L118.926 19.5388C118.716 20.1421 118.462 20.9525 118.073 21.468L113.867 26.2606H112.191V17.7998H113.867V22.4018C113.867 23.0498 113.598 23.8298 113.388 24.4496L113.673 24.5373C113.883 23.9332 114.137 23.1232 114.526 22.6081L118.716 17.7998Z"
          fill="white"/>
    <path d="M92.2529 17.8389H83.0078V19.4098H86.7351V26.2524H88.5257V19.4098H92.2529V17.8389Z" fill="white"/>
    <path d="M70.3118 17.8389V21.2574H65.5531V17.8389H63.7422V26.2754H65.5531V22.8283H70.3118V26.2754H72.1222V17.8389H70.3118Z"
          fill="white"/>
    <path d="M37.1292 24.8668C35.3532 24.8668 34.3708 23.5604 34.3708 21.9652C34.3708 20.3878 35.3532 19.2004 37.1292 19.2004C38.922 19.2004 39.8017 20.3878 39.8017 21.9652C39.8017 23.5604 38.922 24.8668 37.1292 24.8668ZM39.2389 17.9296C38.6753 17.6672 38.0287 17.52 37.319 17.52C36.1636 17.52 35.2671 17.9109 34.6285 18.5724C34.2838 18.9281 34.181 19.6247 34.008 20.099L33.6809 19.9969C33.8424 19.5357 34.0773 18.9854 34.1059 18.4985H34.1082C34.1351 18.3535 34.1673 18.2054 34.2066 18.0538C34.286 17.745 34.422 17.4618 34.6153 17.2034C34.8073 16.9463 35.0593 16.7235 35.3722 16.5367C35.6834 16.35 36.0788 16.2314 36.5577 16.1797L38.9273 15.9478C39.8573 15.8449 40.5317 15.5578 40.9492 15.0865C41.3676 14.6166 41.6033 14.0724 41.6567 13.4531H39.9433C39.8776 13.788 39.7045 14.0329 39.4256 14.188C39.1463 14.343 38.7746 14.4464 38.3103 14.4976L36.4178 14.6913C35.6344 14.7682 34.9834 14.968 34.4656 15.2898C33.9475 15.6116 33.5322 16.0468 33.221 16.5949C32.9439 17.0792 32.7408 17.6516 32.6102 18.3118C32.6102 18.3118 32.3008 19.9048 32.3021 21.9392C32.3021 21.9444 32.3008 21.9513 32.3008 21.957V22.0195C32.3176 24.5724 34.3994 26.6362 36.9651 26.6362C38.2366 26.6362 39.3885 26.129 40.2302 25.3072C41.0697 24.4187 41.6033 23.2256 41.6293 21.9995C41.6293 21.9843 41.6293 21.9687 41.6293 21.9535C41.6156 20.2245 40.6557 18.7196 39.2389 17.9296Z"
          fill="white"/>
</svg>
