<svg width="24" height="24" viewBox="0 0 24 24" fill="none" xmlns="http://www.w3.org/2000/svg">
    <path d="M19.0711 17.2635C17.8064 18.4683 15.0511 21.0932 13.3778 22.6874C12.6053 23.4233 11.3945 23.4232 10.6221 22.6873C8.97686 21.1199 6.27869 18.5494 4.92893 17.2635C1.02369 13.543 1.02369 7.51086 4.92893 3.79037C8.83418 0.0698773 15.1658 0.0698773 19.0711 3.79037C22.9763 7.51086 22.9763 13.543 19.0711 17.2635Z"
          stroke="currentColor" stroke-width="1.5" stroke-linecap="round" stroke-linejoin="round"/>
    <path d="M15.75 10.5269C15.75 12.5 14.0711 14.0995 12 14.0995C9.92893 14.0995 8.25 12.5 8.25 10.5269C8.25 8.55382 9.92893 6.95432 12 6.95432C14.0711 6.95432 15.75 8.55382 15.75 10.5269Z"
          stroke="currentColor" stroke-width="1.5" stroke-linecap="round" stroke-linejoin="round"/>
</svg>
