<svg width="375" height="641" viewBox="0 0 375 641" fill="none" xmlns="http://www.w3.org/2000/svg">
    <mask id="mask0_1050_574601" style="mask-type:alpha" maskUnits="userSpaceOnUse" x="-171" y="0" width="716"
          height="641">
        <rect x="-170.031" width="714.063" height="641" rx="5" fill="white"/>
    </mask>
    <g mask="url(#mask0_1050_574601)">
        <line x1="-135.824" y1="553.146" x2="509.826" y2="553.147" stroke="#2B2A29" stroke-width="0.5"/>
        <path d="M258.302 325.468C255.81 321.578 247.81 305.21 245.319 301.319C244.092 299.406 242.814 297.267 243.153 295.021C243.571 292.256 246.224 290.476 248.639 289.067C251.624 287.327 254.704 285.591 258.106 284.988C259.799 284.691 261.643 284.71 263.109 285.609C264.152 286.248 264.898 287.268 265.586 288.277C268.931 293.192 277.102 311.05 278.981 316.688L258.302 325.468Z"
              fill="#2B2A29"/>
        <path d="M286.634 315.025C285.912 314.613 285.123 314.551 284.319 314.683C285.414 313.96 286.43 313.123 287.226 312.084C288.334 310.638 288.974 308.752 288.594 306.971C287.946 303.935 284.513 302.151 281.417 302.353C278.322 302.555 275.54 304.248 272.995 306.02C270.327 307.882 264.091 311.787 265.379 315.817C266.134 318.181 268.377 319.011 270.811 319.114C270.759 319.125 270.709 319.132 270.658 319.143C269.235 319.415 267.574 320.061 266.484 321.114C266.623 319.969 266.437 318.838 265.792 317.818C265.065 316.669 263.873 315.902 262.667 315.271C259.833 313.791 256.64 312.867 253.449 313.083C250.257 313.299 247.079 314.753 245.171 317.319C243.188 319.984 242.757 323.497 242.846 326.815C242.936 330.137 245.407 350.858 235.361 365.918C220.874 387.638 181.033 370.444 181.033 370.444L179.944 370.573C189.395 363.976 195.52 353.405 195.52 341.483C195.52 321.492 178.291 305.286 157.038 305.286C135.784 305.286 118.555 321.492 118.555 341.483C118.555 356.764 128.622 369.835 142.857 375.147C137.601 381.655 127.095 386.463 118.908 388.019C73.2811 396.686 78.714 427.453 107.806 431.653C109.53 431.899 111.296 432.053 113.022 432.141L112.622 432.578C111.44 434.032 109.193 434.373 108.211 435.965C107.454 437.192 107.702 438.796 108.274 440.117C108.739 441.193 109.445 442.224 110.489 442.756C111.454 443.252 112.614 443.263 113.66 442.98L114.534 442.954C113.924 443.912 113.577 445.061 113.788 446.167C114.085 447.716 115.425 448.897 116.902 449.451C118.38 450.006 119.993 450.043 121.571 450.069L122.672 449.026C122.104 451.569 124.028 454.275 126.5 455.24C130.464 456.789 135.135 454.686 137.74 451.32C140.345 447.954 141.299 443.619 141.904 439.409C142.937 432.215 142.825 423.977 137.698 418.82C135.658 416.768 133.01 415.429 130.314 414.374C125.249 412.393 119.838 411.299 114.4 411.152C125.76 410.579 136.574 404.255 143.003 394.876C143.184 416.68 143.269 438.781 143.45 460.584C143.657 460.622 143.864 460.651 144.07 460.688C143.842 492.038 141.435 523.375 136.873 554.396C124.685 553.17 112.124 560.658 107.409 571.956C106.68 573.703 106.122 575.656 106.676 577.466C107.867 581.357 112.984 582.069 117.053 582.036C129.576 581.929 142.098 581.573 154.607 580.964C156.577 571.732 154.256 475.032 156.585 462.747H160.78C163.109 475.032 160.788 571.732 162.758 580.964C175.267 581.573 187.788 581.929 200.312 582.036C204.381 582.069 209.498 581.357 210.689 577.466C211.243 575.656 210.684 573.703 209.956 571.956C205.241 560.658 192.679 553.17 180.491 554.396C175.924 523.338 173.517 492.868 173.293 461.48L168.877 461.341C173.598 460.776 178.272 459.821 182.832 458.474C180.895 436.34 175.6 392.16 175.6 392.16C186.6 394.671 250.714 430.148 273.069 339.035C273.383 338.994 274.384 338.767 277.185 338.014C279.948 337.269 282.537 335.621 284.034 333.183C284.613 332.24 285.029 331.15 284.953 330.045C284.877 328.94 284.223 327.831 283.183 327.446C281.935 326.984 280.584 327.623 279.321 328.044C278.096 328.456 276.834 328.65 275.562 328.705C276.133 328.632 276.701 328.533 277.259 328.411C281.65 327.457 286.003 324.924 287.734 320.78C288.558 318.805 288.492 316.086 286.634 315.025V315.025Z"
              fill="#F9E505"/>
        <path d="M115.148 433.143C112.601 433.143 110.107 432.966 107.671 432.618C100.865 431.634 95.044 429.197 90.8371 425.562C86.7749 422.054 84.4815 417.579 84.3788 412.961C84.2571 407.507 87.0521 402.287 92.4613 397.871C98.5074 392.938 107.346 389.337 118.733 387.175C126.387 385.721 137.021 381.122 142.278 374.456C142.592 374.06 143.169 373.99 143.567 374.306C143.966 374.618 144.034 375.194 143.72 375.594C138.171 382.627 127.055 387.465 119.076 388.977C94.5579 393.635 86.0251 404.401 86.2147 412.921C86.3056 417.014 88.3736 421.008 92.0376 424.171C95.9789 427.578 101.475 429.869 107.934 430.801C115.831 431.939 124.396 431.16 133.389 428.481C133.875 428.334 134.387 428.613 134.532 429.098C134.676 429.586 134.399 430.096 133.914 430.239C127.424 432.174 121.14 433.143 115.148 433.143V433.143Z"
              fill="#2B2A29"/>
        <path d="M121.566 451.043C121.561 451.043 121.555 451.043 121.55 451.043C119.988 451.013 118.218 450.984 116.575 450.367C114.626 449.636 113.211 448.113 112.882 446.395C112.614 444.997 113.049 443.415 114.074 442.06C114.38 441.653 114.956 441.572 115.36 441.881C115.765 442.185 115.845 442.762 115.54 443.165C114.827 444.109 114.515 445.158 114.686 446.051C114.936 447.361 116.159 448.253 117.22 448.649C118.567 449.152 120.1 449.181 121.583 449.207C122.089 449.215 122.493 449.633 122.484 450.139C122.476 450.643 122.066 451.043 121.566 451.043L121.566 451.043Z"
              fill="#2B2A29"/>
        <path d="M112.291 444.142C111.49 444.142 110.73 443.969 110.068 443.632C108.959 443.063 108.071 442.024 107.428 440.538C106.953 439.44 106.321 437.329 107.427 435.538C108.077 434.484 109.133 433.897 110.065 433.376C110.787 432.976 111.468 432.594 111.907 432.054C112.227 431.662 112.805 431.603 113.198 431.922C113.592 432.245 113.651 432.822 113.331 433.214C112.67 434.025 111.8 434.51 110.959 434.98C110.152 435.428 109.389 435.854 108.99 436.503C108.296 437.627 108.845 439.19 109.114 439.811C109.583 440.893 110.185 441.628 110.904 441.998C111.592 442.347 112.484 442.402 113.417 442.149C114.399 441.881 115.291 441.33 116.035 440.824C119.441 438.515 122.266 435.333 124.758 432.525C124.931 432.33 125.221 431.999 125.233 431.801C125.264 431.295 125.704 430.898 126.205 430.938C126.711 430.972 127.097 431.405 127.066 431.911C127.017 432.744 126.484 433.343 126.132 433.743C123.568 436.628 120.662 439.902 117.067 442.343C116.249 442.898 115.149 443.58 113.898 443.921C113.355 444.068 112.814 444.142 112.291 444.142H112.291Z"
              fill="#2B2A29"/>
        <path d="M210.838 377.867C208.25 377.867 205.516 377.676 202.641 377.291C190.88 375.708 180.768 371.384 180.668 371.341C180.202 371.138 179.987 370.599 180.189 370.133C180.39 369.67 180.931 369.453 181.395 369.655C181.494 369.696 191.406 373.932 202.922 375.474C218.146 377.515 228.804 374.149 234.597 365.464C243.515 352.095 242.379 334.204 242.006 328.328C241.967 327.714 241.936 327.226 241.927 326.896C241.811 322.542 242.63 319.25 244.433 316.827C246.393 314.192 249.74 312.47 253.386 312.224C256.465 312.016 259.822 312.804 263.092 314.515C264.246 315.117 265.684 315.987 266.567 317.382C268.127 319.845 267.809 324.08 263.583 327.986C260.783 330.578 257.368 332.501 253.704 333.562C253.217 333.698 252.708 333.419 252.567 332.934C252.426 332.446 252.707 331.936 253.195 331.797C256.585 330.82 259.746 329.036 262.336 326.639C264.742 324.414 266.607 320.876 265.016 318.362C264.366 317.337 263.193 316.636 262.242 316.141C259.272 314.589 256.254 313.869 253.51 314.053C250.393 314.265 247.551 315.712 245.907 317.921C244.36 320.003 243.658 322.921 243.763 326.845C243.772 327.146 243.802 327.615 243.839 328.21C244.222 334.245 245.387 352.598 236.125 366.48C231.11 373.998 222.453 377.867 210.839 377.867H210.838Z"
              fill="#2B2A29"/>
        <path d="M281.879 303.31C281.744 303.31 281.61 303.313 281.476 303.324C278.635 303.508 275.973 305.115 273.52 306.826C273.328 306.962 273.117 307.105 272.893 307.259C270.227 309.091 265.265 312.497 266.253 315.592C266.543 316.494 267.107 317.151 267.978 317.599C270.118 318.693 273.852 318.279 276.603 317.379C278.664 316.708 280.662 315.823 282.544 314.751C283.804 314.032 285.392 313.022 286.496 311.58C287.54 310.218 287.988 308.588 287.695 307.215C287.166 304.734 284.349 303.31 281.879 303.31ZM271.328 320.099C269.888 320.099 268.404 319.879 267.141 319.233C265.831 318.561 264.944 317.526 264.504 316.149C263.1 311.756 268.794 307.847 271.853 305.747C272.074 305.597 272.28 305.453 272.469 305.321C275.14 303.46 278.066 301.705 281.357 301.489C284.75 301.276 288.717 303.207 289.491 306.83C289.9 308.75 289.34 310.886 287.954 312.695C286.649 314.398 284.864 315.54 283.454 316.344C281.465 317.478 279.352 318.414 277.174 319.127C276.496 319.347 273.988 320.099 271.328 320.099H271.328Z"
              fill="#2B2A29"/>
        <path d="M285.03 315.596C283.865 315.596 282.51 316.275 281.277 316.896L281.238 316.914C278.021 318.525 274.747 319.355 270.823 320.1C269.361 320.379 267.372 321.175 266.572 322.501C266.183 323.143 266.115 323.848 266.361 324.652C266.71 325.79 267.872 326.538 268.534 326.883C271.374 328.366 274.737 328.076 277.057 327.57C281.784 326.542 285.456 323.895 286.881 320.485C287.577 318.815 287.502 316.638 286.171 315.879C285.823 315.681 285.438 315.596 285.03 315.596V315.596ZM273.453 329.813C271.575 329.813 269.553 329.486 267.684 328.513C266.565 327.93 265.122 326.88 264.605 325.191C264.208 323.895 264.345 322.637 264.999 321.554C266.398 319.234 269.547 318.477 270.479 318.298C274.253 317.582 277.387 316.789 280.415 315.273L280.453 315.254C282.428 314.264 284.886 313.03 287.082 314.285C289.378 315.592 289.565 318.819 288.575 321.19C286.92 325.154 282.76 328.209 277.448 329.365C276.3 329.614 274.921 329.813 273.453 329.813Z"
              fill="#2B2A29"/>
        <path d="M264.057 329.162C263.478 329.746 262.852 330.424 262.774 331.111C262.693 331.819 263.235 332.715 264.3 333.632C267.145 336.081 273.288 338.162 276.945 337.178C279.679 336.441 281.977 334.829 283.25 332.755C283.826 331.819 284.09 330.946 284.036 330.164C283.979 329.334 283.497 328.593 282.863 328.358C282.114 328.083 281.185 328.413 280.2 328.761C280.002 328.832 279.805 328.901 279.611 328.967C276.321 330.064 272.886 329.679 270.589 329.294C270.036 329.202 269.452 329.052 268.887 328.908C266.68 328.351 265.15 328.064 264.057 329.162ZM274.81 339.267C270.703 339.267 265.762 337.311 263.101 335.024C261.539 333.68 260.795 332.253 260.95 330.902C261.095 329.635 261.957 328.673 262.755 327.87C264.668 325.942 267.258 326.603 269.339 327.132C269.892 327.271 270.415 327.403 270.893 327.484C274.236 328.046 276.821 327.965 279.029 327.228C279.213 327.165 279.398 327.099 279.584 327.033C280.776 326.611 282.127 326.13 283.502 326.64C284.81 327.125 285.761 328.49 285.868 330.035C285.949 331.206 285.595 332.447 284.816 333.717C283.299 336.187 280.604 338.093 277.423 338.951C276.618 339.168 275.734 339.267 274.81 339.267H274.81Z"
              fill="#2B2A29"/>
        <path d="M157.034 306.259C136.321 306.259 119.469 322.083 119.469 341.538C119.469 360.992 136.321 376.82 157.034 376.82C177.747 376.82 194.598 360.992 194.598 341.538C194.598 322.083 177.747 306.259 157.034 306.259ZM157.034 378.655C135.308 378.655 117.633 362.005 117.633 341.538C117.633 321.074 135.308 304.424 157.034 304.424C178.76 304.424 196.435 321.074 196.435 341.538C196.435 362.005 178.76 378.655 157.034 378.655Z"
              fill="#2B2A29"/>
        <path d="M121.574 411.018C124.666 411.569 127.7 412.424 130.648 413.576C132.808 414.421 135.956 415.823 138.349 418.231C140.155 420.048 141.466 422.284 142.291 424.97C142.236 415.97 142.178 406.753 142.106 397.679C136.879 404.205 129.509 408.948 121.574 411.018H121.574ZM158.677 462.932C153.516 462.932 148.359 462.47 143.284 461.541C142.851 461.465 142.535 461.086 142.531 460.645C142.48 454.519 142.436 448.309 142.397 442.131C141.757 445.522 140.687 449.068 138.466 451.939C134.946 456.483 129.614 457.5 126.165 456.149C123.274 455.022 120.865 451.656 121.885 448.452C122.749 445.732 125.286 444.576 127.74 443.456C128.946 442.906 130.194 442.337 131.17 441.599C132.98 440.23 134.13 438.012 135.145 436.056C135.378 435.605 135.933 435.432 136.382 435.663C136.832 435.898 137.008 436.449 136.775 436.9C135.671 439.029 134.419 441.444 132.278 443.063C131.14 443.922 129.799 444.535 128.502 445.126C126.316 446.124 124.252 447.065 123.634 449.006C122.937 451.201 124.76 453.631 126.833 454.442C130.548 455.892 134.767 453.715 137.012 450.816C139.536 447.556 140.441 443.184 140.994 439.334C142.331 430.022 141.04 423.543 137.046 419.523C134.897 417.361 131.983 416.07 129.978 415.283C124.985 413.331 119.735 412.27 114.374 412.127C113.881 412.116 113.487 411.716 113.481 411.22C113.474 410.728 113.86 410.317 114.352 410.295C125.22 409.744 135.908 403.659 142.244 394.416C142.47 394.086 142.887 393.939 143.269 394.056C143.653 394.174 143.917 394.526 143.92 394.926C144.01 405.839 144.078 417.009 144.144 427.812C144.207 438.343 144.273 449.223 144.361 459.871C156.792 462.022 169.72 461.332 181.849 457.86C179.884 435.755 174.739 392.764 174.687 392.327C174.652 392.03 174.763 391.736 174.984 391.534C175.206 391.336 175.512 391.255 175.803 391.322C177.06 391.611 178.927 392.291 181.291 393.149C192.627 397.272 216.218 405.85 237.327 394.574C253.52 385.922 265.252 367.154 272.197 338.791C272.317 338.299 272.814 337.998 273.307 338.115C273.8 338.237 274.101 338.736 273.981 339.227C266.906 368.119 254.866 387.284 238.193 396.193C230.15 400.487 221.795 402.011 213.874 402.011C200.294 402.014 187.981 397.536 180.663 394.875C179.086 394.298 177.735 393.81 176.673 393.473C177.579 401.097 182.02 438.735 183.745 458.451C183.783 458.884 183.509 459.284 183.091 459.409C175.183 461.751 166.928 462.933 158.676 462.933L158.677 462.932Z"
              fill="#2B2A29"/>
        <path d="M116.764 583.01C110.541 583.01 106.85 581.256 105.789 577.79C105.108 575.566 105.898 573.228 106.552 571.661C108.908 566.015 113.279 561.071 118.859 557.745C124.173 554.577 130.255 553.072 136.081 553.465C140.547 522.819 142.924 491.585 143.145 460.623C143.148 460.117 143.571 459.709 144.069 459.713C144.577 459.716 144.985 460.127 144.981 460.638C144.758 491.97 142.332 523.579 137.773 554.585C137.701 555.069 137.261 555.414 136.773 555.363C125.045 554.188 112.783 561.493 108.248 572.365C107.657 573.782 107.043 575.618 107.545 577.255C108.555 580.555 113.259 581.212 117.036 581.175C129.239 581.073 141.608 580.723 153.816 580.14C154.619 574.271 154.579 549.971 154.54 526.438C154.493 498.258 154.445 469.121 155.674 462.634C155.769 462.135 156.248 461.805 156.748 461.901C157.245 461.996 157.573 462.477 157.479 462.972C156.282 469.289 156.33 498.343 156.376 526.438C156.42 552.283 156.46 576.693 155.496 581.212C155.409 581.619 155.058 581.916 154.643 581.935C142.172 582.544 129.524 582.904 117.052 583.01C116.955 583.01 116.859 583.01 116.764 583.01L116.764 583.01Z"
              fill="#2B2A29"/>
        <path d="M200.59 583.012C200.495 583.012 200.399 583.012 200.302 583.012C187.83 582.906 175.183 582.546 162.711 581.936C162.295 581.918 161.945 581.621 161.858 581.213C160.894 576.695 160.934 552.285 160.978 526.44C161.025 498.345 161.073 469.291 159.876 462.974C159.781 462.478 160.109 461.998 160.607 461.902C161.105 461.807 161.585 462.137 161.68 462.636C162.909 469.123 162.861 498.26 162.814 526.444C162.775 549.976 162.734 574.272 163.538 580.142C175.746 580.725 188.115 581.074 200.318 581.177C200.404 581.177 200.491 581.177 200.577 581.177C204.303 581.177 208.822 580.479 209.809 577.256C210.311 575.619 209.697 573.784 209.107 572.367C204.571 561.495 192.31 554.19 180.582 555.365C180.094 555.416 179.652 555.071 179.581 554.587C174.953 523.114 172.595 492.68 172.373 461.542C172.37 461.036 172.778 460.621 173.285 460.617C173.287 460.617 173.289 460.617 173.291 460.617C173.795 460.617 174.206 461.025 174.209 461.532C174.429 492.299 176.739 522.38 181.273 553.467C187.102 553.074 193.181 554.579 198.495 557.747C204.075 561.076 208.446 566.017 210.802 571.662C211.456 573.23 212.247 575.568 211.565 577.792C210.505 581.257 206.812 583.012 200.591 583.012L200.59 583.012Z"
              fill="#2B2A29"/>
        <path d="M154.009 330.727C154.009 334.508 152.557 337.572 150.766 337.572C148.975 337.572 147.523 334.507 147.523 330.727C147.523 326.95 148.975 323.885 150.766 323.885C152.557 323.885 154.009 326.95 154.009 330.727Z"
              fill="white"/>
        <path d="M150.775 324.802C149.827 324.802 148.45 327.11 148.45 330.726C148.45 334.346 149.827 336.654 150.775 336.654C151.723 336.654 153.099 334.346 153.099 330.726C153.099 327.11 151.723 324.802 150.775 324.802ZM150.775 338.49C148.402 338.49 146.613 335.153 146.613 330.726C146.613 326.303 148.402 322.967 150.775 322.967C153.147 322.967 154.936 326.303 154.936 330.726C154.936 335.153 153.147 338.49 150.775 338.49Z"
              fill="#2B2A29"/>
        <path d="M171.525 331.088C171.525 334.869 170.073 337.934 168.282 337.934C166.491 337.934 165.039 334.869 165.039 331.088C165.039 327.311 166.491 324.246 168.282 324.246C170.073 324.246 171.525 327.311 171.525 331.088Z"
              fill="white"/>
        <path d="M168.282 325.159C167.334 325.159 165.958 327.468 165.958 331.084C165.958 334.703 167.334 337.012 168.282 337.012C169.23 337.012 170.607 334.703 170.607 331.084C170.607 327.468 169.23 325.159 168.282 325.159ZM168.282 338.847C165.909 338.847 164.121 335.51 164.121 331.084C164.121 326.661 165.91 323.324 168.282 323.324C170.655 323.324 172.443 326.661 172.443 331.084C172.443 335.51 170.654 338.847 168.282 338.847Z"
              fill="#2B2A29"/>
        <path d="M153.656 330.726C153.656 333.908 153.011 336.489 152.215 336.489C151.419 336.489 150.773 333.908 150.773 330.726C150.773 327.543 151.419 324.967 152.215 324.967C153.011 324.967 153.656 327.543 153.656 330.726Z"
              fill="#2B2A29"/>
        <path d="M171.164 331.086C171.164 334.268 170.519 336.848 169.723 336.848C168.927 336.848 168.281 334.268 168.281 331.086C168.281 327.907 168.927 325.326 169.723 325.326C170.519 325.326 171.164 327.907 171.164 331.086Z"
              fill="#2B2A29"/>
        <path d="M143.739 320.97C143.368 320.97 143.018 320.747 142.879 320.376C142.701 319.902 142.942 319.374 143.416 319.194L151.895 316.019C152.371 315.843 152.899 316.081 153.077 316.555C153.255 317.028 153.014 317.561 152.54 317.736L144.061 320.912C143.955 320.952 143.846 320.97 143.739 320.97Z"
              fill="#2B2A29"/>
        <path d="M169.596 320.409C169.527 320.409 169.457 320.402 169.387 320.384L160.569 318.328C160.075 318.211 159.768 317.719 159.884 317.227C159.999 316.731 160.491 316.423 160.986 316.541L169.804 318.596C170.298 318.714 170.605 319.205 170.489 319.701C170.391 320.123 170.013 320.409 169.596 320.409H169.596Z"
              fill="#2B2A29"/>
        <path d="M158.389 358.748C150.349 358.748 142.833 356.505 138.283 352.754C137.892 352.431 137.836 351.851 138.159 351.462C138.482 351.069 139.061 351.014 139.452 351.337C143.684 354.828 150.763 356.913 158.389 356.913C165.432 356.913 171.965 355.162 176.312 352.108C176.727 351.818 177.3 351.917 177.591 352.331C177.883 352.746 177.783 353.319 177.368 353.609C172.719 356.876 165.801 358.748 158.389 358.748L158.389 358.748Z"
              fill="#2B2A29"/>
        <path d="M123.257 323.044C122.905 323.044 122.57 322.838 122.418 322.497C115.496 306.926 115.982 288.562 123.716 273.376C123.946 272.924 124.5 272.745 124.951 272.976C125.403 273.203 125.583 273.758 125.353 274.21C117.867 288.907 117.397 306.68 124.096 321.752C124.302 322.214 124.093 322.758 123.629 322.963C123.508 323.018 123.382 323.044 123.257 323.044Z"
              fill="#2B2A29"/>
        <path d="M188.43 321.897C188.309 321.897 188.187 321.874 188.07 321.824C187.603 321.625 187.387 321.085 187.586 320.619C194.014 305.577 193.016 287.381 184.982 273.132C184.733 272.692 184.889 272.13 185.331 271.88C185.774 271.63 186.333 271.789 186.582 272.229C194.891 286.967 195.923 305.786 189.275 321.339C189.126 321.687 188.786 321.897 188.43 321.897V321.897Z"
              fill="#2B2A29"/>
        <path d="M126.633 271.438C125.967 273.846 124.646 275.582 123.682 275.318C122.718 275.05 122.476 272.88 123.141 270.473C123.807 268.065 125.128 266.329 126.093 266.593C127.057 266.861 127.299 269.03 126.633 271.438Z"
              fill="#F9E505"/>
        <path d="M125.841 267.502C125.49 267.664 124.585 268.699 124.027 270.718C123.469 272.737 123.714 274.087 123.934 274.407C124.285 274.245 125.19 273.21 125.748 271.191C126.306 269.172 126.061 267.821 125.841 267.502ZM123.881 276.26C123.707 276.26 123.558 276.234 123.437 276.201C122.944 276.066 122.086 275.57 121.888 273.801C121.774 272.769 121.904 271.503 122.257 270.229C122.955 267.7 124.528 265.208 126.337 265.707C128.145 266.206 128.216 269.154 127.518 271.679C127.166 272.957 126.627 274.109 126 274.935C125.184 276.007 124.419 276.26 123.881 276.26L123.881 276.26Z"
              fill="#2B2A29"/>
        <path d="M185.416 268.462C186.362 270.775 186.378 272.959 185.452 273.337C184.526 273.715 183.009 272.144 182.063 269.831C181.118 267.519 181.102 265.335 182.028 264.956C182.954 264.579 184.471 266.15 185.416 268.462Z"
              fill="#F9E505"/>
        <path d="M182.392 265.828C182.212 266.17 182.128 267.543 182.921 269.481C183.713 271.423 184.734 272.341 185.102 272.458C185.282 272.12 185.366 270.747 184.574 268.809C183.781 266.867 182.76 265.946 182.392 265.828ZM185.166 274.308C184.644 274.308 183.935 274.08 183.112 273.229C182.392 272.483 181.721 271.401 181.22 270.175C180.228 267.748 179.952 264.816 181.687 264.107C183.423 263.399 185.281 265.689 186.274 268.112C186.774 269.338 187.054 270.582 187.061 271.617C187.075 273.398 186.28 273.989 185.806 274.183C185.647 274.249 185.43 274.308 185.166 274.308Z"
              fill="#2B2A29"/>
        <path d="M142.093 316.214C134.111 316.214 127.618 322.704 127.618 330.681C127.618 338.657 134.112 345.147 142.093 345.147C150.074 345.147 156.568 338.657 156.568 330.681C156.568 322.704 150.074 316.214 142.093 316.214ZM142.093 346.982C133.098 346.982 125.781 339.67 125.781 330.681C125.781 321.691 133.098 314.379 142.093 314.379C151.087 314.379 158.404 321.691 158.404 330.681C158.404 339.67 151.087 346.982 142.093 346.982Z"
              fill="#2B2A29"/>
        <path d="M176.503 316.214C168.521 316.214 162.028 322.704 162.028 330.681C162.028 338.657 168.521 345.147 176.503 345.147C184.484 345.147 190.978 338.657 190.978 330.681C190.978 322.704 184.484 316.214 176.503 316.214ZM176.503 346.982C167.509 346.982 160.191 339.67 160.191 330.681C160.191 321.691 167.509 314.379 176.503 314.379C185.497 314.379 192.814 321.691 192.814 330.681C192.814 339.67 185.497 346.982 176.503 346.982Z"
              fill="#2B2A29"/>
        <path d="M161.106 331.599H157.484C156.978 331.599 156.566 331.188 156.566 330.682C156.566 330.175 156.977 329.764 157.484 329.764H161.106C161.614 329.764 162.025 330.175 162.025 330.682C162.025 331.188 161.614 331.599 161.106 331.599Z"
              fill="#2B2A29"/>
        <path d="M120.187 332.004C119.706 332.004 119.302 331.634 119.271 331.146C119.24 330.639 119.625 330.206 120.131 330.173L126.644 329.765C127.152 329.736 127.586 330.122 127.617 330.624C127.649 331.131 127.264 331.568 126.758 331.597L120.245 332.004C120.225 332.004 120.206 332.004 120.187 332.004H120.187Z"
              fill="#2B2A29"/>
        <path d="M253.918 297.699C252.637 298.349 252.122 299.913 252.768 301.194L255.581 306.759C256.228 308.04 257.795 308.554 259.076 307.908L264.645 305.1C265.925 304.454 266.441 302.886 265.794 301.605L262.982 296.04C262.335 294.759 260.767 294.245 259.487 294.891L253.918 297.699ZM264.767 305.338L259.198 308.15C257.785 308.862 256.053 308.296 255.339 306.883L252.527 301.315C251.813 299.902 252.382 298.173 253.796 297.461L259.364 294.65C260.779 293.933 262.51 294.502 263.224 295.919L266.036 301.484C266.75 302.897 266.181 304.626 264.767 305.338Z"
              fill="white"/>
        <path d="M258.791 298.569L259.801 298.062L258.769 300.947L262.474 302.864L261.528 303.341L258.441 301.708L258.098 302.611L259.089 304.574L258.317 304.963L255.84 300.059L256.611 299.67L257.432 301.297C257.538 301.506 257.536 301.796 257.547 302.027L257.702 302.02C257.69 301.788 257.665 301.495 257.745 301.286L258.791 298.569L258.791 298.569Z"
              fill="white"/>
        <path d="M262.535 302.2L263.072 301.928L263.332 302.442L262.795 302.71L262.535 302.2Z" fill="white"/>
    </g>
</svg>
