<svg width="24" height="24" viewBox="0 0 24 24" fill="none" xmlns="http://www.w3.org/2000/svg">
<path d="M21.4253 0H2.57471C1.15274 0 0 1.15274 0 2.57471V21.4253C0 22.8473 1.15274 24 2.57471 24H21.4253C22.8473 24 24 22.8473 24 21.4253V2.57471C24 1.15274 22.8473 0 21.4253 0Z" fill="#20A0E1"/>
<path fill-rule="evenodd" clip-rule="evenodd" d="M15.8162 9.1961C15.9081 9.01219 16.092 9.01219 16.092 8.73633C15.7242 8.73633 15.4483 9.01219 15.2644 9.10414L9.10352 12.9662L10.2989 16.7363C10.4828 16.5524 10.4828 16.3685 10.4828 16.0007C10.4828 15.8168 10.5748 15.449 10.5748 15.2651V14.6214C10.6667 14.5294 10.6667 14.4375 10.6667 14.2536C10.6667 14.1616 10.6667 14.0697 10.6667 13.9777C10.7587 13.7938 10.8506 13.8858 10.9426 13.7018C12.3219 12.2306 14.2529 10.5754 15.8162 9.1961Z" fill="#CCD8E6"/>
<path fill-rule="evenodd" clip-rule="evenodd" d="M6.06905 11.8623L9.10353 12.9658L15.5403 8.91979C15.7242 8.82783 15.9081 8.73588 16.092 8.73588C16.092 9.01174 15.7242 9.28761 15.5403 9.47151C14.161 10.6669 11.8622 12.414 10.6668 13.7934L11.7702 14.6209C11.9541 14.6209 12.4139 15.0807 12.5058 15.1727C12.6897 15.2646 13.4254 15.8163 13.5173 16.0002C13.7012 16.0002 13.7012 16.0922 13.7932 16.1842L14.7127 16.8278C15.0805 17.1037 15.4484 17.5635 16.092 17.1037L18.115 7.90829C18.3909 6.34508 17.6553 6.62094 16.6438 6.98875L6.34491 11.1267C5.9771 11.3106 5.60928 11.7704 6.06905 11.8623Z" fill="#FEFEFE"/>
<path fill-rule="evenodd" clip-rule="evenodd" d="M10.2988 16.7355L10.3908 16.8275C10.5747 16.8275 10.7586 16.7355 10.9425 16.5516L12.5057 15.1723C12.4138 15.0803 11.954 14.6206 11.7701 14.6206L10.6666 13.793L10.2988 16.7355Z" fill="#ABBDD5"/>
<path fill-rule="evenodd" clip-rule="evenodd" d="M23.9998 12.7817L18.0228 6.80469C18.2067 6.9886 18.2067 7.26446 18.1148 7.90814L16.0918 17.1035C15.4481 17.5633 15.0803 17.1035 14.7125 16.8277L13.7929 16.184C13.701 16.092 13.701 16.0001 13.5171 16.0001C13.4251 15.8162 12.6895 15.2645 12.5056 15.1725L10.9423 16.5518C10.7584 16.6438 10.5745 16.7357 10.3906 16.8277L17.655 24.0001H21.4251L23.9998 21.4254V12.7817Z" fill="#1A82B7"/>
<path fill-rule="evenodd" clip-rule="evenodd" d="M6.06934 11.8623L10.0234 15.9083L9.10382 12.9658L6.06934 11.8623Z" fill="#1A82B7"/>
</svg>
