<svg xmlns="http://www.w3.org/2000/svg" width="24" height="24" viewBox="0 0 24 24" fill="none">
  <path d="M0 5C0 2.23858 2.23858 0 5 0H19C21.7614 0 24 2.23858 24 5V19C24 21.7614 21.7614 24 19 24H5C2.23858 24 0 21.7614 0 19V5Z" fill="#665CA7"/>
  <path d="M11.2896 9.07791C11.6208 9.06719 11.9507 9.12153 12.2589 9.23754C12.5672 9.35355 12.8471 9.52877 13.0814 9.75232C13.3157 9.97587 13.4993 10.243 13.6209 10.5371C13.7425 10.8312 13.7995 11.146 13.7882 11.4619M10.7254 7.00151C11.4237 7.00078 12.1148 7.13531 12.7569 7.39696C13.3991 7.65861 13.9789 8.04192 14.4612 8.52367C14.9435 9.00543 15.3183 9.5756 15.5628 10.1996C15.8074 10.8237 15.9166 11.4886 15.8838 12.1541M10 5.00202C11.0894 4.97785 12.1721 5.17124 13.1786 5.5698C14.1851 5.96836 15.0932 6.56327 15.8445 7.31636C16.5959 8.06946 17.1739 8.9641 17.5416 9.94289C17.9093 10.9217 18.0584 11.963 17.9795 13" stroke="white" stroke-width="0.8" stroke-linecap="round"/>
  <path fill-rule="evenodd" clip-rule="evenodd" d="M4.45312 10.875C4.45312 6.60938 5.25 3.98438 12 3.98438C18.75 3.98438 19.5469 6.60938 19.5469 10.875C19.5469 15.1406 18.75 17.7656 12 17.7656L10.7812 17.7188L8.29688 20.6719C8.10938 20.8594 7.92188 20.7188 7.92188 20.5313V17.2969C7.64062 17.2969 6.46875 16.7344 6.14062 16.4063C5.10938 15.3281 4.45312 14.5313 4.45312 10.875ZM3.04688 10.875C3.04688 4.96875 5.625 2.57812 12 2.57812C18.375 2.57812 20.9531 4.96875 20.9531 10.875C20.9531 16.7813 18.375 19.1719 12 19.1719C11.5312 19.1719 11.1562 19.1719 10.5 19.0781L8.71875 21.0938C8.39062 21.4688 7.40625 21.6094 7.40625 20.4844V18.5156C7.125 18.5156 6.46875 18.2344 5.57812 17.6719C4.6875 17.0625 3.04688 15.6094 3.04688 10.875ZM13.5 12.8438C13.8125 12.4375 14.1875 12.375 14.625 12.6563L16.3125 13.9219C16.5625 14.2344 16.4531 14.6719 15.9844 15.2344C15.5156 15.7969 15.0781 16.0313 14.6719 15.9375C13.0156 15.5625 11.4219 14.625 9.89062 13.125C8.35937 11.625 7.40625 10 7.03125 8.25C7.03125 7.625 7.42188 7.09375 8.20312 6.65625C8.60938 6.375 8.95312 6.45313 9.23438 6.89063L10.4062 8.53125C10.5938 8.90625 10.4844 9.25 10.0781 9.5625C8.25 10.2656 12.4688 14.8125 13.5 12.8438Z" fill="white"/>
</svg>
